<?xml version="1.0" encoding="utf-8"?>
<!-- Generator: Adobe Illustrator 24.0.0, SVG Export Plug-In . SVG Version: 6.00 Build 0)  -->
<svg version="1.1" id="Слой_1" xmlns="http://www.w3.org/2000/svg" xmlns:xlink="http://www.w3.org/1999/xlink" x="0px" y="0px"
	 viewBox="0 0 226.14 50.45" style="enable-background:new 0 0 226.14 50.45;" xml:space="preserve">
<style type="text/css">
	.st0{clip-path:url(#SVGID_2_);fill:#FFFFFF;}
</style>
<g>
	<defs>
		<rect id="SVGID_1_" y="0" width="226.14" height="50.45"/>
	</defs>
	<clipPath id="SVGID_2_">
		<use xlink:href="#SVGID_1_"  style="overflow:visible;"/>
	</clipPath>
	<path class="st0" d="M65.39,2.05V0H51.31v2.05h6.75L47.84,37.99L37.98,2.05h6.08V0H26.22v2.05h5.56L21.56,37.99L11.69,2.05h6.08V0
		H0v2.05h4.48l13.27,48.4h2.22L32.41,6.92l0.32-1.59l11.32,45.11h2.22l13.82-48.4H65.39z M70.45,12.21L70.45,12.21h-0.04
		c-7.23,0-11.47,4.5-11.49,12.85h-0.01v7.1h0.01c0.04,8.33,4.26,12.82,11.49,12.82c0.01,0,0.01-0.01,0.02-0.01
		c0,0,0.01,0.01,0.01,0.01c7.23,0,11.46-4.49,11.49-12.82h0.01v-7.1h-0.01C81.92,16.72,77.68,12.21,70.45,12.21 M76.31,35.79
		c0,6.87-1.94,7.89-5.9,7.89h-0.01c-3.93,0-5.88-1.02-5.92-7.73V21.39c0.03-6.75,1.99-7.77,5.92-7.77h0.01c3.96,0,5.9,1.02,5.9,7.89
		c0,0.01-0.01,0.01-0.01,0.02v14.25C76.31,35.78,76.31,35.79,76.31,35.79 M135.77,11.6h-1.76l-9.83,31.39h-3.08v1.37h9.2v-1.37
		h-4.43l3-9.56h8.39l2.63,9.56h-3.5v1.37h11.14v-1.37h-3.01L135.77,11.6z M129.26,32.16l3.9-12.46h0.31l3.43,12.46H129.26z
		 M116.18,42.99l0.03-29.35h3.04v-1.36h-8.54l0,0.01h-0.01l-9.06,25.46l-8.59-25.47l-0.02,0.01v-0.01h-8.47v1.37h3l-0.01,29.34
		h-2.81v1.37h8.91v-1.37h-4.2V15.16l10.08,30.17h1.4l10.6-29.86l-0.05,27.52h-3.28v1.37h11.38v-1.37c0,0-1.59-0.01-3.42,0
		C116.41,39.55,116.18,42.99,116.18,42.99 M164.89,13.64h4.58v21.2l-13.35-22.51l-0.01-0.05h-7.78v1.36h2.76v29.37h-2.76v1.36h8.81
		v-1.36h-4.64V16.44l16.96,28.6l0.01-0.06v0.06h1.4V13.64h3.01v-1.36h-8.99V13.64z M177.33,35.49c-1.69,0-3.06,1.53-3.06,3.41
		c0,1.89,1.37,3.42,3.06,3.42c1.69,0,3.06-1.53,3.06-3.42C180.39,37.02,179.02,35.49,177.33,35.49 M199.4,18.21
		c-0.05-0.06-0.09-0.13-0.14-0.18c-0.01,0-0.01-0.01-0.02-0.02c-0.16-0.19-0.33-0.33-0.5-0.43c-0.43-0.27-1.03-0.5-1.91-0.5
		c-2.31,0-3.39,1.14-4.41,2.69c-0.66,1.01-1.36,2.35-1.76,3.17c-0.02-0.43-0.13-1.3-0.64-2.64c-0.67-1.8-1.3-2.44-1.4-2.52v-0.03
		h-5.46v1.35h3.46V40.3h-3.46v1.35h12.42V40.3h-4.9V25.63c0.53-1.31,1.35-3.02,2.57-4.84c1.24-1.56,1.88-2.02,2.59-2.02
		c0.32,0,0.32,1.42,0.31,2.13c0,0.11-0.01,0.21-0.02,0.32v0.09V21.3v0.02c0,3.09,0.92,3.9,2.06,3.9c1.13,0,2.04-0.75,2.04-3.9
		c0-1.24-0.31-2.35-0.79-3.07C199.42,18.24,199.4,18.23,199.4,18.21 M223.41,40.28c-0.61,0-0.7-0.63-0.7-0.68V17.75h-4.07v18.04
		c-0.05,0.09-2.7,5.17-6.39,5.17c-1.9,0-2.51-1.01-2.51-2.17V17.76h-7.64v1.35h3.57v17.54c0,0-0.16,5.66,6.04,5.66
		c4.15,0,6.49-3.79,6.93-4.45v0.11l0,0c-0.05,2.18,0.69,3.63,1.8,3.65h5.69v-1.35H223.41z"/>
</g>
</svg>
