<svg xmlns="http://www.w3.org/2000/svg" xmlns:xlink="http://www.w3.org/1999/xlink" viewBox="0 0 104.75 104.75"><defs><path id="a" d="M0 0h104.75v104.75H0z"/></defs><clipPath id="b"><use xlink:href="#a" overflow="visible"/></clipPath><path d="M103 33.17H90.78c-.96 0-1.75.78-1.75 1.75v5.24H73.32v-1.74c0-.97-.78-1.75-1.75-1.75h-6.98v-8.73c0-.96-.78-1.75-1.75-1.75H57.6V15.71h5.06l10.44 2.1c4.05.81 7.98-1.82 8.79-5.86.81-4.04-1.82-7.98-5.86-8.79-.97-.19-1.96-.19-2.93 0L62.67 5.24h-5.06V1.75c0-.97-.78-1.75-1.74-1.75h-6.98c-.97 0-1.75.78-1.75 1.75v3.49h-5.06l-10.45-2.1a7.48 7.48 0 0 0-8.8 5.85c-.81 4.05 1.81 7.99 5.85 8.8a7.359 7.359 0 0 0 2.95 0l10.44-2.08h5.06v10.47H41.9c-.96 0-1.74.78-1.74 1.75v8.73h-6.98c-.96 0-1.75.78-1.75 1.75v3.49H22.7C10.17 41.91.01 52.07 0 64.59v10.47c0 .97.78 1.75 1.75 1.75H19.2c.97 0 1.75-.78 1.75-1.75V64.59c0-.96.78-1.74 1.75-1.74h8.73v3.49c0 .96.78 1.75 1.75 1.75h38.41c.96 0 1.75-.78 1.75-1.75v-1.75h15.71v5.24c0 .97.78 1.75 1.75 1.75H103c.96 0 1.75-.78 1.75-1.75V34.92c0-.97-.79-1.75-1.75-1.75M57.61 8.73h5.24c.12 0 .24-.01.35-.04l10.61-2.12a3.977 3.977 0 1 1 0 7.8L63.2 12.26c-.11-.02-.23-.04-.35-.03h-5.24v-3.5zM31.42 59.36h-8.73c-2.89 0-5.24 2.35-5.24 5.24v8.73H3.49V64.6c.01-10.6 8.6-19.19 19.2-19.2h8.73v13.96zM50.63 3.49h3.49v1.75h-3.49V3.49zm0 5.24h3.49v3.49h-3.49V8.73zm0 6.98h3.49v10.47h-3.49V15.71zm-8.73-3.49c-.12 0-.23.01-.35.03l-10.61 2.12c-2.15.43-4.25-.97-4.68-3.12-.43-2.15.97-4.25 3.12-4.68.51-.1 1.04-.1 1.56 0l10.61 2.12c.11.03.23.04.35.04h5.24v3.49H41.9zm1.74 17.46H61.1v6.98H43.64v-6.98zm26.19 34.91H34.92V40.15h34.92v24.44zm19.2-3.49H73.32V43.64h15.71V61.1zm12.22 6.99h-8.73V36.66h8.73v31.43zm-83 24.71l-6.24-11.58c-.54-.85-1.66-1.1-2.51-.57-.23.14-.42.34-.57.57L2.7 92.8a7.798 7.798 0 0 0 .17 7.75 8.72 8.72 0 0 0 7.6 4.19 8.72 8.72 0 0 0 7.6-4.19c1.44-2.36 1.5-5.32.18-7.75m-3.17 5.96a5.287 5.287 0 0 1-4.61 2.49c-1.87.05-3.62-.9-4.6-2.49a4.286 4.286 0 0 1-.1-4.31l4.7-8.73 4.7 8.73c.75 1.36.72 3-.09 4.31" clip-path="url(#b)" fill="#e7ff00"/></svg>