<svg xmlns="http://www.w3.org/2000/svg" xmlns:xlink="http://www.w3.org/1999/xlink" viewBox="0 0 169.12 273.11"><defs><path id="a" d="M0 0h169.12v273.11H0z"/></defs><clipPath id="b"><use xlink:href="#a" overflow="visible"/></clipPath><path d="M164.68 210.94l-8.88 62.17H0v-16.28C73.27 188.37 111.39 149.51 111.39 90.3c0-56.99-17.02-74.75-32.94-74.75-10.73 0-13.69 4.44-13.69 11.84 0 8.88 4.81 17.39 4.81 27.01 0 13.69-10.73 26.65-29.24 26.65-21.83 0-29.24-15.91-29.24-29.6C11.1 25.9 33.68 0 86.23 0c55.14 0 82.9 42.19 82.9 79.93 0 19.98-4.44 48.48-34.05 79.57-13.32 13.69-28.12 24.79-42.93 37.01C76.24 209.46 61.8 222.42 46.26 235h66.98c17.02 0 25.53-1.85 34.42-9.25l1.85-14.8h15.17z" clip-path="url(#b)" fill="#e7ff00"/></svg>