<svg xmlns="http://www.w3.org/2000/svg" xmlns:xlink="http://www.w3.org/1999/xlink" viewBox="0 0 171.71 278.66"><defs><path id="a" d="M0 0h171.71v278.66H0z"/></defs><clipPath id="b"><use xlink:href="#a" overflow="visible"/></clipPath><path d="M41.08 112.13c9.25 2.96 20.72 4.07 27.38 4.07 29.24 0 42.19-22.94 42.19-53.29 0-46.63-17.76-48.48-31.82-48.48-9.25 0-15.17 6.66-15.17 15.91 0 6.29 2.22 12.58 2.59 19.24 0 16.29-12.58 26.28-29.61 26.28-15.17 0-27.01-11.47-27.01-29.61C9.62 27.01 26.64 0 80.68 0c59.21 0 86.22 33.68 86.22 63.28 0 33.31-24.43 57.36-59.58 61.8v1.48c36.64 4.81 64.39 32.94 64.39 72.9 0 50.33-40.34 79.2-92.89 79.2-29.6 0-78.82-15.17-78.82-51.44 0-16.29 11.84-31.46 31.08-31.46 17.02 0 28.86 12.95 28.86 29.24 0 9.62-5.55 17.02-5.55 24.8 0 7.03 8.51 14.8 21.83 14.8 32.57 0 39.23-42.56 39.23-71.42 0-48.85-24.8-61.8-44.78-61.8-9.62 0-18.87 1.11-29.6 4.07v-23.32z" clip-path="url(#b)" fill="#e7ff00"/></svg>