<svg version="1.1" id="Слой_1" xmlns="http://www.w3.org/2000/svg" xmlns:xlink="http://www.w3.org/1999/xlink" x="0" y="0" viewBox="0 0 128 128" xml:space="preserve"><style>.st0{clip-path:url(#SVGID_2_);fill:#e7ff00}</style><defs><path id="SVGID_1_" d="M0 0h128v128H0z"/></defs><clipPath id="SVGID_2_"><use xlink:href="#SVGID_1_" overflow="visible"/></clipPath><path class="st0" d="M64 106.67c-23.53 0-42.67-19.14-42.67-42.67S40.47 21.33 64 21.33 106.67 40.47 106.67 64 87.53 106.67 64 106.67m0-81.07c-21.17 0-38.4 17.23-38.4 38.4 0 21.17 17.23 38.4 38.4 38.4s38.4-17.23 38.4-38.4c0-21.17-17.23-38.4-38.4-38.4M64 128c-1.18 0-2.13-.96-2.13-2.13v-12.8c0-1.18.96-2.13 2.13-2.13 1.18 0 2.13.96 2.13 2.13v12.8c0 1.17-.95 2.13-2.13 2.13m0-110.93c-1.18 0-2.13-.95-2.13-2.13V2.13C61.87.96 62.82 0 64 0s2.13.96 2.13 2.13v12.8c0 1.18-.95 2.14-2.13 2.14M14.93 66.13H2.13C.96 66.13 0 65.18 0 64s.96-2.13 2.13-2.13h12.8c1.18 0 2.13.96 2.13 2.13.01 1.18-.95 2.13-2.13 2.13m110.94 0h-12.8c-1.18 0-2.13-.96-2.13-2.13 0-1.18.96-2.13 2.13-2.13h12.8c1.18 0 2.13.96 2.13 2.13 0 1.18-.96 2.13-2.13 2.13"/><path class="st0" d="M53.33 96c-.33 0-.66-.07-.97-.23a2.136 2.136 0 0 1-1.11-2.38l5.8-25.12H46.93c-.84 0-1.59-.49-1.94-1.25-.35-.76-.22-1.65.33-2.28l27.73-32c.64-.74 1.71-.95 2.58-.51.88.44 1.33 1.43 1.11 2.38l-5.8 25.12h10.12c.84 0 1.59.49 1.94 1.25.35.76.22 1.65-.33 2.28l-27.73 32c-.41.48-1 .74-1.61.74m-1.72-32h8.13c.65 0 1.26.3 1.67.81.41.51.56 1.17.41 1.81l-4.47 19.37L76.39 64h-8.13c-.65 0-1.26-.3-1.67-.8-.4-.51-.55-1.17-.41-1.81l4.47-19.37L51.61 64zm56.14 45.88c-.55 0-1.09-.21-1.51-.63l-9.05-9.05c-.83-.83-.83-2.18 0-3.02s2.18-.83 3.02 0l9.05 9.05c.83.83.83 2.18 0 3.02-.42.42-.97.63-1.51.63M29.31 31.44c-.55 0-1.09-.21-1.51-.63l-9.05-9.05c-.83-.83-.83-2.18 0-3.02.83-.83 2.18-.83 3.02 0l9.05 9.05c.83.83.83 2.18 0 3.02-.42.42-.97.63-1.51.63m-9.06 78.44c-.55 0-1.09-.21-1.51-.63-.83-.83-.83-2.18 0-3.02l9.05-9.05c.84-.83 2.18-.83 3.02 0 .84.83.84 2.18 0 3.02l-9.05 9.05c-.41.42-.96.63-1.51.63M98.7 31.44c-.55 0-1.09-.21-1.51-.63-.83-.83-.83-2.18 0-3.02l9.05-9.05c.83-.83 2.18-.83 3.02 0 .83.83.83 2.18 0 3.02l-9.05 9.05c-.42.42-.97.63-1.51.63"/></svg>