<svg xmlns="http://www.w3.org/2000/svg" xmlns:xlink="http://www.w3.org/1999/xlink" viewBox="0 0 87.52 104.36"><defs><path id="a" d="M0 0h87.53v104.36H0z"/></defs><clipPath id="b"><use xlink:href="#a" overflow="visible"/></clipPath><path d="M87.52 58.91c0-4.64-3.78-8.42-8.42-8.42H69V8.42C69 3.78 65.22 0 60.58 0c-4.64 0-8.42 3.78-8.42 8.42V50.5h-10.1c-4.42 0-8.02 3.44-8.35 7.78l-1.75-1.75V6.73c0-3.71-3.02-6.73-6.73-6.73-3.71 0-6.73 3.02-6.73 6.73v49.8L8.4 66.63v8.1c0 9.12-2.8 17.86-8.1 25.28l-.3.44v3.9h50.5v-3.9l-.32-.44c-.23-.32-.42-.65-.64-.98.16-.03.32-.04.47-.08 1.72 3.29 5.12 5.41 8.91 5.41a10.1 10.1 0 0 0 7.55-3.42c.3.03.58.05.87.05 4.64 0 8.42-3.78 8.42-8.42 0-.58-.07-1.14-.18-1.68h11.96V58.91zM55.55 8.42c0-2.78 2.27-5.05 5.05-5.05s5.05 2.26 5.05 5.05V50.5h-10.1V8.42zM11.78 69.01h26.93v3.37H11.78v-3.37zM28.61 20.2h-6.73v-3.37h6.73v3.37zM25.25 3.37c1.86 0 3.37 1.51 3.37 3.37v6.73h-6.73V6.73c-.01-1.85 1.5-3.36 3.36-3.36m-3.37 54.55V23.56h6.73v34.36l7.72 7.72H14.16l7.72-7.72zm16.67 43.07l-1.53-15.32-3.35.34 1.5 14.98h-3.35l-1.53-15.32-3.35.33 1.5 14.98h-6.38L23.56 86l-3.35-.33-1.53 15.32h-3.35l1.5-14.98-3.35-.34-1.53 15.32H3.73c5.08-7.5 7.82-16.19 8.01-25.25h27.01c.19 9.06 2.93 17.75 8.01 25.25h-8.21zm28.78-3.37c-.36 0-.73-.05-1.17-.15l-1.11-.26-.66.93A6.752 6.752 0 0 1 58.9 101c-2.89 0-5.45-1.87-6.36-4.65l-.57-1.72-1.67.69c-.86.35-1.77.56-2.69.62a43 43 0 0 1-5.14-15.4 8.36 8.36 0 0 1 3.81-1.38l.99-.1.39-.91a6.716 6.716 0 0 1 6.18-4.08c2.77 0 5.29 1.76 6.28 4.37l.58 1.55 1.56-.55c.6-.21 1.15-.32 1.68-.32 2.78 0 5.05 2.27 5.05 5.05 0 .58-.11 1.17-.34 1.78l-.54 1.44 1.39.67c1.77.86 2.87 2.59 2.87 4.53.01 2.77-2.26 5.03-5.04 5.03m4.88-11.87c.11-.53.16-1.06.16-1.59 0-4.64-3.78-8.42-8.42-8.42-.44 0-.88.04-1.32.11-1.77-3.14-5.13-5.16-8.78-5.16-3.71 0-7.09 2.03-8.85 5.24-.15.03-.29.08-.44.11l2.27-12.08h27.5l4.42 23.56h-4.73a8.01 8.01 0 0 0-1.81-1.77m11.95 1.77h-1.97l-5.05-26.93H44.05l-1.97 10.5v-4.47l-5.05-5.05V58.9c0-2.78 2.27-5.05 5.05-5.05h37.03c2.78 0 5.05 2.27 5.05 5.05v28.62z" clip-path="url(#b)" fill="#e7ff00"/></svg>