<svg xmlns="http://www.w3.org/2000/svg" xmlns:xlink="http://www.w3.org/1999/xlink" viewBox="0 0 437.43 688.18"><defs><path id="a" d="M0 0h437.43v688.18H0z"/></defs><clipPath id="b"><use xlink:href="#a" overflow="visible"/></clipPath><path d="M379.64 10.93c-.45-1.86-.89-3.72-1.34-5.58-.29-1.2-.57-2.39-.86-3.59-.49-.15-.71-.61-1.05-.93-.27-.25-.64-.45-.91-.24-.89.67-1.93.48-2.91.64-1.15.18-2.04.71-2.63 1.68-.52.87-1.07 1.04-2 .54-.6-.32-1.35-1.03-2.03-.4-.64.59.05 1.39.12 2.1.03.33.15.66.23.99.28.78.28 1.53-.32 2.18.03.13.06.26.09.4-.48.66-.09 1.31.06 1.95.56 2.44 1.15 4.88 1.74 7.31-.1.17-.19.34-.29.51.64 2.66 1.27 5.31 1.9 7.97.01.26.04.52.05.77-.83.25-.94.81-.73 1.64.53 2.07.99 4.16 1.47 6.24-.12.04-.23.1-.34.16v0c-.61.89.09 1.68.18 2.52.15 1.46 1.11 2.82.58 4.38-.35 1.55.53 2.89.72 4.34.11.84.64 1.65-.05 2.52-.31.39-.01.92.09 1.38.33 1.46.67 2.91 1.01 4.37-.13.04-.25.1-.36.17-.6 1.37.34 2.54.51 3.81.12.85.49 1.67-.16 2.45-.05.13-.04.26.03.38.31 1.45.63 2.9.94 4.36v0c-.41.15-.71.37-.58.88.15.58.3 1.16.46 1.74.01 1 .83 2.02-.09 2.99-.02.7.21 1.34.44 1.98l.6 2.73v0c-.53.17-.79.48-.61 1.07.23.78.44 1.57.66 2.36.19.61-.46.9-.54 1.41.08.96.33 1.88.68 2.78l.37 1.92c-.5.15-.81.42-.65 1 .16.57.33 1.13.49 1.7.11.75.31 1.51-.34 2.13.07.84.33 1.64.62 2.42.06.36.13.73.19 1.09v0c-.22.22-.45.43-.67.65-.47 1.17.44 2.17.41 3.29-.13.04-.25.1-.36.17-.44.31-.25.72-.17 1.1.25 1.22.58 2.33.22 3.71-.29 1.11.43 2.49.7 3.75a.69.69 0 0 0-.32.21c-.47.31-.21.73-.13 1.09.18.89.73 1.77-.1 2.66-.15.16.03.65.1.98.17.84.33 1.55-.05 2.5-.38.93.35 2.09.63 3.13.03.25.07.49.1.74-1.15.42-.48 1.2-.37 1.87.1.52.2 1.04.29 1.55-.5.2-.75.52-.58 1.09.19.64.36 1.29.54 1.93-.19.33-.38.67-.58 1v0c0 1.1.48 2.11.68 3.17-.49.11-.82.33-.66.91.12.43.26.86.39 1.29-.06.1-.05.19.04.26h0c-.22.15-.44.3-.67.45-.58.56-.11 1.14-.01 1.69.12.66.38 1.31-.12 1.92 0 0 0 0 0 0-.32 1.15.45 2.17.41 3.28v0c-.64.26-.47.69-.3 1.18.2.57.49 1.18-.25 1.62-.35.22-.33.57-.22.88.64 1.79-.12 3.59.02 5.39h0l-.05.04c-.55 1.17.34 2.15.42 3.23-.17.1-.5.25-.49.29.44 1.39-.58 2.73-.09 4.11.05.75.4 1.55-.31 2.2h0c-.04.57.18 1.08.37 1.59.04.22.07.45.11.67-1.16.45-.51 1.23-.36 1.92.05.23.09.46.14.68-1.22.64-.42 1.5-.26 2.29-.05.12-.04.24.01.36l-.01.02c-.31.1-.65.16-.64.6.03.56.17 1.09.42 1.59-.2.34-.4.68-.6 1.01-.14.59.11 1.1.33 1.61l-.24.86c-.73.58-.17 1.16-.01 1.74l.15.64-.69.39h0c-.62.86.15 1.61.18 2.41l-.04.04c-.78.15-.69.69-.56 1.24.13.59.35 1.18-.1 1.73-.4.88.24 1.66.25 2.5-.13.06-.25.12-.38.18-.63.87.14 1.63.2 2.44l-.38.18c-.27.04-.36.19-.25.45.09.38.19.76.28 1.15.17.59-.44.92-.48 1.44 0 .39.16.93-.04 1.14-.71.77-.3 1.47-.04 2.2-.11.29-.22.57-.33.86-.59.6-.03 1.16.07 1.74.05.23.09.45.14.68-1.11.42-.51 1.23-.43 1.91-.56.14-.76.49-.61 1.05.13.52.24 1.04.36 1.56-.32.05-.6.14-.65.53-.04.59.15 1.13.39 1.65l-.3.81c-.64.6-.07 1.16.05 1.74-.25.08-.5.16-.76.24-.58.85.23 1.61.14 2.42-.43.15-.65.42-.55.9.08.39.17.79-.21 1.09-.49.36-.23.81-.14 1.23.11.51.27 1-.05 1.49h0c-.28.16-.26.4-.19.66-.04.42.05.86-.22 1.25v0c-.07.11-.24.25-.21.32.37 1.1.04 2.16-.14 3.22.03.25.06.51.08.76-.97.82-.73 2.02-.91 3.08-.07.42.17.9.27 1.36-.31.07-.61.16-.6.57v0c.06.27.12.54.17.8l-.56.99h0c-.14.6.32 1.24-.33 1.83-.44.39.08.98.14 1.48h0c-.49.15-.81.41-.65.98.16.55.32 1.1.49 1.65-.32.09-.66.14-.71.57v.01c-.32 1.21-.36 2.49-.94 3.64v0c-.3.43-.03.83.07 1.25-.05.1-.04.2.03.29-.12.07-.24.14-.37.21-.14 1.18-.64 2.24-.53 3.54.07.93-.07 2.17-.72 3.11-.05.14-.03.27.05.39.22.6-.38.92-.5 1.4.06.26.11.52.17.77-.1.29-.21.57-.31.86h0c-.41.27-.26.6-.11.93.04.23.08.46.12.7-.54.19-.91.47-.56 1.11.05.23.1.46.15.68-.24.12-.48.24-.71.36-.55.54.05 1.11-.04 1.66-.42.2-.42.53-.25.89-.73 1.92-1.27 3.89-1.43 5.93-.05.63-.9.92-.53 1.63-.12.06-.24.12-.35.2-.22.88-.63 1.76-.6 2.63.03.63-.5.88-.48 1.39a.45.45 0 0 0 .06.39c.18.58-.31.93-.49 1.39l.17 1.14c-.85.45-.66 1.13-.39 1.82-.26.15-.54.28-.61.62.01.22.03.43.04.65-1.11.44-.61 1.2-.38 1.91-.23.1-.46.19-.68.29-.42.32-.21.56.11.78.02.12.06.24.12.35-.22.22-.45.44-.67.67-.52.53.04 1.06 0 1.59-.13.07-.26.15-.4.22-.37.15-.29.47-.27.76l.01.02c-.8 1.17-1.14 2.43-.77 3.83-.54.2-.8.51-.47 1.08.03.27.07.54.1.81-1.14.64-1.45 1.59-1.05 2.79-.8.24-.72.78-.44 1.38-.08.42-.65.53-.63 1.01h0c-.02.11-.03.21-.01.32-.26.16-.59.27-.61.65.26.79-.08 1.42-.5 2.06-.36.55-.82 1.13-.32 1.85-.82.61-.79 1.46-.67 2.34v0l.05.03a.73.73 0 0 0-.36.15c-.43.16-.29.5-.26.8-.13.05-.24.12-.34.21-.2 1.15-.62 2.22-1.26 3.2-.04.14-.02.26.06.38.2.59-.34.92-.49 1.39 0 0 0 0 0 0-.05.12-.06.25-.01.37v0c-.2.2-.54.26-.59.61-.12.43.1.82.19 1.22-.12.14-.24.29-.36.43-.38.25-.31.59-.19.93-.66.07-.82.42-.56 1.01l.15.68c-.51.19-.9.46-.68 1.1-.88.13-.76 1.08-1.27 1.51-.02.33.07.76-.1.99-.81 1.09-1.04 2.38-1.43 3.63v0c-.15.32-.31.64-.46.96-.32.23-.27.56-.23.88-.15 0-.26.07-.35.18-.46.2-.23.52-.15.82.03.26.07.51.1.77-.52.16-.74.5-.62 1.04-.13.02-.25.07-.35.16-.5.2-.31 1.05-1 1.06 0-.01-.01-.03-.01-.04-.01 0-.02 0-.02.01-.63-.91.17-1.69.26-2.54.06-.03.14-.04.18-.09.42-.58 1.94-5.33 1.85-5.87-.06-.39-.22-.77-.34-1.15v0c.28-.49.89-.86.55-1.57-.27-.57.37-.77.48-1.19.02-.23.02-.45 0-.66.01-1.56.22-3.1.36-4.65v0c.46-.5-.05-1.04.08-1.56.44-.14.64-.4.54-.88-.13-.58-.23-1.16-.34-1.74.23-.12.65-.21.57-.47-.48-1.61.65-3.26-.18-4.86-.19-.36-.13-.79.17-1.14.57-1.49-.41-2.74-.62-4.11-.88-3.71-1.75-7.42-2.63-11.14-.11-.46-.18-.95-.71-1.16-.52-.21-.58-.71-.71-1.17-.22-.84-.29-1.73-1.19-2.27-.27-.17-.34-.71-.46-1.1-.33-1.07-.26-2.32-1.48-2.97-.18-.09-.23-.49-.27-.75-.34-2.11-1.73-3.65-2.78-5.4-.58-.96-1.05-2.02-1.82-2.82-.77-.8-1.62-1.47-1.86-2.66-.04-.21-.55-.33-.85-.5v0c-.1-.43-.06-.94-.64-1.09 0 0 0 0 0 0l-.56-.3c-.18-.65-.37-1.3-.55-1.94-.19-.34-.51-.26-.81-.25-.13-.52-.48-.68-.98-.62-.24-.6-.07-1.54-1.18-1.4-.26-.47-.01-1.23-.79-1.41-1.39-1.74-3.25-3.05-4.54-4.89v0c-.51-.65-1.2-1.01-1.98-1.22-2.96-1.85-5.94-3.67-8.87-5.57-.92-.6-2.05-.69-2.91-1.19-1.63-.94-3.41-1.45-5.11-2.16-1.48-.62-3.14-.8-4.73-1.14-.76-.16-1.48-.76-2.31-.23 0 0 0 0 0 0-.18-.12-.36-.23-.54-.35-.37-.49-.8-.23-1.22-.08 0 0 0 0 0 0l-.57-.3a.42.42 0 0 0-.2-.33c-2.04-.44-4.14-.45-6.19-.7-2.19-.27-4.47.11-6.6-.74-1.32.61-2.63-.1-3.91-.17-1.85-.1-3.82.16-5.59-.66-.58-.27-1.1-.36-1.44.14-.34.51.03.92.43 1.38 1.8 2.01 3.65 3.99 5.18 6.19.61.89 1.13 1.89 1.78 2.79.34.46.72.58 1.21.56.22.98.54 1.82 1.27 2.66 1.31 1.52 2.47 3.23 3.18 5.16.18.49.53.56.96.54h0s0 0 0 0c.12.51.26 1.02.37 1.53.12.56.47.74 1 .69.37.71.05 1.73.98 2.19.18.19.49.35.53.57.28 1.72 2.03 2.79 2.06 4.63.01.38.5.34.84.32.52.96.17 2.25 1.16 3.03.12.05.24.06.36.02l.06-.1c.01.01.02.01.03.02-.03.03-.06.05-.09.08.62.93.33 2.22 1.2 3.06.79.39.77 1.2 1.01 1.89.34.99.16 2.16 1.03 2.97.78.28.8 1.01.96 1.64.37 1.5.7 3 1.07 4.5.11.43.05.97.59 1.19.26.04.53.08.79.11.03.5.11.99.38 1.43.04.83.22 1.64.58 2.39-.02.57.1 1.1.38 1.59.01.7.16 1.37.48 1.99.15.78.26 1.57.46 2.33.14.54-.05.88-.44 1.19-.19 1.33.48 2.51.67 3.77.11.73.5 1.44.11 2.19h-.13l-.04.13c-.41 1.13.47 2.12.34 3.22-.12.07-.24.15-.36.22-.25.2-.18.46-.13.73.38 1.96.38 1.96-.29 4.7l-.01-.01v0c-.58.51.25 1.3-.36 1.8l-.02.01c-.6.51.12 1.14-.15 1.68h-.15l-.09.12c-.72.51.06 1.12-.11 1.66l-.17.04-.13.12c-.54.1-.31.52-.33.83l-.16.04-.11.12c-.77.49-.05 1.07-.09 1.61-.25.15-.66.15-.59.62-.09.1-.09.2-.02.31-.23.21-.68.21-.62.68-.1.08-.11.17-.01.26-.21.22-.6.31-.56.72-.12.09-.13.18-.04.3-.32.54-1.14.29-1.42.9-.34.69-1 .8-1.66.96-.59.14-1.06.13-1.18-.62-.09-.56-.46-.77-1.01-.7-.85-3.54-1.7-7.08-2.54-10.61.86-.27.63-.89.48-1.49-.48-1.99-.98-3.97-1.42-5.96-.16-.74-.7-1.53.12-2.28.15-.14.03-.65-.05-.97-.38-1.52-.78-3.03-1.17-4.55-.11-.6-.23-1.2-.34-1.79-.13-.7-.49-1.36.17-2.08.38-.41-.04-1.02-.24-1.52-.18-1.5-.55-2.96-1.05-4.38-.08-1.1-.35-2.16-.76-3.19-.04-.84-.24-1.63-.58-2.4-.21.05-.38.02-.54-.03.18.02.35.04.54.03-.12-1.23-.43-2.42-.86-3.58-.15-1.37-.49-2.69-.96-3.99-.1-1.1-.38-2.16-.76-3.19.3-1.23-.99-1.43-1.41-2.19-.29-1.62-.56-3.24-1.21-4.77-.98-.39-1.1-1.3-1.22-2.15-.26-1.78-1.26-3.05-2.41-4.38-.81-.93-1.45-2.14-2.01-3.31-.47-.97-1.14-1.8-1.7-2.71-.08-.25-.19-.49-.39-.69a.553.553 0 0 0-.38-.01c-.37-.41-.06-1.2-.8-1.4-.8-1.57-2.05-2.77-3.27-3.99-.09-.09-.19-.18-.29-.27-.92-.52-1.61-1.46-2.79-1.51v0c-.33-.51.04-1.62-1.17-1.4-.16-.28-.17-.72-.68-.62l-.14-.05-.14.05c-.17-.28-.22-.71-.71-.6-1.29-.76-2.31-2.09-4.05-1.87-1.11-1.35-2.89-1.2-4.32-1.84-1.58-.7-3.39-1.39-5.19-1.01-.87.18-1.47-.29-2.03-.51-1.39-.55-2.87.2-4.21-.53-.32-.18-.91.14-1.38.21-.96.14-1.89.8-2.89-.04-.21-.17-.78.07-1.18.14-.72.13-1.41.49-2.12-.11-.4-.34-.92-.05-1.38.06-6.5 1.55-12.99 3.11-19.49 4.66-.75.18-1.51.3-1.51 1.32-1.72.39-3.43.82-5.16 1.17-.76.15-1.23.48-1.33 1.27-1 .23-2.01.42-2.99.69-.68.18-1.49.12-1.82 1.05-.17.46-.83.38-1.27.53-.67.22-1.49.13-1.78 1.08-.12.41-.69.35-1.07.48-.8.26-1.77.16-2.17 1.24-.09.24-.72.29-1.1.42-.73.25-1.63.14-2 1.14-.09.25-.71.32-1.09.45-.74.24-1.65.15-1.97 1.15-.06.18-.45.34-.69.35-1.86.06-2.77 1.95-4.73 2.16.95.94 1.75 1.34 2.85.96.69-.24 1.36-.41 2.11.16.75.57 1.69-.24 2.71.17.96.39 2.32.36 3.43.28 1.24-.08 2.29.41 3.46.49 1.31.09 2.61.44 3.93.61 1.71.22 3.69.25 5.12 1.42.84.69 1.79.38 2.64.66.78.26 1.56.57 2.34.88 1.25.5 2.55.87 3.79 1.43.36.16.82.17 1.26.4 1.54.82 3.04 1.67 4.74 2.23 1.84.61 3.44 1.97 5.13 3.02 1.47.92 2.89 1.91 4.39 2.78.85.49 1.55 1.01 2.24 1.78.9 1.01 2.19 1.88 3.68 2.15.01 0 .01-.01.02-.01.21 1.06.74 1.83 1.86 2.08 1.37 1.61 2.76 3.23 4.61 4.29.66.38.26 1.66 1.41 1.43.41.72.56 1.68 1.66 1.74-.16.93.81 1.13 1.12 1.72.77 1.47 2.3 2.32 2.99 3.85.04.08.38.02.58.02.41.7-.01 1.8 1.03 2.22.11.07.22.08.33.03.33.44.07 1.22.82 1.43v-.01c.2.25.4.49.61.73.38 1.61 2.02 2.65 2.01 4.45 0 .41.5.34.83.31.45.92.26 2.17 1.51 2.7.24.1.26.74.38 1.12.22.68.24 1.37 1.04 1.85.7.42.51 1.49.79 2.24.33.9.09 2.08 1.32 2.56.22.08.33.57.41.89 1.18 4.9 2.35 9.8 3.51 14.7.06.26 0 .54-.01.81 0 0 0 0 0 0-.24.1-.59.19-.51.5.6 2.17-.61 4.09-.84 6.14h-.01 0c-.4.21-.31.7-.55 1l-.02.01c-.44.17-.35.74-.72.96-2.06.46-4.02.33-5.8-.92-.23-.16-.46-.33-.74-.24-.87.27-1.24-.15-1.4-.93-.12-.59-.84-.35-1.12-.74-.11.06-.21.12-.3.17.09-.07.19-.13.3-.17-1.08-.51-1.82-1.4-2.59-2.26a.612.612 0 0 0-.4-.04c-.12-.27-.09-.7-.59-.58a.485.485 0 0 0-.39-.03c-.17-1.28-1.39-1.84-1.96-2.84l-.01-.01c-.32-.2-.65-.4-.97-.61h0c-.74-.88-1.48-1.77-2.22-2.65a.54.54 0 0 0-.14-.16h.01l-.02-.01h0s0 0 0 0v0c-.49-.24-.71-.69-.95-1.13-.07-.19-.15-.37-.31-.49-1.14-.16-.88-1.77-2.02-1.94-1.84-2.54-3.91-4.89-5.99-7.24-1.66-1.89-3.06-4.02-4.89-5.77-.55-.53-.21-1.48-.86-1.98-1.06-.16-.73-1.79-1.91-1.81-1.49-2.13-3.1-4.15-4.97-5.96-.3-.29.02-1.03-.72-1.03-.89-1.51-2.44-2.48-3.23-4.09-.19-.39-.85-.55-1.29-.82-1.1-1.31-2.1-2.71-3.32-3.91-1.39-1.37-2.29-3.21-4.02-4.25-.78-.47-1.2-1.32-1.74-1.97-.41-.5-.89-.93-1.36-1.33-1.57-1.34-3.12-2.73-4.39-4.35-.39-.49-.79-.82-1.25-1.19-.86-.67-2.12-.88-2.47-2.19-.07-.26-.66-.37-1.01-.55-.13-.51-.54-.29-.84-.33-.03-.64-.4-.71-.92-.55-.38-.42.06-1.33-.86-1.41l-.15-.06-.15.05c-.18-.26-.18-.72-.69-.62l-.13-.08-.13.07c-.2-.26-.24-.7-.73-.59l-.14-.07-.14.07c-.48-.38-.15-1.24-.88-1.46h-.01c-.33-.2-.66-.39-.99-.59h-.01c-.89-.76-1.86-1.39-2.97-1.8h0c-.2-.41-.7-.36-.98-.64v.01c-2.13-1.32-4.27-2.63-6.4-3.94-.56-.27-.89-1.08-1.73-.7-.48.22-.68-.33-1.05-.44-2.22-.69-4.27-2-6.67-2.01-.6 0-.9-.4-1.14-.64-.72-.73-1.44-.49-2.21-.29-.09-.18-.18-.5-.28-.5-1.35-.1-2.69-.96-4.07-.15-.42-.47-.86-.78-1.55-.54-.75.26-1.52.45-2.28.67-1.18-.88-2.4-.43-3.63-.13-2.71.67-5.44 1.3-8.15 1.97-.62.15-1.37.09-1.64.96-.16.51-.77.49-1.22.61-.93.24-1.85.47-2.78.67-1.9.39-3.31 1.64-4.89 2.64-1.01.64-2.14 1.21-3.09 1.94-1.42 1.09-3.05 1.84-4.48 2.85-1.42 1-2.78 2.2-4.01 3.52-1.08 1.16-2.21 2.33-3.22 3.54-1.31 1.57-3.1 2.8-3.85 4.83-.09.24-.33.42-.49.62-2.21 1.84-3 4.78-4.89 6.72-1.78 1.83-2.73 4.1-4.29 5.99-2.53 4.12-5.05 8.24-7.58 12.36-.38.17-.15.53-.24.78-.78.09-1.02 1.01-1.03 1.31-.07 2.1-1.53 3.49-2.47 5.11-.76 1.31-1.22 2.67-1.47 4.07 2.16 1.11 4.23.17 6.33-.26.76-.15 1.54-.68 2.32-.01 1.72.32 3.23-.69 4.89-.79.15.6.56.65 1.08.52 1.03-.26 2.07-.5 3.1-.75.25.58.66.74 1.27.6.83-.2 1.68-.32 2.52-.48.18.85.77.56 1.28.45.9-.19 1.81-.59 2.69.06.71.05 1.37-.14 2-.45.21-.05.43-.09.64-.14 0 0 0 0 0 0 .22.22.36.55.74.59.83.43 1.64-.38 2.47-.03-.02.14.05.23.18.27.14.15.3.25.52.19 1.97-.52 3.89-.32 5.83.24.8.23 1.66-.66 2.5.01h0v0c.53.59 1.15-.11 1.7.13.05.12.09.35.15.35 1.12.1 2.33.32 3.36.24 1.95-.15 3.67.58 5.42 1 1.06.26 1.99-.53 2.91.09 1.52.41 3.02.88 4.56 1.22 1.5.33 2.98.74 4.49 1.01 1.03.18 2.07.49 3.11.71.19.04.48-.06.59.05.85.79 1.89.99 2.99 1.16 2.15.34 3.97 1.81 6.27 1.78.57-.01 1.14.64 1.71.99.83.09 1.6.34 2.38.69 1.51.68 3.15 1.06 4.49 2.15.26.21.67.02 1.08 0l.63.21s0 0 0 0c.18.45.6.29.93.36-.02-.06-.06-.09-.09-.14.03.04.06.08.09.14l-.02.13.1.08c.14.52.56.35.9.38-.02-.05-.05-.08-.08-.13.03.03.06.07.08.13-.04.11 0 .19.11.22 2 .32 3.46 1.71 5.2 2.57h0c1.08-.09 1.87.67 2.81.99l.01.01h0l.98.6.01.01c.2.4.69.35.97.63 0 0 0 0 0 0 .19.43.6.26.92.33-.04.11-.01.19.1.24.15.47.53.28.84.32.02.03.04.06.06.1.01.07.05.14.12.18 1 .65 1.82 1.63 3.24 1.49.43-.04.93.43 1.37.71.6.39 1.14.88 1.89.96 1.26 1.12 2.46 2.32 3.79 3.33 1.09.82 2.35 1.4 3.53 2.1.62.37 1.18.87 1.84 1.15 1.01.42 1.63 1.22 2.28 2.02 1.62 1.02 3.06 2.24 4.17 3.81.04.07.09.14.16.21h-.01 0c.79.32.86 1.08 1.1 1.74.06.22.15.42.3.58.51.33.99.62 1.11 1.34.21 1.21.74 2.39.79 3.59.08 1.85-.68 3.52-1.82 4.97-.17.22-.63.23-.96.31-1.39.34-2.78.69-4.18 1-.75.17-1.41.36-2.29-.08-.82-.41-1.97.07-3.06-.2-.68-.17-1.57-.31-1.92-.71-.74-.86-1.82-.03-2.56-.85-.6-.65-1.6-.91-2.35-1.45-.57-.41-1.44-.55-1.52-1.5-.03-.38-.43-.45-.72-.62-2.05-1.21-4.02-2.57-6.12-3.67-1.48-.77-3.13-1.13-4.55-2.15-1.99-1.44-4.15-2.65-6.28-3.88-.58-.33-1.14-.75-2-.64-.93.11-1.6-.82-2.37-1.27-1.44-.85-2.86-1.73-4.27-2.63-.86-.55-1.65-.94-2.74-1.02-.86-.06-1.47-1.34-2.65-.98-.48.15-.78-.35-.99-.57-.7-.75-1.45-.52-2.23-.32-.31-.74-1.08-1.24-1.67-1.19-1.08.09-1.71-.54-2.53-.94-1.62-.78-3.32-1.39-5.05-1.91-1.28-.38-2.47-1.05-3.74-1.46-.66-.21-1.18-1.01-2.02-.58-2.56-1.66-5.7-1.01-8.46-2.1-1.68-.66-3.65-.84-5.48-1.29-1.84-.5-3.78-.63-5.55-1.41-.41-.18-.79-.01-1.17.08-.12.03-.24.06-.36.08-.39-.07-.78-.13-1.17-.19v.01c-.26-.07-.54-.08-.77 0-1.31-.07-2.6-.45-3.97-.2-1.2.22-2.55-.07-3.78-.27-.6-.1-1.13-.12-1.71-.05-1.41.16-2.69 1.04-4.29.25-.67-.33-1.82.32-2.75.55-.53.13-1.04.31-1.56.47-2.43.41-4.82 1-7.17 1.73-.7.02-1.36.18-1.99.48-1.63.22-3.22.62-4.79 1.15-.97.07-1.89.31-2.79.67-.58.07-1.3-.04-1.53.68-.24.77-.99.58-1.45.91-.71.1-1.44.05-1.86.89-.37.74-1.34.46-1.94.86-.2.03-.53 0-.57.09-.55 1.22-1.75 1.23-2.79 1.5-.52.14-.87.33-.7.95-.55.16-1.1.34-1.66.49-.41.11-.71.28-.59.79-2.28.49-3.67 2.31-5.36 3.67-.82.66-2 1.11-1.99 2.47-.95.7-1.9 1.39-2.85 2.09-.58 1.29-1.95 1.92-2.62 3.12-.68.75-.93 1.82-2.04 2.28-.38.16-1.01.86-.86 1.65-.65.15-.65.82-.99 1.22-1.99 2.34-3.93 4.74-5.29 7.51-1.01 2.07-1.7 4.31-3.12 6.18.26 1.61-1.16 2.52-1.6 3.81-.7 2.11-1.9 3.98-2.58 6.12-.45 1.4-.83 2.91-1.59 4.22-.62 1.07-.31 2.54-1.46 3.38-.43 1.52-.4 3.2-1.43 4.52-.5.64.18 1.48-.4 2.08-.53.52.2 1.3-.38 1.8-.65.5.2 1.32-.4 1.83-.62.52-.02 1.11-.1 1.66-.11.02-.22.07-.31.14-.5 1.95-1.03 3.9-1.47 5.87-.15.67.2 1.32.52 2.35.84-1.78 2.21-2.72 3.28-3.93 1.47-1.67 2.63-3.92 5.13-4.43.71-.14.8-.85 1.33-1.18 1.77-1.11 3.52-2.2 5.39-3.17 1.52-.78 3.01-1.36 4.62-1.79.2-.05.48-.07.57-.21 1-1.52 2.7-1.41 4.16-1.77 5.11-1.25 10.24-2.41 15.36-3.6.19.61.62.61 1.13.49 1.32-.32 2.64-.63 3.96-.95.66-.16 1.32-.37 1.97 0 1.34.46 2.48-.4 3.74-.54.78-.08 1.52-.55 2.32.09.39.31.92-.01 1.38-.1 1.2-.23 2.36-.68 3.6-.73.2.64.66.54 1.15.45 1.23-.22 2.41-.9 3.73-.15.31.18.91-.14 1.38-.23.91-.16 1.71-.42 2.74 0 .94.38 2.11-.27 3.15-.61l.74-.09.01-.01c.11.31.18.66.64.62 1.15 0 2.24-.77 3.47-.03.49.29 1.29-.14 1.9-.4 1-.04 1.94.98 2.98.16.11.04.21.01.3-.07 0 0 0 0 0 0 .2.1.39.2.59.3.28.78.86.44 1.35.34.84-.17 1.68-.53 2.52-.01.83.35 1.77-.53 2.57.21.52.44 1.29-.16 1.78.42.85.52 1.66-.27 2.51-.09.06.12.14.35.18.34 1.41-.28 2.77.52 4.18.2 0-.02 0-.04.01-.06h.01l-.02.05c.18.5.48.76 1.05.6.51-.14 1.02-.26 1.54-.39.53 1.02 1.43.38 2.17.5.41.3 2.61.95 3.03.88.45-.08.9-.18 1.35-.27.4 1.08 1.16.38 1.79.36.13.26.18.61.6.57.39.14.73.01 1.07-.17 0 0 0 0 0 0 .21.23.34.56.72.58l.03.01c.54.36 1.24-.1 1.76.37.52.48 1.14-.1 1.68.14.76.8 1.84.64 2.77.89 2.2.6 4.43 1.06 6.65 1.58.24.28.57.21.88.23.67.53 3.52 1.53 4.19 1.47.13-.01.26-.04.39-.06.59.69 1.16 1.37 2.22 1.28.85-.07 1.38.7 2.13.91l.01.01c.52.47 1.3-.22 1.78.41 1.09.62 2.16 1.15 3.4 1.53 1.35.42 3.09 1.08 3.69 2.84.1.31.46.17.72.16.99 1.33 2.54 2.25 2.87 4.05.05.29.32.41.59.49.49.13.71.66.56.95-.77 1.56.08 3.56-1.43 4.93-.47.42-.68 1.13-1 1.71h0c-1.55.76-3 1.66-4.31 2.78-.29-.04-.56.02-.79.19-.48.08-.97.17-1.45.25-.22-.64-.66-.86-1.27-.6-.86.37-1.64.11-2.23-.45-.84-.79-1.96-.63-2.91-.91-1.41-.42-2.98-.36-4.18-1.38-.59-.49-1.24-.14-1.88-.33-2.52-.76-4.96-1.92-7.65-2.08-.13-.01-.3.01-.39-.06-1.45-1.17-3.26-1.18-4.95-1.63-1.85-.5-3.68-1.04-5.59-1.25-.12-.01-.23-.14-.34-.21-1.69-.14-3.25-1.04-4.99-.92-1.43-1.41-3.43-1.24-5.17-1.78-1.07-.33-2.21-.9-3.45-.46-.94.33-1.75-.39-2.62-.54-1.31-.23-2.53-.87-3.92-.58-.12-.03-.24-.06-.36-.08-.77-.58-1.86 0-2.62-.63.11.15.22.27.34.38-.13-.07-.24-.24-.34-.38-1.31-.2-2.64-.3-3.93-.43-1.31-.13-2.8-.47-4.11-1.05-.34-.15-.63-.18-.96-.12-.71.14-1.41.49-2.07-.23-.14-.15-.64.02-.97.07-.89.13-1.73.67-2.67-.13-.37-.31-1.16.08-1.71.39-.61-.67-1.33-.71-2.16-.46-.74.23-1.5.57-2.23-.16-.3-.3-.77-.04-1.14.05-.53.12-1.05.26-1.49-.22-.3.09-.61.16-.92.22.3-.09.61-.17.92-.22-.42-.49-.87-.06-1.3-.02-.76.08-1.49.59-2.27-.11-.35-.32-.9.06-1.36.14-.38.06-.74.2-1.11.22-.1-.01-.19-.01-.28-.01-.22-.04-.45-.13-.68-.34-.43-.39-1.04 0-1.55.12-2.5.58-5 1.21-7.5 1.79-.63.15-1.29.55-1.92-.02-.32-.46-.73-.21-1.1-.13-3.58.85-7.16 1.71-10.73 2.58-.57.14-1.18.16-1.39.97-.12.47-.8.42-1.25.54-1.32.33-2.65.63-3.97.97-.37.09-.84.06-.97.58-.12.16-.23.46-.37.47-1.97.18-3.39 1.64-5.12 2.38-1.27.54-2.66 1.18-3.86 2.01l-.41.82c-.39-.02-.76-.01-1 .37-.36 1.07-1.56.74-2.22 1.31-.42.16-.3.51-.31.82-.49.14-1.21.06-1.35.62-.22.9-1.04.69-1.54 1.04-.94.37-1.7 1.06-2.28 1.81-.38.5-.93.45-1.29.82-1.55 1.4-2.69 3.24-4.47 4.38-.75.48-1.1 1.06-1.23 1.87-.75.27-.67 1.22-1.29 1.59-.31-.03-.58.03-.76.32v0c-.13.26-.27.53-.4.79l-.15.03.01.08c-.33.19-.27.51-.28.8-.96.83-1.41 2.13-2.6 2.75-.05.02 0 .26.01.39-.22.12-.64.19-.56.44.29.89-.48 1.53-.46 2.34-.47.18-.79.44-.62 1.01-.25.14-.58.22-.57.6-.07.11-.08.22-.03.33h0c-.22.2-.59.27-.6.66-.07.09-.09.19-.03.3h0c-.95 1.65-1.5 3.5-2.41 5.17-.13.23.07.64.12.97-.76.42-1.01 1.13-1.19 1.94-.62 2.86-1.25 5.72-1.95 8.56-.25 1.02.55 2.15-.35 3.08.63 1.32-.12 2.64-.18 3.93-.06 1.28.11 2.68-.49 4.07-.37.84-.04 2.19-.38 3.25-.62 1.93.1 4.09-1.03 5.93.25 3.48-1.17 6.65-1.87 9.96-.17.8.4 1.49.02 2.37-1.2 2.81-1.97 5.77-2.65 8.74-.11.5-.13 1.01.33 1.28.45.26.89.04 1.27-.33 2.46-2.35 5.23-4.34 7.61-6.78 2.21-.38 3.16-2.84 5.36-3.23.6-.11.61-.8 1.12-1.1 1.67-.98 3.1-2.36 4.99-2.95.58-1.38 2.51-.93 3.13-2.31.1-.21.61-.24.93-.34.77-.22 1.59-.25 2.02-1.17.2-.42.84-.36 1.29-.51.49-.17 1.12-.05 1.41-.66.28-.54.77-.71 1.31-.85.9-.22 1.75-.34 2.3-1.37.35-.65 1.48-.5 2.24-.75.6-.2 1.45-.11 1.32-1.15 0-.02 0-.03.01-.05 1.01-.25 2.03-.52 3.05-.73.68-.14 1.06-.5 1.14-1.18l3.98-.9c.27-.06.62-.05.78-.22 1.75-1.93 4.32-1.62 6.49-2.39.38-.14.79-.2 1.16-.36.37-.16.33-.55.34-.88 2.01-.48 4.02-.97 6.04-1.45.65-.15 1.36-.23 1.31-1.17l7.14-1.77c.57-.15 1.31.09 1.57-.72.4-.82 1.24-.74 1.93-.91 3.55-.9 7.1-1.75 10.65-2.63l2.58-.57c.53-.12.57-.49.5-.92 5-1.24 9.96-2.64 15.05-3.48.32 1 1.02.4 1.5.29 3.5-.8 6.99-1.65 10.48-2.48.72-.17 1.46-.31 2.18-.47.18.77.71.62 1.25.5 1.91-.41 3.76-1.04 5.71-1.25.09.51.39.63.87.51 1.05-.26 2.09-.53 3.15-.74.74-.15 1.47-.61 2.22.14.33.32.9-.04 1.35-.13 1.19-.23 2.33-.67 3.56-.73 0 0 0 0 0 0 .07.5.37.67.85.55 1.11-.27 2.22-.53 3.33-.8.35.99 1.07.54 1.71.44 1.67-.25 3.31-.05 4.91.43.28.08.52.06.78.05 2.23-.02 4.4.45 6.59.78 2.05.31 3.87 1.17 5.82 1.65 1.31.32 2.56 1.35 3.69 2.4 1.09 1.01.96 2.77 2.46 3.41.2.09.38.66.3.93-.39 1.32-.19 2.69-.4 4.03-.21 1.37-.77 2.51-1.46 3.58-.92 1.42-2.11 2.57-3.92 2.94-2.54.52-5.04 1.24-7.57 1.78-1.4.29-2.74 1.1-4.3.32-.48-.24-1.3.26-1.97.36-1.02.15-1.96.8-3.1.01-.43-.3-1.42.18-2.15.36s-1.44.39-2.08-.2h0c-.84-.31-1.58.21-2.37.32-.65.09-1.32.48-1.93-.1-.61-.42-1.15.07-1.73.13-.08.01-.15.02-.23.04-.34.03-.69.05-1.03.07a.906.906 0 0 1-.41-.32c-.09-.12-.4-.18-.56-.12-.96.39-1.97.3-2.98.21-.14-.03-.29-.05-.43-.09a.777.777 0 0 0-.45.03c-.8-.04-1.59.01-2.35.4-.36.18-.79.16-1.13-.18-.31-.49-.72-.17-1.08-.12-.89.11-1.76.75-2.66-.11-.18-.17-.77.09-1.17.14-.76.11-1.41.29-2.29-.07-.86-.35-2.09.24-3.16.41-.08-.49-.35-.66-.83-.54-.84.21-1.68.4-2.53.6-.17-.51-.47-.78-1.05-.62-.78.21-1.56.4-2.34.6-.21-.17-.26-.51-.59-.55-.59-.23-1.1.03-1.62.26-.95-.05-1.85.58-2.88-.1-.52-.34-1.41.15-2.09.45-1.68-.89-3.29-.31-4.89.25l-.75-.59c-.61-.41-1.16.05-1.74.12-.9.12-1.7.5-2.71.02-.81-.39-1.81.29-2.73.45-.77.13-1.55.6-2.32 0-.88-.46-1.66.15-2.48.26-.79.11-1.57.31-2.36.47-.16-.6-.57-.67-1.1-.54-.86.22-1.73.42-2.59.63-.6.14-1.19.36-1.77-.05-.81-.49-1.54.08-2.3.19-.86.13-1.71.36-2.56.54-.15-.42-.38-.71-.9-.59-.66.16-1.33.3-1.99.46-6.76 1.63-13.52 3.25-20.28 4.89-.76.18-1.61.19-2.05 1.11-.24.51-.96.43-1.46.6-1.24.41-2.71.27-3.57 1.61-.17.26-.75.26-1.14.37-.64.18-1.34.21-1.65.99-.17.41-.67.52-1.05.52-1.89-.02-3.23 1.32-4.57 2.23-1.02.7-2.68.74-3.12 2.26-1.38.07-2.02 1.49-3.27 1.8-.47.12-.77.46-1.13.74-2.09 1.61-4.27 3.11-6.42 4.65-.19.93-1.17 1.01-1.74 1.5-1.57 1.35-2.89 2.96-4.41 4.36-1.33 1.23-2.9 2.54-3.63 4.39-.93 1.06-2.13 1.88-2.74 3.21-.13.27-.13.5-.13.77-.5.16-.75.47-.61 1.01-.27.13-.6.2-.6.6-.04.13-.04.25-.01.38-.28.13-.6.21-.6.61-.03.13-.03.25.01.37-.29.13-.59.24-.63.62-.04.11-.04.21 0 .32-.26.18-.55.32-.6.68l-.01.02c-.31.25-.53.56-.58.97l-.01.03c-.41.66-.82 1.32-1.24 1.98-.9 1.11-1.46 2.36-1.62 3.78-1.64 2.16-2.16 4.76-2.82 7.29-.17.65-.29 1.28-.64 1.86-.17.28-.45.64-.39.91.45 2.24-1.21 4.08-1.1 6.25v0s0 0 0 0c-.53.85.2 1.65.1 2.48h0c-.55.19-.59.59-.48 1.08.12.5.2 1.01.3 1.51-.23.12-.61.21-.55.5.28 1.37.27 2.71.06 4.09-.1.68.3 1.43.46 2.16.08.39.13.8.19 1.2h0c-.72.25-.57.79-.44 1.32.37 1.49.74 2.97 1.12 4.46.11.83.26 1.64.59 2.41h0l.09.4.18.79c.29 1.62.63 3.22 1.15 4.78.41 2.16.88 4.3 1.53 6.39.27.72-.2 1.92 1.24 1.86.24.99.48 1.98.73 2.97.12.46.19.95.88.87.66-.08.97-.41.9-1.08v0c.89-.05 1.38-.61 1.86-1.31.84-1.22 1.11-2.93 2.86-3.4.08-.02.11-.23.17-.34 1.12-2.1 2.99-3.56 4.47-5.34.93-1.11 1.94-2.14 2.92-3.18 1.44-1.52 2.54-3.41 4.48-4.43.23-.12.48-.16.6-.48.74-1.99 2.78-2.69 4.14-4.07 1.66-1.69 3.52-3.23 5.39-4.68 1.78-1.38 3.46-2.88 5.23-4.26.65-.51 1.88-.73 1.89-1.94 1.15-.28 2.18-.74 3-1.68 1.06-1.22 2.77-1.52 3.94-2.66.45-.44.66-.96 1.05-1.39.8-.12 1.42-.58 2.1-.92 1.25-.61 2.14-1.81 3.55-2.1.63-.13.97-.45.9-1.12 2.15-.31 3.87-1.44 5.47-2.83.24-.21.6-.29.91-.4.86-.29 1.81-.24 2.39-1.28.23-.42 1.22-.45 1.88-.62.57-.14 1.07-.28.92-1.04.92-.23 1.84-.45 2.75-.7.5-.14 1.1-.11 1.25-.83.06-.28.34-.46.61-.47 2.48-.1 4.11-2.4 6.59-2.49.27-.01.51-.16.55-.48.48-.99 1.52-.74 2.31-1.05 1.02-.4 2.32-.14 2.96-1.46.16-.33.98-.34 1.49-.51 1.45-.5 3.1-.38 4.41-1.35h0c.13-.29.26-.57.38-.86 1.59-.28 3.18-.59 4.69-1.16 1.24-.12 2.44-.39 3.59-.86.33-.05.88-.02.94-.18.43-1.18 1.63-1.01 2.45-1.48v0c1.5-.18 2.97-.52 4.39-1.05.2-.01.41 0 .6-.04.85-.19 1.76-.27 2.54-.63.86-.39 1.43.89 2.24.22 1.85-.24 3.64-.7 5.4-1.27.22.24.3.65.74.63h.02c.77.27 1.44-.18 2.15-.3.57-.09 1.14-.33 1.72-.15.08.03.17.06.25.1l-.01.12.11.04c.52.5 1.11-.15 1.65.11-.01.15.05.24.19.29.35.42.74.08 1.12.05.1-.01.22-.04.34-.07.27.01.53.05.78.08 1.26 1.2 3.19.86 4.51 2.01.71.62.86 1.87 2.07 1.93.09 1.37.38 2.7.96 3.95a.744.744 0 0 1 0 0c-.1.23-.21.46-.31.69l-.19.04-.1.17c-.47.51.14 1.06-.05 1.59-.12.07-.25.14-.37.2-.46.14-.18.52-.26.79-.18.09-.47.13-.52.26-.57 1.66-1.9 2.54-3.35 3.31-.31.16-.21.44-.17.69-.64.44-1.4.52-2.13.69-4.04.98-8.08 1.97-12.13 2.9-.34.08-.68.21-1.02.31-.09.01-.18.03-.28.04-.18.02-.37.05-.55.07-.33-.02-.67-.14-1-.45-.16-.15-.65.02-.97.1-10.61 2.54-21.21 5.09-31.82 7.64-.31.07-.7.07-.71.54-.09.11-.09.22-.01.33-2.28.95-4.74 1.21-7.09 1.89-.8.23-1.76.13-2.16 1.2-.17.44-.82.4-1.28.51-1.39.35-2.79.64-4.17 1.02-1 .27-2.03.3-2.81 1.34-.42.56-1.63.51-2.47.76-.81.24-1.75.17-2.16 1.23-.21.54-.96.39-1.46.58-1.2.46-2.79.11-3.45 1.68-.02.04-.12.07-.19.07-2.02.08-3.48 1.54-5.28 2.14-.55.18-1.24.13-1.39.96-.07.37-.52.37-.83.47-.91.29-2.05.15-2.47 1.39-.06.19-.62.2-.94.31-.78.27-1.69.14-2.18 1.19-.2.43-1.2.49-1.83.72-.47.15-.15.92-.83.96-1.47.09-2.26 1.29-3.12 2.22-.41.45-1.27.14-1.33.96-.08.11-.08.23-.01.34-2.56.94-4.62 2.51-6.04 4.86-.41.68-1.21.98-1.76 1.42-.69.55-1.37 1.1-1.64 1.83-.28.78-1.02.58-1.39 1.02-.33.17-.11.53-.25.76-.12.07-.24.13-.36.2-.43.15-.18.52-.26.79l.08.06c0 .01-.01.01-.01.02-.02-.03-.05-.06-.07-.08-1.11 1.13-1.89 2.47-2.41 3.96-.62.53-1.16 1.1-1.21 1.98-.15.16-.3.33-.46.49-.23.09-.26.26-.16.47-.11.17-.22.35-.34.52-.68.52.04 1.14-.12 1.69-.44.08-.72.31-.59.78.15.55.12 1.01-.41 1.34-.21.39-.42.77-.63 1.16-.05.26-.04.5.02.74 0 .17-.02.33-.11.42-1.17 1.24-1.07 2.7-.87 4.2h-.13l-.08.11c-.54.84.26 1.63.1 2.46-.13.01-.23.07-.31.17-.71.46.31 1.33-.42 1.78-.7.62.22 1.33-.04 1.86-.83 1.74.16 3.27.39 4.89.1.7.59 1.39-.14 2.1-.29.28-.04.79.06 1.18.71 2.99 1.43 5.97 2.15 8.96.06.26.07.65.24.76 1.53.97 1.32 2.68 1.8 4.1.07.19.05.48.18.58 1.62 1.27 1.43 3.26 1.99 4.95.11.32.11.84.32.94 1.35.66 1.16 2.03 1.52 3.14.27.81.26 1.69 1.21 2.21.64.35.28 1.43 1.08 2.12 1.36-2.18 2.86-4.24 3.94-6.49.46-.96.46-2.23 1.3-3.01 2.91-2.67 4.1-6.51 6.54-9.46 1.08-1.3 2.18-2.57 3.09-3.99.17-.27.16-.49.13-.76v-.02c.44-.34 1.25-.04 1.44-.83.7-1.78 2.39-2.75 3.48-4.22 1.01-1.36 2.3-2.52 3.46-3.77.06-.08.06-.17-.01-.24.29-.18.7-.26.62-.74.06-.08.06-.16-.01-.24v0c.43-.4 1.3-.11 1.48-.92h0c.17-.35.63-.53.6-1h-.01c.22-.43.59-.63 1.05-.72.56-.1.7-.47.62-.98 1.31-.2 2.14-1.18 2.83-2.11.59-.79 1.27-1.4 2-2.01.13-.31.3-.63.65-.69.79-.13 1.06-.69 1.18-1.37 1.27-.02 1.94-1.12 2.61-1.84.51-.55 1.89-.44 1.58-1.71.66-.59 1.31-1.19 1.97-1.78h0c.96-.78 1.92-1.55 2.88-2.33 1.18-.75 2-2.05 3.54-2.25.43-.06.37-.49.33-.83 1.06-.19 1.63-1.07 2.4-1.68a.6.6 0 0 0 .4-.28c.09-.11.1-.22.02-.34.59-.64 1.65-.3 2.2-1.04.27-.45.56-.86 1.07-1.06.44.03.85-.02 1.18-.35.41-.15.31-.54.39-.84.86-.19 1.89.03 2.32-1.15.17-.46.82-.36 1.25-.51.36-.13.83-.11.76-.7.71-.89 1.82-.71 2.74-1.02.76-.25 1.56-.4 2.35-.58.56-.12.74-.47.68-.99 1.04-.25 2.07-.51 3.1-.76.18.55.59.82 1.09.55 1.77-.95 3.66.03 5.46-.37.13-.03.31-.04.4.03 1.72 1.32 4.22 1.2 5.66 2.92.71.85 1.75 1.41 2.13 2.6.37 1.14.23 2.09-.5 2.97-.52.62-.74 1.42-1.23 2.01-.39.48-.47 1.31-1.36 1.37-.73.05-.47.9-.86 1.25-.39.13-.26.72-.52.78-1.85.36-2.9 1.86-4.28 2.89-.16.12-.36.18-.54.27-.46.15-.18.53-.26.81-.65.18-1.29.37-1.94.56-.52.11-.27.52-.31.82-.57.14-1.14.29-1.71.42-.48.11-.65.37-.47.84-.66.55-1.77.16-2.27 1.05v0l-.01.01s0 0 0 0l.01-.01-.01.02s0 0 0 0c-.04.09-.09.17-.14.26-.02.03-.04.05-.07.05-1.68.36-2.8 1.77-4.48 2.29-.97.3-2.06 1.08-2.99 1.81-.09.1-.1.21-.02.33-.86.8-2.22.35-3.04 1.24l-.02.02c-.4 1.02-1.65.61-2.23 1.33h-.02 0c-.23.34-.46.67-.69 1.01-.53-.05-1.02.06-1.46.36-.52.14-.34.58-.39.92.06-.02.1-.06.14-.09a.85.85 0 0 1-.14.09c-2.2.27-4 1.32-5.56 2.85-.14.13-.34.27-.52.28-1.51.11-2.19 1.83-3.73 1.92-.23.01-.13.47-.13.72-1.54.17-4.64 2.32-6.11 3.74-.19.18-.34.45-.59.46-1.49.06-2.05 1.92-3.6 1.82-1.23 1.6-3.54 1.85-4.57 3.71-.11.19-.47.24-.71.36-.47.12-.33.46-.27.77-.37.15-.74.29-1.12.44-1.15.82-1.87 2.24-3.45 2.44-.59.08-.57.65-.87.96-.51.54-.74 1.43-1.68 1.48-1.14 1.67-2.57 3.05-4.03 4.45-.93.89-1.42 2.23-2.1 3.36-.28.19-.25.51-.33.78-.14-.01-.24.06-.28.2-.61.99-1.22 1.97-1.83 2.96-.46.14-.23.52-.29.81-.13.02-.23.07-.32.17-.7.5.01 1.06-.06 1.58-.98.75-1.02 2.03-.9 2.91.18 1.32-.26 2.46-.53 3.59-.17.73-.08 1.26.11 1.87.08.96.33 1.89.67 2.79-.79.8-.73 1.67-.26 2.59-.08.89.75 1.84-.17 2.68-.34 1.11.29 2.08.46 3.11.12.73.4 1.43-.08 2.13-.19.51-.09.97.05 1.44.04.41.12.79.28 1.1.12.58.31 1.16-.14 1.71-.47.82.14 1.54.2 2.3.05.63.56 1.27-.03 1.9-.35.24-.27.58-.2.91.19.97.71 1.94-.02 2.92-.09.12-.01.4.05.6.51 1.9-.09 3.75-.16 5.62-.12 3.59-1.23 6.94-1.97 10.38-.54 2.48-1.66 4.74-3.05 6.85-.32.48-.7.89.03 1.31 3.5-.86 7.02-1.64 10.49-2.61 1.2-.34 2.18.59 3.37.14.96-.36 2.05-.85 3.09-.05.08.06.27.04.4.01 1.96-.49 3.95.3 5.8.13 2.12-.2 3.95.98 6.06.61.84-.15 2.07.17 2.97.78.56.02 1.09-.13 1.6-.34.51.05.77.77 1.39.51.43-.03.86-.02 1.26.19 1.49.03 2.89.65 4.39.58.12.23.26.58.54.48 1.54-.49 3.04.55 4.57.07.14-.04.35.16.53.25v0c.86.41 1.65-.29 2.49-.16.01.13.07.22.17.29.22.07.44.08.65.05 1.73.16 3.45.57 5.16-.18.28.78.85.66 1.47.52 1.3-.3 2.6-.57 3.9-.85.11.49.42.64.9.52.86-.22 1.72-.42 2.59-.61.64-.13 1.19-.35 1.91.11.69.44 1.8.17 2.18-.49.47-.82 1.15-.86 1.83-1.04 1.52-.39 3.06-.73 4.58-1.11.37-.09.85-.08.88-.65.26-.61.86-.57 1.36-.74 1.07-.38 2.48-.11 3.01-1.54 1.55.12 2.1-1.76 3.58-1.79.51-.01.57-.44.77-.8.43-.79 1.13-1.36 1.85-1.89 1.9-1.76 3.39-3.9 5.14-5.75 2.85-3.02 4.52-6.69 6.72-10.06.96-1.47 1.48-3.23 1.82-4.99.04-.19.02-.43.13-.55 1.15-1.23 1.63-2.76 1.98-4.35.21-.32.42-.64.64-.97h.02c.13-1.05.27-2.1 1.14-2.87.23-.2.11-.49.08-.74.13-.04.24-.12.34-.22.64-.6-.11-1.67.72-2.21-.66-.85.58-1.36.38-2.13.24-.19.7-.19.63-.67-.07-.38-.14-.76-.22-1.14-.13-.08-.24-.14-.34-.2.1.02.21.08.34.2.32-.24.7-.45.64-.95-.05-.39-.25-.78.09-1.15 1.46-1.59 1.19-3.76 1.85-5.63.56-1.6.76-3.33 1.12-5.01.59-2.47.97-5 1.81-7.41.22-.63-.1-1.42.42-2.02-.07 0-.16.04-.2.01l-.02-.02c.07 0 .14.01.22.01.12-.41-.03-.77-.16-1.15.19-.21.55-.27.57-.64.37-1.75.59-3.56 1.18-5.24.3-.84.45-1.76.61-2.55.19-.94.69-1.68.94-2.54l1.5-6.25c.24-.1.59-.11.6-.45.06-1.64.29-3.22 1.37-4.55.42-.52.01-1.15.28-1.76.44-1 .59-2.08 1.21-3.08.49-.8.21-2.05 1.12-2.78-.38-1.54 1.31-2.5 1.12-4.06-.07-.54.56-1.16.87-1.75.1-1.21.65-2.25 1.21-3.29.23-.23.69-.5.66-.7-.23-1.77 1.12-2.78 1.84-4.09.35-.63.66-1.28.98-1.92.98-1.43 1.93-2.88 2.66-4.46.09-.09.08-.17-.01-.25.28-.18.74-.21.6-.74.07-.1.07-.19-.01-.28.27-.19.75-.19.64-.71l.07-.11-.08-.1c.37-.49 1.29-.12 1.46-.93 1.27-.87 2.24-2.3 4.04-2.2-.14-.03-.28-.04-.41-.06.13.01.27.03.41.06.01.8.92.91 1.26 1.04 1.43.55 2.12 1.49 2.29 2.93.03.26.11.66.28.74 1.57.72 1.69 2.46 1.48 3.48-.44 2.18.78 4.09.54 6-.19 1.58.47 3.11-.05 4.62-.18.1-.4.24-.28.45.9 1.64-.12 3.35.17 5.05.03.19.02.45-.01.72l-.09.36c-.04.11-.04.22-.04.32-.08.29-.18.58-.31.8-.36.63-.34 1.11-.2 1.7.09.39.31.84-.05 1.15-.74.63-.22 1.22-.02 1.83-.47 1.01-.33 2.19-.92 3.16-.41 1.81-.81 3.62-1.22 5.42-.39.2-.23.52-.17.8.08.38.13.74-.24 1.01-.67.5.05 1.06-.07 1.58-.31.13-.66.24-.6.68.19 1.39-.66 2.56-.82 3.88-.84 1.21-1.03 2.55-.87 3.98-.8.43-1.24 1.06-1.07 2.01.04.21.08.42.11.64v0c-.26.21-.66.28-.65.73h0v0c-1.01.68-.52 1.9-1 2.77-.99.7-.55 1.91-1 2.8-.44.19-.27.75-.6 1.01-.65.48.23 1.32-.41 1.8v0c-.43.17-.28.54-.3.85a.61.61 0 0 0-.3.15c-.52.13-.25.76-.61.98-.06 1.32-.97 2.33-1.32 3.55v0c-.68.37-.83 1.11-1.2 1.7v0c-.31.25-.53.55-.61.95l-.01.02c-.15 1-.37 1.98-1.01 2.81v0c-.4.66-.81 1.33-1.21 1.99h0c-.32.57-1.01.96-.86 1.77-.49.17-.75.48-.62 1.01-.77.41-1.11 1.1-1.21 1.93v0c-.27.16-.59.27-.63.65a.44.44 0 0 0 .02.32s0 0 0 0c-.26.17-.55.3-.59.66-.04.11-.04.23-.02.35-1.23.95-1.56 2.49-2.46 3.66-.34.21-.26.54-.27.85-.12.03-.24.08-.34.15-.67 1.26-1.8 2.28-2.06 3.76-.47.29-1.21.1-1.44.81-.01.12-.01.24.02.36-.68.22-.79.91-1.13 1.39-.54.77-.84 1.72-1.86 2.07-.21.07-.39.38-.51.61-1.11 2.1-2.95 3.57-4.45 5.33a43 43 0 0 1-3.15 3.3c-1.48 1.41-2.51 3.25-4.38 4.33-.74.43-1.46 1.3-2.11 2.05a24.589 24.589 0 0 1-6.54 5.37c-1.19.68-2.19 1.71-3.23 2.62-.35.31-.21.81.06 1.12.39.47.9.89 1.57.83.69-.07 1.21.28 1.67.66.97.8 2.07 1.11 3.26 1.45 2.07.59 4.16 1.19 6.16 2.04 1.23.53 2.7.88 4.1.22v-.01c.1.17.19.47.32.49 2.59.33 5.05 1.51 7.74 1.21.12-.01.26.07.39.11v0c.21.54.63.57 1.12.46.76-.17 1.52-.32 2.28-.49v0c.33.83.95.5 1.53.41 1.04-.15 2.04-.81 3.14-.28.88.44 1.67-.14 2.51-.25.79-.11 1.58-.3 2.36-.45.07.25.13.49.2.74 1.6-.38 3.19-.77 4.78-1.15 1.2-.29 2.39-.57 3.59-.86-.03-.13-.07-.26-.1-.39l-.02-.01c.01 0 .02 0 .03-.01l-.01.02c.02-.01.04-.01.06-.01-.03.13-.03.26.04.4 2.26-.54 4.52-1.08 6.78-1.63-.24-.44-.18-.79.33-.93.85-.23 1.71-.44 2.57-.64.53-.12.86-.37.73-.98.72-.31 1.32-.61 1.82-1.38.9-1.37 2.03-2.62 3.39-3.6.11-.08.29-.13.33-.23.63-1.78 2.11-2.87 3.31-4.19.24-.26.08-.5.09-.76l.04.06h0c.85-.14 1.64.78 2.52.16.22.69.71.71 1.3.54 1.82-.54 3.6-.14 5.37.25.43.1.84.04 1.19-.12.68-.31 1.14.16 1.67.36l.8-.15 1.19-.2c.17.3.35.68.72.62 1.96-.29 3.99.45 5.9-.46.65-.31 1.31-.24 1.86.29h0c.62.29 1.2-.02 1.78-.16 6.01-1.44 12.02-2.9 18.03-4.36.9-.22 1.88-.31 2.4-1.31.23-.45.81-.53 1.26-.56 1.41-.09 2.08-1.34 3.16-1.95.11-.06.06-.39.09-.59.92-.26 2.02-.14 2.48-1.32.07-.17.46-.26.71-.28 1.11-.08 1.53-.87 1.88-1.75.8-.85 2.25-1.14 2.24-2.67.8-1.11 2.53-1.45 2.63-3.16.66-.59 1.18-1.32 1.98-1.76.35-.62.69-1.25 1.04-1.87v0c.15 0 .24-.08.24-.23.64-1.11 1.77-2.04 1.29-3.55 1.35-1.3 2.03-3.04 3.02-4.58.25-.39.9-.68.62-1.34.2-.18.57-.21.56-.59.39-.62.93-1.19 1.14-1.87.67-2.14 2.17-3.94 2.48-6.22.04-.3.25-.46.42-.66 1.42-1.75 1.7-4.06 2.88-5.92.36-.58-.13-1.13.23-1.74.53-.9.47-2.01 1.15-2.98.58-.83.85-2.02 1.15-3.01.75-2.48 1.69-4.91 2.09-7.52.43-2.8 1.27-5.54 1.97-8.3.51-2.02.76-4.1 1.47-6.09.25-.7-.6-1.56.07-2.33-.17-1.4.61-2.76.2-4.16-.16-.54.29-.85.36-1.24.33-1.68.51-3.39.68-5.1.04-.39-.18-.79-.25-1.2-.1-.57-.46-1.15.2-1.68.28-.23.1-.64.04-.96-.18-.95-.71-1.88.11-2.84.17-.19-.12-.77-.2-1.17-.13-.71-.37-1.33.08-2.12.43-.77-.2-1.7-.37-2.55-.14-.73-.36-1.45-.54-2.18.27-.19.74-.19.63-.71-.2-1.64-.6-3.23-1.14-4.79-.12-.66-.17-1.35-.39-1.98-.23-.68.03-1.17.39-1.66-.05-1.86-.77-3.58-1.11-5.38-.13-.72-.49-1.41.07-2.14.31-.41.03-.92-.08-1.38-3.18-13.17-6.35-26.35-9.54-39.52-.05-.19-.16-.37-.24-.56-.1-.79.38-1.58.38-2.21-.01-1.04.09-2 .32-3 .34-1.53.76-2.99 2.54-3.29.9-.15.74-1.05 1.29-1.39.06-.01.11 0 .16.01-.05 0-.1-.02-.16-.01.22.24.31.64.75.64h.01c.63.28 1.2-.06 1.78-.19 2.65-.59 5.72.58 7.33 2.93.32.46 1.11.33 1.11 1.04 0 .88 1.22.77 1.28 1.68.04.73.32 1.46.5 2.18.08.32.13.68.55.75.48.22.66.63.78 1.12 1.37 5.75 2.75 11.5 4.11 17.25.08.32.02.67.02 1.01-.57.14-.5.54-.4.95.37 1.53.78 3.05 1.08 4.59.21 1.07.76 2.05.13 3.31-.33.67.36 1.81.48 2.76.14 1.06.9 2.04.07 3.27-.32.47.29 1.54.4 2.34.13.88.8 1.75-.05 2.69-.2.22.11.9.15 1.37.07.65.58 1.28.09 1.95-.43.18-.31.52-.26.84.22 1.32.97 2.58.17 4.02-.22.39.23 1.15.38 1.74-.51.29-.82.66-.63 1.3.21.7.4 1.41.59 2.12-1 .79-.59 1.69-.2 2.59l-.64.91v.01c-.2.61.08 1.18.22 1.74.16.61.16 1.17-.22 1.69-.45.86.58 1.82-.18 2.66v0c-.45.83.31 1.6.1 2.42-.14 0-.24.06-.32.17-.54 2.21-.85 4.44-.56 6.72.02.17-.15.36-.23.55-.4 1.38-.96 2.75-.29 4.21-.69 1.1-1.25 2.23-.82 3.58-.58.28-.77.71-.6 1.34.16.59.37 1.19.01 1.78-.49.4-.2.82-.05 1.24-1.15.53-.35 1.84-1.03 2.56v0c-.5.52.09 1.07-.05 1.59-.12.06-.32.1-.34.19-.63 2.68-1.25 5.37-1.84 8.06-.07.31.1.66.15 1v0c-.75 1.09-1.2 2.24-.8 3.59h0c-.26.16-.63.21-.61.64a.47.47 0 0 0-.01.35c-.91.42-.66 1.12-.44 1.81-1.06.75-.78 2.05-1.08 3.06-.39 1.32-1.03 2.55-1.44 3.86-.43 1.36-.99 2.67-1.12 4.12-.02.25-.13.54-.29.73-1.27 1.44-1.52 3.37-2.18 5.05-.54 1.37-1.58 2.59-1.79 3.89-.32 1.98-2.11 3.33-1.94 5.39.01.06-.04.13-.08.19-1.61 2.14-2.5 4.66-3.68 7.03-.93 1.87-2.21 3.57-3.25 5.39-.32.55-.94 1.01-.82 1.78v0c-1.21.88-1.68 2.3-2.42 3.5-.56.92-1.25 1.62-2.04 2.27-.04.74.06 1.35 1.06 1.04.33-.07.84-.03.97-.22.79-1.26 2.13-1.3 3.34-1.61 1.16-.3 2.28-.53 3.25-1.46.6-.58 1.79-.52 2.69-.82 1.55-.51 3.38-.31 4.56-1.86.26-.35 1.01-.33 1.54-.46 1.72-.42 3.45-.81 5.17-1.25.69-.18 1.47-.15 1.86-1.03.23-.53.93-.49 1.45-.62 1.79-.44 3.59-.83 5.36-1.31 1.13-.31 2.44-.21 3.2-1.47.18-.3.86-.32 1.32-.43 1.92-.47 3.85-.9 5.76-1.4.94-.24 1.98-.22 2.61-1.3.32-.55 1.25-.41 1.89-.64 1.35-.47 3.02-.22 3.94-1.73.11-.17.49-.21.76-.26 1.61-.28 2.65-1.58 4.06-2.22.22-.6.78-.64 1.28-.79.36-.11.81-.09.93-.59h0c.96-.79 1.93-1.58 2.89-2.37.3-.22.28-.55.32-.86 1.39-.27 2.16-1.29 2.86-2.39 0 0 0 0 0 0 .61-.08.57-.54.55-.97.66-.6 1.32-1.2 1.98-1.79 1.41-1.86 2.66-3.82 3.71-5.91.49-.76.97-1.52 1.48-2.27.51-.74.68-1.52.41-2.38.94-.62 1.3-1.65 1.77-2.59.07-.09.07-.18-.02-.26.22-.15.44-.31.66-.46.34-.18.14-.5.2-.76l.06-.05c.33-.03.59.11.84.29 1.21.53 2.21-.3 3.32-.47 2.69-.51 5.35-1.2 7.99-1.92 1.72-.39 3.44-.78 5.16-1.18.33-.08.67-.16.71-.59.03-.1.03-.21-.01-.31.98-.28 1.97-.54 2.95-.84.81-.24 1.79-.17 2.22-1.19.08-.18.45-.3.71-.34 2.23-.38 3.86-1.86 5.73-2.92 1.13-.64 2.06-1.75 3.46-1.91.69-.07.64-.82 1.04-1.15 1-.85 1.93-1.81 3.04-2.49.63-.39 1.07-.83 1.37-1.42.51-1.01 1.55-1.41 2.33-2.08 1.35-1.16 2.75-2.21 3.47-3.9a.42.42 0 0 0-.01-.33s0 0 0 0c.24-.18.59-.25.59-.65 1.71-1.09 2.52-2.91 3.54-4.54 1.54-2.45 2.93-4.99 4.51-7.41 1.12-1.71 1.61-3.61 2.14-5.51.28-1.01 1.36-1.74 1.04-2.96 1.73-2.49.7-5.68 2.09-8.26-.59-2.07 1.02-3.96.47-6.03 1.2-1.55-.34-3.42.57-5.03.13-.23-.08-.66-.14-.99-.11-.71-.52-1.4.11-2.12.33-.38.02-.92-.07-1.38-.14-.72-.46-1.42.06-2.15.36-.5 0-1.05-.08-1.58-.22-1.62-1.27-3.17-.4-4.91.12-.24-.09-.66-.17-.99-1.68-7.03-3.37-14.05-5.06-21.08-.11-.44-.08-.98-.65-1.17-.78-.4-.73-1.21-.92-1.9-.28-1.03-.51-2.07-.75-3.1-.12-.53-.39-.83-.97-.71-.54-.95-.23-2.23-1.15-3.03-.75-.3-.75-1.03-.95-1.66-.24-.75-.14-1.62-.81-2.21-.64-.38-.78-1.03-.97-1.68-.16-.55-.02-1.25-.68-1.58-.47-.05-.8-.29-.98-.73-.26-1.01.07-2.35-1.48-2.64-.08-.73-.21-1.42-1.17-1.41-.23-.93-.18-1.92-1.3-2.49-.61-.31-.08-1.58-1.05-1.9-.84-.1-.29-1.36-1.18-1.41-.63-.24-.57-.87-.75-1.36-.13-.36-.07-.85-.64-.9-.98-1.54-2.45-2.71-3.3-4.35-.16-.3-.47-.15-.72-.14h0c-.4-.39-.08-1.17-.77-1.4-.97-.77-1.6-1.84-2.36-2.79-.88-.63-1.95-1.04-2.34-2.22-.04-.13-.48-.13-.73-.18-.11-.37-.23-.74-.34-1.11-.13-.51-.54-.27-.84-.3-.06-.51-.62-.46-.81-.68-.48-.56-1.54-.57-1.52-1.64.01-.4-.49-.33-.82-.28-1.01-1.71-2.76-2.73-4.09-4.15-.66-.7-.58-1.58-1.21-2.14-1.46-1.59-1.79-3.47-1.45-5.53-.01-1.81 1.52-2.3 2.69-3.05.47-.3 1.29-.17 1.06-1.11.99-.26 1.98-.86 2.95.04 1.34-.7 2.63.5 4 .05.92-.3 1.54.54 2.25.96.93 0 1.75.3 2.52.81 1.62 1.07 3.27 2.08 4.98 3.03 1.15.64 2.32 1.37 3.07 2.53.76.56 1.67.98 1.95 2.01 1.43.66 2.35 1.86 3.18 3.13.19.29.36.46.66.65 1.51.94 2.7 2.18 3.13 3.99.02.08.21.13.32.19.92 1.14 2.13 2.09 2.51 3.6.25.2.71.38.72.59.08 1.68 2.03 2.36 2.11 4.02 0 .06.22.1.33.15h0c.2.09.4.17.59.26.25.84.04 1.84 1.15 2.36.6.28.37 1.24.73 1.8.04.61 0 1.3.97 1.07.53.98.2 2.28 1.18 3.09h0c1.08.65.79 1.86 1.17 2.8.23.56.1 1.41 1.12 1.26.26 1.03.53 2.06.78 3.1.12.5.29.9.92.74.71 1.83.98 3.77 1.49 5.64.15.55.27 1.07 1.02.89l3.99 16.32c.11.47.22.94-.16 1.35-.6 1.04.25 1.93.31 2.9.05.77.66 1.54-.08 2.3-.11.11-.15.42-.08.58.71 1.67.53 3.43.3 5.11-.18 1.32.11 2.69-.48 3.96-.42.92.17 1.84-.18 2.92-.8 2.44-1.06 5.03-1.89 7.51-.65 1.96-1.16 3.96-2.13 5.9.59.53 1.48.29 1.8-.08 1.26-1.47 3.3-1.83 4.5-3.38.67-.86 1.93-.9 2.78-1.76.54-.54 1.46-1.15 2.24-1.43 1.38-.49 2.32-1.4 3.27-2.38.2-.21.41-.35.67-.4 1.37-.27 2.24-1.25 3.04-2.24.39-.48 1.56-.12 1.3-1.23.37-.44 1.18-.17 1.4-.85.09-.08.1-.18.03-.28 0 0 0 0 0 0 .34-.5 1.19-.23 1.41-.92l.01-.03c.25-.67 1.08-.61 1.43-1.14h0v0c.35-.21.28-.58.37-.89.37.01.73-.05 1.02-.3.4-.17.33-.56.4-.88.37.02.71-.06 1-.28 2.37-2.65 4.11-5.78 6.3-8.54 1.57-1.98 2.83-4.1 4.2-6.17.47-.7 1.18-1.33.89-2.34-.09-.31.23-.46.37-.68.76-1.15 1.61-2.32 1.56-3.73-.06-1.67 1.1-2.88 1.36-4.47.22-1.39.51-2.88 1.09-4.26.38-.9-.5-2.1.31-3.08-.71-1.3.62-2.61-.01-3.91.95-1.43-.21-2.93.05-4.25.58-3-.77-5.58-1.28-8.33s-1.28-5.45-1.93-8.18c-1.41-1.24-1.13-3.53-2.85-4.61-.23-.15-.27-.61-.4-.92.01-.3-.04-.57-.3-.76-.18-.33-.52-.23-.8-.31-.05-.39-.1-.78-.37-1.1-.16-.38-.52-.26-.81-.33-.03-1.6-1.16-2.56-2.1-3.62-1.24-1.39-2.46-2.77-3.89-4.03-1.33-1.17-2.54-2.51-3.92-3.65-.15-.02-.29-.03-.44-.05-.39-.38-.17-1.1-.75-1.37-3.46-2.13-6.92-4.25-10.38-6.38-.62-.14-.99-.83-1.82-.6-.74.2-1.26-.56-1.86-.91-1.67-.98-3.21-2.24-5.25-2.42-.97-.63-1.74-1.7-3.15-1.38-.18.04-.44-.26-.66-.41-.8-.58-1.67-.8-2.64-.53-.82-.92-1.76-1.75-3.05-1.7-.67.03-1.02-.4-1.39-.66-.71-.49-1.34-.53-2.08-.26-1.3-1.73-3.25-1.54-5.07-1.73v0c-.55-.67-1.11-1.11-2.12-1.11-1.27.01-2.07-1.22-3.21-1.66-.65-.58-1.36-.84-2.2-.41-.27-.83-.64-1.56-1.54-1.9-.57-.22-1.01-.59-1.15-1.27-.12-.57-.7-.54-1.14-.66-.21-1.31-.47-2.61-.96-3.86.05-.29-.02-.56-.2-.8-.18-.59.34-.89.56-1.3v0c.14-.61-.18-1.32.37-1.85.87-1.39 2.09-2.42 3.4-3.37.45-.57.95-.97 1.73-1.14 1.63-.36 3.29-.63 4.86-1.25.77.1 1.58-.54 2.33.19.13.13.54.08.78 0 1.11-.35 2.13-.33 3.25.14 1.49.62 3.2.14 4.76.63.36.12.71.1 1.07.38 1.04.81 2.37.89 3.61 1.08.5.08.81.33 1.21.49 1.08.41 1.88 1.25 3.25 1.3 1.11.04 2.22 1.14 3.27 1.85 1.69 1.15 3.56 2.06 5.18 3.28 1.45 1.09 2.87 2.29 3.97 3.78.07.12.16.14.27.06l.71.5c.06.14.16.17.29.1h0c.21.12.41.23.62.35 0 .39.03.77.36 1.06.16.37.53.29.82.37 0 .38.05.75.32 1.04.16.44.56.25.86.31l.33 1.09c.14.49.51.28.81.28.3.56 0 1.6 1.16 1.45.44.69.03 1.78 1.02 2.21h0c.48.24.61.69.72 1.16.14.58.18 1.2.95 1.41.06.02.11.04.15.07.04.05.08.1.13.15.13.23.14.56.23.82.27.78.14 1.74 1.2 2.16.28.11.35.83.46 1.29.3 1.18.57 2.38.86 3.56.08.33.08.81.29.95 1.7 1.14 1.35 3.1 1.92 4.68.24.68.55 1.45-.47 2.06 1.08.17 1.97.46 2.49-.64 1.18-.64 2.12-1.62 3.39-2.2.73-.33 1.54-1.16 2.2-1.98 1.04-1.3 2.12-2.65 3.53-3.64.11-.07.23-.15.29-.26 1.24-2.3 2.96-4.34 3.88-6.83 1.7-1.65 2.65-3.67 2.82-6.01.04-.52.34-.83.44-1.26.32-.36-.11-.86.13-1.16.94-1.18 1.2-2.47.88-3.92-.02-.08.15-.21.24-.31.41-.22.22-.57.18-.88-.1-.63-.5-1.22.18-1.86.41-.39-.04-1.03-.13-1.55-.11-.65-.53-1.3.01-1.94.58-.87-.17-1.63-.21-2.45-.05-.88-.86-1.71-.2-2.64.12-.12.2-.25.26-.41-.03-.14-.06-.27-.1-.41-.84-3.54-1.68-7.08-2.52-10.61-.11-.49-.26-.92-.9-.83-.31-1.1-.6-2.2-.93-3.3-.3-.99-.29-2.07-1.35-2.79-.43-.29-.45-1.22-.62-1.86-.13-.5-.31-.9-.93-.8 0 0 0 0 0 0-.54-.97-.27-2.26-1.2-3.07h0c-.78-1.12-1.52-2.34-2.33-3.36-1.11-1.4-1.88-3.1-3.28-4.26-.6-.5-.64-1.57-1.66-1.61-.14-.52-.28-.99-.68-1.43-1.81-2.02-3.6-4.05-5.85-5.6-.33-1.57-2.05-1.84-2.88-3.02-.64-.91-1.88-1.49-3.09-1.77v0c-2.17-1.4-3.71-3.77-6.1-4.67-2.24-.84-4.15-2.41-6.55-2.83-.25-.04-.51-.17-.72-.32-1.38-.97-2.96-1.42-4.58-1.79-.63-.91-1.46-1.4-2.58-1.04-.77.24-1.26-.4-1.87-.49-3.4-.5-6.66-1.62-10.04-2.2-1.26-.22-2.47.28-3.51-.04-1.44-.44-2.64-.02-3.93.23-.41-1.05-1.13-.55-1.79-.36-.93.23-1.86.45-2.8.68-.95.02-1.86.65-2.87-.09-.44-.32-1.15.08-1.71.31-.69.06-1.36.2-1.99.48v0c-.96.11-1.9.29-2.79.67-1.09.14-2.16.35-3.19.76-.67.13-1.6-.1-1.46 1.1v0h0c-1.04.29-2.08.58-3.13.88-.91.19-1.83.39-2.74.58-.6.12-.68.55-.67 1.04-.85.2-1.69.41-2.54.61-.52.12-.58.46-.49.9-.85.22-1.88.21-2.51.71-1.38 1.1-3.13 1.69-4.31 2.99-.45.5-.9.65-1.41.93-1.09.59-2.11 1.3-3.15 1.96-1.31 1.1-2.73 2.1-3.89 3.35-.7.76-2.05.94-2.14 2.26-1.36-.02-2.07 1.15-2.75 1.91-1.17 1.31-2.14 2.68-3.95 3.16-.76.2-1.21.99-1.72 1.46-1.33 1.22-2.57 2.36-4.42 2.63-.34.05-.35.36-.32.64h0c-2.21 1.13-4.68 1.32-7.04 1.92-.44.11-.5-.33-.59-.65.87-.1 1.54-.46 1.74-1.39.3-.03.39-.19.29-.47.06-.12.09-.26.07-.39.21-.08.43-.15.64-.23.13-.01.35.03.38-.03.71-1.4 2.1-2.2 3.01-3.41.58-.85.83-1.99 2.08-2.24.29-.06.17-.44.17-.69.4-.18.49-.57.72-.88.43-.6.56-1.48 1.55-1.67.58-.11.67-.93 1.05-1.38.56-.68.83-1.48 1.75-2 .89-.5 1.29-1.75 1.78-2.76.85-1.73 2.75-2.65 3.54-4.43.26-.59.85-1.01.84-1.72l.42-.54c.21-.03.27-.15.22-.35-.01-.08 0-.16.01-.23-.02.07-.02.14-.01.23.14-.22.28-.45.43-.67-.22.09-.36.22-.41.42.05-.2.18-.34.41-.42.19-.04.25-.15.18-.33v0c.1-.21.19-.43.29-.64.17.01.26-.07.29-.23.29-.18.19-.51.29-.76.15.01.26-.06.32-.21.38-.15.23-.51.32-.78.14 0 .24-.07.29-.2.4-.16.18-.53.28-.79.14-.01.25-.08.33-.19.34-.42.45-1.06 1.21-1.07.56-.01.52-.49.47-.9.53-.12.77-.43.61-.98.24-.16.66-.13.58-.6.08-.11.08-.23.01-.35.2-.2.61-.21.56-.63.1-.11.11-.23.04-.36.21-.21.64-.2.6-.64.1-.11.11-.22.03-.35 1.29-1.36 1.96-3.14 3.07-4.62.45-.59-.37-1.38.39-1.86.47-.15.19-.53.25-.8.6-.43 1.13-1.28 1.23-1.98.81-.13.85-.97 1.16-1.46.84-1.31 1.61-2.68 2.46-4 .52-.81.99-1.7.75-2.75 1.45-1.62 2.83-3.49 3.41-5.44.52-1.75 1.47-3.13 2.27-4.64.28-.52.24-.84.02-1.27v0c.09-.21.17-.42.25-.64h-.01c.42-.1.48-.35.29-.7.22-.17.43-.35.65-.52.3-.18.09-.53.24-.76.6-.07.62-.52.62-.98l-.08-.05v-.01c.02.02.05.04.07.05.12-.06.34-.11.34-.16-.01-1.6 1.06-2.75 1.7-4.08 0-.93.3-1.77.81-2.54.51-.76 1.13-1.4.97-2.49-.07-.45.47-1.02.79-1.5.47-.7 1.18-1.29.84-2.28-.04-.11-.03-.32.04-.38 1.31-1.1 1.29-2.85 1.84-4.26.51-1.3 1.46-2.56 1.35-4.09-.01-.13-.03-.33.04-.38 1.41-1 1.19-2.79 1.76-4.15.53-1.27 1.59-2.57 1.35-4.16-.02-.13-.01-.32.07-.39 1.29-1.04.99-2.73 1.65-4.03.23-.11.59-.09.59-.45 0-1.64.29-3.21 1.29-4.54.43-.58-.41-1.4.43-1.84.08-2.11 1.81-3.8 1.54-6.01-.01-.06 0-.14.04-.19 1.5-1.89 1.21-4.34 2.03-6.39.68-1.72 1.12-3.44 1.62-5.19.41-1.47.69-2.97 1.02-4.44.16-.7.43-1.32.67-1.96.44-1.18 1.22-2.27.64-3.62.23-.23.65-.29.65-.73h.01c.21-.58-.13-1.28.42-1.78v-.01c.43-.53-.18-1.15.15-1.68.59-.71.59-1.66.77-2.46.52-2.31 1.1-4.61 1.62-6.92.33-1.48.7-2.98.93-4.49.47-3.19 1.05-6.36 1.9-9.49.29-1.08.8-2.28.41-3.63-.17-.59.29-1.66.6-2.48.51-1.37.77-2.85.96-4.24.13-1.02.03-2.18.28-3.23.6-2.52.4-5.2 1.58-7.6-.75-2.1.65-4 .6-6.11-.05-1.71-.1-3.7.81-5.4.09-.17.24-.42.18-.54-.56-1.06.06-2.04.21-3.03.28-1.88.25-3.8.49-5.65.23-1.77-.14-3.74.98-5.37.07-.1.12-.3.07-.38-.81-1.35.82-2.68.01-4.02 1.17-1.07-.24-2.59.65-3.75.35-.45-.02-1.06-.17-1.57-.22-.77.88-1.19.43-2.04-.31-.59-.06-1.17.21-1.85.35-.88-.51-2.07.31-3.04-.75-1.27.65-2.56-.03-3.84-.38-.72.85-1 .47-1.83-.25-.55-.61-1.27.14-1.85.11-.09.15-.44.07-.57-.93-1.52.35-3.14-.23-4.66-.29-.75.86-1.03.49-1.85-.25-.57-.47-1.21.13-1.88.42-.47-.04-1.18-.21-1.75-.21-.7-.21-1.31.29-1.87 0 0 0 0 0 0 .41-.83-.54-1.67.03-2.49h.13l.04-.12h0c.46-1.14-.45-2.14-.32-3.25.14-.02.25-.09.32-.21.09-.24.09-.48.05-.71.14-1.81.29-3.62-.05-5.43l.13.01.06-.12c.49-.3.2-.71.14-1.08-.12-.74-.26-1.47-.4-2.2.13.01.22-.05.27-.16.63-.84-.2-1.61-.12-2.43.13-.03.24-.08.33-.17.57-.23.3-.67.22-1.03-.16-.73-.37-1.45-.55-2.18v-.01c.23-.16.61-.18.58-.59.22-1.13-.84-2.15-.27-3.31.63-.3.25-.78.18-1.17-.12-.69-.3-1.37-.45-2.05.27-.14.7-.12.6-.63-.04-.95-.33-1.83-.61-2.72.19-.22.56-.27.58-.64.13-1.14-.28-2.18-.66-3.21.51-.91.68-1.83.3-2.85-.2-.54-.48-1.17.22-1.65.12-.08.19-.41.13-.55-.87-1.97.55-4.11-.49-6.08-.22-.42-.24-.93.2-1.31.49-.52.01-1.01-.04-1.51-.1-1.01-.66-1.89-.01-3.07.4-.72-.27-1.71-.4-2.67-.01-.16-.01-.32-.02-.47.13.02.21-.03.27-.15.61-.55.07-1.11-.01-1.65-.11-.8-.34-1.58-.51-2.36.39-.15.74-.33.6-.86-.18-.72-.39-1.44-.51-2.17-.14-.87-.83-1.77.08-2.64.12-.12.01-.52-.05-.78-.27-1.32-.91-2.6-.11-3.97.11-.2-.17-.63-.27-.95-.16-.79-.23-1.61-.51-2.36-.34-.91.75-1.54.3-2.48-.33-.72-.76-1.73-.5-2.32.77-1.76-.1-3.21-.46-4.78.96-2.17-.03-4.16-.61-6.18 1.02-2.19-.16-4.14-.64-6.17.04-.43.36-.7.58-1.02.44-.97-.22-1.81-.34-2.71-.14-.99-.39-1.97-.59-2.96.74-.21.61-.75.48-1.29-.33-1.36-.67-2.72-.99-4.09-.13-.57-.43-1.16.06-1.71v0c.45-.4.19-.87.09-1.3-.3-1.3-.63-2.59-.94-3.89-.13-.57-.42-1.16.07-1.71.48-.59.11-1.17-.02-1.74-.48-2.12-1.01-4.23-1.51-6.35.5-.19.71-.54.58-1.08-.23-.89-.45-1.79-.67-2.68h0c-.26-1.12-.52-2.24-.77-3.36-.11-.52-.37-1.04.02-1.55v0c.24.06.38.03.53.01z" clip-path="url(#b)" fill="none" stroke="#e7ff00" stroke-miterlimit="10"/></svg>