<?xml version="1.0" encoding="utf-8"?>
<!-- Generator: Adobe Illustrator 24.0.0, SVG Export Plug-In . SVG Version: 6.00 Build 0)  -->
<svg version="1.1" id="Слой_1" xmlns="http://www.w3.org/2000/svg" xmlns:xlink="http://www.w3.org/1999/xlink" x="0px" y="0px"
	 viewBox="0 0 169.12 273.11" style="enable-background:new 0 0 169.12 273.11;" xml:space="preserve">
<style type="text/css">
	.st0{clip-path:url(#SVGID_2_);fill:#E7FF00;}
</style>
<g>
	<defs>
		<rect id="SVGID_1_" width="169.12" height="273.11"/>
	</defs>
	<clipPath id="SVGID_2_">
		<use xlink:href="#SVGID_1_"  style="overflow:visible;"/>
	</clipPath>
	<path class="st0" d="M164.68,210.94l-8.88,62.17H0v-16.28c73.27-68.46,111.39-107.32,111.39-166.53
		c0-56.99-17.02-74.75-32.94-74.75c-10.73,0-13.69,4.44-13.69,11.84c0,8.88,4.81,17.39,4.81,27.01c0,13.69-10.73,26.65-29.24,26.65
		c-21.83,0-29.24-15.91-29.24-29.6C11.1,25.9,33.68,0,86.23,0c55.14,0,82.9,42.19,82.9,79.93c0,19.98-4.44,48.48-34.05,79.57
		c-13.32,13.69-28.12,24.79-42.93,37.01c-15.91,12.95-30.35,25.91-45.89,38.49h66.98c17.02,0,25.53-1.85,34.42-9.25l1.85-14.8
		H164.68z"/>
</g>
</svg>
