<?xml version="1.0" encoding="utf-8"?>
<!-- Generator: Adobe Illustrator 24.0.0, SVG Export Plug-In . SVG Version: 6.00 Build 0)  -->
<svg version="1.1" id="Слой_1" xmlns="http://www.w3.org/2000/svg" xmlns:xlink="http://www.w3.org/1999/xlink" x="0px" y="0px"
	 viewBox="0 0 104.75 104.75" style="enable-background:new 0 0 104.75 104.75;" xml:space="preserve">
<style type="text/css">
	.st0{clip-path:url(#SVGID_2_);fill:#E7FF00;}
</style>
<g>
	<defs>
		<rect id="SVGID_1_" y="0" width="104.75" height="104.75"/>
	</defs>
	<clipPath id="SVGID_2_">
		<use xlink:href="#SVGID_1_"  style="overflow:visible;"/>
	</clipPath>
	<path class="st0" d="M103,33.17H90.78c-0.96,0-1.75,0.78-1.75,1.75v5.24H73.32v-1.74c0-0.97-0.78-1.75-1.75-1.75h-6.98v-8.73
		c0-0.96-0.78-1.75-1.75-1.75h-5.24V15.71h5.06l10.44,2.1c4.05,0.81,7.98-1.82,8.79-5.86c0.81-4.04-1.82-7.98-5.86-8.79
		c-0.97-0.19-1.96-0.19-2.93,0L62.67,5.24h-5.06V1.75c0-0.97-0.78-1.75-1.74-1.75h-6.98c-0.97,0-1.75,0.78-1.75,1.75v3.49h-5.06
		L31.63,3.14c-4.05-0.81-7.98,1.81-8.8,5.85c-0.81,4.05,1.81,7.99,5.85,8.8c0.48,0.1,0.98,0.15,1.47,0.15c0.5,0,0.99-0.05,1.48-0.15
		l10.44-2.08h5.06v10.47H41.9c-0.96,0-1.74,0.78-1.74,1.75v8.73h-6.98c-0.96,0-1.75,0.78-1.75,1.75v3.49h-8.73
		C10.17,41.91,0.01,52.07,0,64.59v10.47c0,0.97,0.78,1.75,1.75,1.75H19.2c0.97,0,1.75-0.78,1.75-1.75V64.59
		c0-0.96,0.78-1.74,1.75-1.74h8.73v3.49c0,0.96,0.78,1.75,1.75,1.75h38.41c0.96,0,1.75-0.78,1.75-1.75v-1.75h15.71v5.24
		c0,0.97,0.78,1.75,1.75,1.75H103c0.96,0,1.75-0.78,1.75-1.75V34.92C104.75,33.95,103.96,33.17,103,33.17 M57.61,8.73h5.24
		c0.12,0,0.24-0.01,0.35-0.04l10.61-2.12c2.16-0.43,4.25,0.97,4.68,3.12c0.43,2.15-0.97,4.25-3.12,4.68c-0.51,0.1-1.04,0.1-1.56,0
		L63.2,12.26c-0.11-0.02-0.23-0.04-0.35-0.03h-5.24V8.73z M31.42,59.36h-8.73c-2.89,0-5.24,2.35-5.24,5.24v8.73H3.49v-8.73
		c0.01-10.6,8.6-19.19,19.2-19.2h8.73V59.36z M50.63,3.49h3.49v1.75h-3.49V3.49z M50.63,8.73h3.49v3.49h-3.49V8.73z M50.63,15.71
		h3.49v10.47h-3.49V15.71z M41.9,12.22c-0.12,0-0.23,0.01-0.35,0.03l-10.61,2.12c-2.15,0.43-4.25-0.97-4.68-3.12
		C25.83,9.1,27.23,7,29.38,6.57c0.51-0.1,1.04-0.1,1.56,0l10.61,2.12c0.11,0.03,0.23,0.04,0.35,0.04h5.24v3.49H41.9z M43.64,29.68
		H61.1v6.98H43.64V29.68z M69.83,64.59H34.92V40.15h34.92V64.59z M89.03,61.1H73.32V43.64h15.71V61.1z M101.25,68.09h-8.73V36.66
		h8.73V68.09z"/>
	<path class="st0" d="M18.25,92.8l-6.24-11.58c-0.54-0.85-1.66-1.1-2.51-0.57c-0.23,0.14-0.42,0.34-0.57,0.57L2.7,92.8
		c-1.32,2.43-1.26,5.38,0.17,7.75c1.61,2.65,4.5,4.24,7.6,4.19c3.1,0.05,5.99-1.54,7.6-4.19C19.51,98.19,19.57,95.23,18.25,92.8
		 M15.08,98.76c-0.99,1.59-2.74,2.53-4.61,2.49c-1.87,0.05-3.62-0.9-4.6-2.49c-0.81-1.31-0.84-2.96-0.1-4.31l4.7-8.73l4.7,8.73
		C15.92,95.81,15.89,97.45,15.08,98.76"/>
</g>
</svg>
