<?xml version="1.0" encoding="utf-8"?>
<!-- Generator: Adobe Illustrator 24.0.0, SVG Export Plug-In . SVG Version: 6.00 Build 0)  -->
<svg version="1.1" id="Слой_1" xmlns="http://www.w3.org/2000/svg" xmlns:xlink="http://www.w3.org/1999/xlink" x="0px" y="0px"
	 viewBox="0 0 87.52 104.36" style="enable-background:new 0 0 87.52 104.36;" xml:space="preserve">
<style type="text/css">
	.st0{clip-path:url(#SVGID_2_);fill:#E7FF00;}
</style>
<g>
	<defs>
		<rect id="SVGID_1_" width="87.53" height="104.36"/>
	</defs>
	<clipPath id="SVGID_2_">
		<use xlink:href="#SVGID_1_"  style="overflow:visible;"/>
	</clipPath>
	<path class="st0" d="M87.52,58.91c0-4.64-3.78-8.42-8.42-8.42h-10.1V8.42c0-4.64-3.78-8.42-8.42-8.42c-4.64,0-8.42,3.78-8.42,8.42
		V50.5h-10.1c-4.42,0-8.02,3.44-8.35,7.78l-1.75-1.75V6.73c0-3.71-3.02-6.73-6.73-6.73c-3.71,0-6.73,3.02-6.73,6.73v49.8l-10.1,10.1
		v8.1c0,9.12-2.8,17.86-8.1,25.28L0,100.45v3.9H50.5v-3.9l-0.32-0.44c-0.23-0.32-0.42-0.65-0.64-0.98c0.16-0.03,0.32-0.04,0.47-0.08
		c1.72,3.29,5.12,5.41,8.91,5.41c2.89,0,5.64-1.26,7.55-3.42c0.3,0.03,0.58,0.05,0.87,0.05c4.64,0,8.42-3.78,8.42-8.42
		c0-0.58-0.07-1.14-0.18-1.68h11.96V58.91z M55.55,8.42c0-2.78,2.27-5.05,5.05-5.05c2.78,0,5.05,2.26,5.05,5.05V50.5h-10.1V8.42z
		 M11.78,69.01h26.93v3.37H11.78V69.01z M28.61,20.2h-6.73v-3.37h6.73V20.2z M25.25,3.37c1.86,0,3.37,1.51,3.37,3.37v6.73h-6.73
		V6.73C21.88,4.88,23.39,3.37,25.25,3.37 M21.88,57.92V23.56h6.73v34.36l7.72,7.72H14.16L21.88,57.92z M38.55,100.99l-1.53-15.32
		l-3.35,0.34l1.5,14.98h-3.35l-1.53-15.32l-3.35,0.33l1.5,14.98h-6.38l1.5-14.98l-3.35-0.33l-1.53,15.32h-3.35l1.5-14.98l-3.35-0.34
		l-1.53,15.32H3.73c5.08-7.5,7.82-16.19,8.01-25.25h27.01c0.19,9.06,2.93,17.75,8.01,25.25H38.55z M67.33,97.62
		c-0.36,0-0.73-0.05-1.17-0.15l-1.11-0.26l-0.66,0.93c-1.27,1.79-3.32,2.86-5.49,2.86c-2.89,0-5.45-1.87-6.36-4.65l-0.57-1.72
		l-1.67,0.69c-0.86,0.35-1.77,0.56-2.69,0.62c-2.68-4.78-4.42-9.98-5.14-15.4c1.14-0.76,2.43-1.24,3.81-1.38l0.99-0.1l0.39-0.91
		c1.06-2.48,3.49-4.08,6.18-4.08c2.77,0,5.29,1.76,6.28,4.37l0.58,1.55l1.56-0.55c0.6-0.21,1.15-0.32,1.68-0.32
		c2.78,0,5.05,2.27,5.05,5.05c0,0.58-0.11,1.17-0.34,1.78l-0.54,1.44l1.39,0.67c1.77,0.86,2.87,2.59,2.87,4.53
		C72.38,95.36,70.11,97.62,67.33,97.62 M72.21,85.75c0.11-0.53,0.16-1.06,0.16-1.59c0-4.64-3.78-8.42-8.42-8.42
		c-0.44,0-0.88,0.04-1.32,0.11c-1.77-3.14-5.13-5.16-8.78-5.16c-3.71,0-7.09,2.03-8.85,5.24c-0.15,0.03-0.29,0.08-0.44,0.11
		l2.27-12.08h27.5l4.42,23.56h-4.73C73.52,86.85,72.92,86.25,72.21,85.75 M84.16,87.52h-1.97l-5.05-26.93H44.05l-1.97,10.5v-4.47
		l-5.05-5.05v-2.67c0-2.78,2.27-5.05,5.05-5.05h37.03c2.78,0,5.05,2.27,5.05,5.05V87.52z"/>
</g>
</svg>
