<?xml version="1.0" encoding="utf-8"?>
<!-- Generator: Adobe Illustrator 24.0.0, SVG Export Plug-In . SVG Version: 6.00 Build 0)  -->
<svg version="1.1" id="Слой_1" xmlns="http://www.w3.org/2000/svg" xmlns:xlink="http://www.w3.org/1999/xlink" x="0px" y="0px"
	 viewBox="0 0 128 128" style="enable-background:new 0 0 128 128;" xml:space="preserve">
<style type="text/css">
	.st0{clip-path:url(#SVGID_2_);fill:#E7FF00;}
</style>
<g>
	<defs>
		<rect id="SVGID_1_" width="128" height="128"/>
	</defs>
	<clipPath id="SVGID_2_">
		<use xlink:href="#SVGID_1_"  style="overflow:visible;"/>
	</clipPath>
	<path class="st0" d="M64,106.67c-23.53,0-42.67-19.14-42.67-42.67c0-23.53,19.14-42.67,42.67-42.67S106.67,40.47,106.67,64
		C106.67,87.53,87.53,106.67,64,106.67 M64,25.6c-21.17,0-38.4,17.23-38.4,38.4c0,21.17,17.23,38.4,38.4,38.4s38.4-17.23,38.4-38.4
		C102.4,42.83,85.17,25.6,64,25.6"/>
	<path class="st0" d="M64,128c-1.18,0-2.13-0.96-2.13-2.13v-12.8c0-1.18,0.96-2.13,2.13-2.13c1.18,0,2.13,0.96,2.13,2.13v12.8
		C66.13,127.04,65.18,128,64,128"/>
	<path class="st0" d="M64,17.07c-1.18,0-2.13-0.95-2.13-2.13V2.13C61.87,0.96,62.82,0,64,0c1.18,0,2.13,0.96,2.13,2.13v12.8
		C66.13,16.11,65.18,17.07,64,17.07"/>
	<path class="st0" d="M14.93,66.13H2.13C0.96,66.13,0,65.18,0,64c0-1.18,0.96-2.13,2.13-2.13h12.8c1.18,0,2.13,0.96,2.13,2.13
		C17.07,65.18,16.11,66.13,14.93,66.13"/>
	<path class="st0" d="M125.87,66.13h-12.8c-1.18,0-2.13-0.96-2.13-2.13c0-1.18,0.96-2.13,2.13-2.13h12.8c1.18,0,2.13,0.96,2.13,2.13
		C128,65.18,127.04,66.13,125.87,66.13"/>
	<path class="st0" d="M53.33,96c-0.33,0-0.66-0.07-0.97-0.23c-0.87-0.44-1.33-1.43-1.11-2.38l5.8-25.12H46.93
		c-0.84,0-1.59-0.49-1.94-1.25c-0.35-0.76-0.22-1.65,0.33-2.28l27.73-32c0.64-0.74,1.71-0.95,2.58-0.51
		c0.88,0.44,1.33,1.43,1.11,2.38l-5.8,25.12h10.12c0.84,0,1.59,0.49,1.94,1.25c0.35,0.76,0.22,1.65-0.33,2.28l-27.73,32
		C54.53,95.74,53.94,96,53.33,96 M51.61,64h8.13c0.65,0,1.26,0.3,1.67,0.81c0.41,0.51,0.56,1.17,0.41,1.81l-4.47,19.37L76.39,64
		h-8.13c-0.65,0-1.26-0.3-1.67-0.8c-0.4-0.51-0.55-1.17-0.41-1.81l4.47-19.37L51.61,64z"/>
	<path class="st0" d="M107.75,109.88c-0.55,0-1.09-0.21-1.51-0.63l-9.05-9.05c-0.83-0.83-0.83-2.18,0-3.02s2.18-0.83,3.02,0
		l9.05,9.05c0.83,0.83,0.83,2.18,0,3.02C108.84,109.67,108.29,109.88,107.75,109.88"/>
	<path class="st0" d="M29.31,31.44c-0.55,0-1.09-0.21-1.51-0.63l-9.05-9.05c-0.83-0.83-0.83-2.18,0-3.02c0.83-0.83,2.18-0.83,3.02,0
		l9.05,9.05c0.83,0.83,0.83,2.18,0,3.02C30.4,31.23,29.85,31.44,29.31,31.44"/>
	<path class="st0" d="M20.25,109.88c-0.55,0-1.09-0.21-1.51-0.63c-0.83-0.83-0.83-2.18,0-3.02l9.05-9.05c0.84-0.83,2.18-0.83,3.02,0
		c0.84,0.83,0.84,2.18,0,3.02l-9.05,9.05C21.35,109.67,20.8,109.88,20.25,109.88"/>
	<path class="st0" d="M98.7,31.44c-0.55,0-1.09-0.21-1.51-0.63c-0.83-0.83-0.83-2.18,0-3.02l9.05-9.05c0.83-0.83,2.18-0.83,3.02,0
		c0.83,0.83,0.83,2.18,0,3.02l-9.05,9.05C99.79,31.23,99.24,31.44,98.7,31.44"/>
</g>
</svg>
