<?xml version="1.0" encoding="utf-8"?>
<!-- Generator: Adobe Illustrator 24.0.0, SVG Export Plug-In . SVG Version: 6.00 Build 0)  -->
<svg version="1.1" id="Слой_1" xmlns="http://www.w3.org/2000/svg" xmlns:xlink="http://www.w3.org/1999/xlink" x="0px" y="0px"
	 viewBox="0 0 171.71 278.66" style="enable-background:new 0 0 171.71 278.66;" xml:space="preserve">
<style type="text/css">
	.st0{clip-path:url(#SVGID_2_);fill:#E7FF00;}
</style>
<g>
	<defs>
		<rect id="SVGID_1_" width="171.71" height="278.66"/>
	</defs>
	<clipPath id="SVGID_2_">
		<use xlink:href="#SVGID_1_"  style="overflow:visible;"/>
	</clipPath>
	<path class="st0" d="M41.08,112.13c9.25,2.96,20.72,4.07,27.38,4.07c29.24,0,42.19-22.94,42.19-53.29
		c0-46.63-17.76-48.48-31.82-48.48c-9.25,0-15.17,6.66-15.17,15.91c0,6.29,2.22,12.58,2.59,19.24c0,16.29-12.58,26.28-29.61,26.28
		c-15.17,0-27.01-11.47-27.01-29.61C9.62,27.01,26.64,0,80.68,0c59.21,0,86.22,33.68,86.22,63.28c0,33.31-24.43,57.36-59.58,61.8
		v1.48c36.64,4.81,64.39,32.94,64.39,72.9c0,50.33-40.34,79.2-92.89,79.2C49.22,278.66,0,263.49,0,227.22
		c0-16.29,11.84-31.46,31.08-31.46c17.02,0,28.86,12.95,28.86,29.24c0,9.62-5.55,17.02-5.55,24.8c0,7.03,8.51,14.8,21.83,14.8
		c32.57,0,39.23-42.56,39.23-71.42c0-48.85-24.8-61.8-44.78-61.8c-9.62,0-18.87,1.11-29.6,4.07V112.13z"/>
</g>
</svg>
