<?xml version="1.0" encoding="utf-8"?>
<!-- Generator: Adobe Illustrator 24.0.0, SVG Export Plug-In . SVG Version: 6.00 Build 0)  -->
<svg version="1.1" id="Слой_1" xmlns="http://www.w3.org/2000/svg" xmlns:xlink="http://www.w3.org/1999/xlink" x="0px" y="0px"
	 viewBox="0 0 437.43 688.18" style="enable-background:new 0 0 437.43 688.18;" xml:space="preserve">
<style type="text/css">
	.st0{clip-path:url(#SVGID_2_);fill:none;stroke:#E7FF00;stroke-miterlimit:10;}
</style>
<g>
	<defs>
		<rect id="SVGID_1_" width="437.43" height="688.18"/>
	</defs>
	<clipPath id="SVGID_2_">
		<use xlink:href="#SVGID_1_"  style="overflow:visible;"/>
	</clipPath>
	<path class="st0" d="M379.64,10.93c-0.45-1.86-0.89-3.72-1.34-5.58c-0.29-1.2-0.57-2.39-0.86-3.59c-0.49-0.15-0.71-0.61-1.05-0.93
		c-0.27-0.25-0.64-0.45-0.91-0.24c-0.89,0.67-1.93,0.48-2.91,0.64c-1.15,0.18-2.04,0.71-2.63,1.68c-0.52,0.87-1.07,1.04-2,0.54
		c-0.6-0.32-1.35-1.03-2.03-0.4c-0.64,0.59,0.05,1.39,0.12,2.1c0.03,0.33,0.15,0.66,0.23,0.99c0.28,0.78,0.28,1.53-0.32,2.18
		c0.03,0.13,0.06,0.26,0.09,0.4c-0.48,0.66-0.09,1.31,0.06,1.95c0.56,2.44,1.15,4.88,1.74,7.31c-0.1,0.17-0.19,0.34-0.29,0.51
		c0.64,2.66,1.27,5.31,1.9,7.97c0.01,0.26,0.04,0.52,0.05,0.77c-0.83,0.25-0.94,0.81-0.73,1.64c0.53,2.07,0.99,4.16,1.47,6.24
		c-0.12,0.04-0.23,0.1-0.34,0.16v0v0c-0.61,0.89,0.09,1.68,0.18,2.52c0.15,1.46,1.11,2.82,0.58,4.38c-0.35,1.55,0.53,2.89,0.72,4.34
		c0.11,0.84,0.64,1.65-0.05,2.52c-0.31,0.39-0.01,0.92,0.09,1.38c0.33,1.46,0.67,2.91,1.01,4.37c-0.13,0.04-0.25,0.1-0.36,0.17
		c-0.6,1.37,0.34,2.54,0.51,3.81c0.12,0.85,0.49,1.67-0.16,2.45c-0.05,0.13-0.04,0.26,0.03,0.38c0.31,1.45,0.63,2.9,0.94,4.36v0
		c-0.41,0.15-0.71,0.37-0.58,0.88c0.15,0.58,0.3,1.16,0.46,1.74c0.01,1,0.83,2.02-0.09,2.99c-0.02,0.7,0.21,1.34,0.44,1.98
		c0.2,0.91,0.4,1.82,0.6,2.73v0c-0.53,0.17-0.79,0.48-0.61,1.07c0.23,0.78,0.44,1.57,0.66,2.36c0.19,0.61-0.46,0.9-0.54,1.41
		c0.08,0.96,0.33,1.88,0.68,2.78l0.37,1.92c-0.5,0.15-0.81,0.42-0.65,1c0.16,0.57,0.33,1.13,0.49,1.7c0.11,0.75,0.31,1.51-0.34,2.13
		c0.07,0.84,0.33,1.64,0.62,2.42c0.06,0.36,0.13,0.73,0.19,1.09v0c-0.22,0.22-0.45,0.43-0.67,0.65c-0.47,1.17,0.44,2.17,0.41,3.29
		c-0.13,0.04-0.25,0.1-0.36,0.17c-0.44,0.31-0.25,0.72-0.17,1.1c0.25,1.22,0.58,2.33,0.22,3.71c-0.29,1.11,0.43,2.49,0.7,3.75
		c-0.13,0.04-0.23,0.11-0.32,0.21c-0.47,0.31-0.21,0.73-0.13,1.09c0.18,0.89,0.73,1.77-0.1,2.66c-0.15,0.16,0.03,0.65,0.1,0.98
		c0.17,0.84,0.33,1.55-0.05,2.5c-0.38,0.93,0.35,2.09,0.63,3.13c0.03,0.25,0.07,0.49,0.1,0.74c-1.15,0.42-0.48,1.2-0.37,1.87
		c0.1,0.52,0.2,1.04,0.29,1.55c-0.5,0.2-0.75,0.52-0.58,1.09c0.19,0.64,0.36,1.29,0.54,1.93c-0.19,0.33-0.38,0.67-0.58,1v0v0
		c0,1.1,0.48,2.11,0.68,3.17c-0.49,0.11-0.82,0.33-0.66,0.91c0.12,0.43,0.26,0.86,0.39,1.29c-0.06,0.1-0.05,0.19,0.04,0.26l0,0
		c-0.22,0.15-0.44,0.3-0.67,0.45c-0.58,0.56-0.11,1.14-0.01,1.69c0.12,0.66,0.38,1.31-0.12,1.92c0,0,0,0,0,0
		c-0.32,1.15,0.45,2.17,0.41,3.28v0c-0.64,0.26-0.47,0.69-0.3,1.18c0.2,0.57,0.49,1.18-0.25,1.62c-0.35,0.22-0.33,0.57-0.22,0.88
		c0.64,1.79-0.12,3.59,0.02,5.39h0c0,0-0.05,0.04-0.05,0.04c-0.55,1.17,0.34,2.15,0.42,3.23c-0.17,0.1-0.5,0.25-0.49,0.29
		c0.44,1.39-0.58,2.73-0.09,4.11c0.05,0.75,0.4,1.55-0.31,2.2h0c-0.04,0.57,0.18,1.08,0.37,1.59c0.04,0.22,0.07,0.45,0.11,0.67
		c-1.16,0.45-0.51,1.23-0.36,1.92c0.05,0.23,0.09,0.46,0.14,0.68c-1.22,0.64-0.42,1.5-0.26,2.29c-0.05,0.12-0.04,0.24,0.01,0.36
		l-0.01,0.02c-0.31,0.1-0.65,0.16-0.64,0.6c0.03,0.56,0.17,1.09,0.42,1.59c-0.2,0.34-0.4,0.68-0.6,1.01
		c-0.14,0.59,0.11,1.1,0.33,1.61c-0.08,0.29-0.16,0.57-0.24,0.86c-0.73,0.58-0.17,1.16-0.01,1.74c0.05,0.21,0.1,0.43,0.15,0.64
		c-0.23,0.13-0.46,0.26-0.69,0.39h0c-0.62,0.86,0.15,1.61,0.18,2.41l-0.04,0.04c-0.78,0.15-0.69,0.69-0.56,1.24
		c0.13,0.59,0.35,1.18-0.1,1.73c-0.4,0.88,0.24,1.66,0.25,2.5c-0.13,0.06-0.25,0.12-0.38,0.18c-0.63,0.87,0.14,1.63,0.2,2.44
		l-0.38,0.18c-0.27,0.04-0.36,0.19-0.25,0.45c0.09,0.38,0.19,0.76,0.28,1.15c0.17,0.59-0.44,0.92-0.48,1.44
		c0,0.39,0.16,0.93-0.04,1.14c-0.71,0.77-0.3,1.47-0.04,2.2c-0.11,0.29-0.22,0.57-0.33,0.86c-0.59,0.6-0.03,1.16,0.07,1.74
		c0.05,0.23,0.09,0.45,0.14,0.68c-1.11,0.42-0.51,1.23-0.43,1.91c-0.56,0.14-0.76,0.49-0.61,1.05c0.13,0.52,0.24,1.04,0.36,1.56
		c-0.32,0.05-0.6,0.14-0.65,0.53c-0.04,0.59,0.15,1.13,0.39,1.65c-0.1,0.27-0.2,0.54-0.3,0.81c-0.64,0.6-0.07,1.16,0.05,1.74
		c-0.25,0.08-0.5,0.16-0.76,0.24c-0.58,0.85,0.23,1.61,0.14,2.42c-0.43,0.15-0.65,0.42-0.55,0.9c0.08,0.39,0.17,0.79-0.21,1.09
		c-0.49,0.36-0.23,0.81-0.14,1.23c0.11,0.51,0.27,1-0.05,1.49h0c-0.28,0.16-0.26,0.4-0.19,0.66c-0.04,0.42,0.05,0.86-0.22,1.25v0v0
		c-0.07,0.11-0.24,0.25-0.21,0.32c0.37,1.1,0.04,2.16-0.14,3.22c0.03,0.25,0.06,0.51,0.08,0.76c-0.97,0.82-0.73,2.02-0.91,3.08
		c-0.07,0.42,0.17,0.9,0.27,1.36c-0.31,0.07-0.61,0.16-0.6,0.57v0c0.06,0.27,0.12,0.54,0.17,0.8l-0.56,0.99h0
		c-0.14,0.6,0.32,1.24-0.33,1.83c-0.44,0.39,0.08,0.98,0.14,1.48h0c-0.49,0.15-0.81,0.41-0.65,0.98c0.16,0.55,0.32,1.1,0.49,1.65
		c-0.32,0.09-0.66,0.14-0.71,0.57l0,0.01c-0.32,1.21-0.36,2.49-0.94,3.64v0c-0.3,0.43-0.03,0.83,0.07,1.25
		c-0.05,0.1-0.04,0.2,0.03,0.29c-0.12,0.07-0.24,0.14-0.37,0.21c-0.14,1.18-0.64,2.24-0.53,3.54c0.07,0.93-0.07,2.17-0.72,3.11
		c-0.05,0.14-0.03,0.27,0.05,0.39c0.22,0.6-0.38,0.92-0.5,1.4c0.06,0.26,0.11,0.52,0.17,0.77c-0.1,0.29-0.21,0.57-0.31,0.86h0
		c-0.41,0.27-0.26,0.6-0.11,0.93c0.04,0.23,0.08,0.46,0.12,0.7c-0.54,0.19-0.91,0.47-0.56,1.11c0.05,0.23,0.1,0.46,0.15,0.68
		c-0.24,0.12-0.48,0.24-0.71,0.36c-0.55,0.54,0.05,1.11-0.04,1.66c-0.42,0.2-0.42,0.53-0.25,0.89c-0.73,1.92-1.27,3.89-1.43,5.93
		c-0.05,0.63-0.9,0.92-0.53,1.63c-0.12,0.06-0.24,0.12-0.35,0.2c-0.22,0.88-0.63,1.76-0.6,2.63c0.03,0.63-0.5,0.88-0.48,1.39
		c-0.04,0.14-0.02,0.27,0.06,0.39c0.18,0.58-0.31,0.93-0.49,1.39l0.17,1.14c-0.85,0.45-0.66,1.13-0.39,1.82
		c-0.26,0.15-0.54,0.28-0.61,0.62c0.01,0.22,0.03,0.43,0.04,0.65c-1.11,0.44-0.61,1.2-0.38,1.91c-0.23,0.1-0.46,0.19-0.68,0.29
		c-0.42,0.32-0.21,0.56,0.11,0.78c0.02,0.12,0.06,0.24,0.12,0.35c-0.22,0.22-0.45,0.44-0.67,0.67c-0.52,0.53,0.04,1.06,0,1.59
		c-0.13,0.07-0.26,0.15-0.4,0.22c-0.37,0.15-0.29,0.47-0.27,0.76l0.01,0.02c-0.8,1.17-1.14,2.43-0.77,3.83
		c-0.54,0.2-0.8,0.51-0.47,1.08c0.03,0.27,0.07,0.54,0.1,0.81c-1.14,0.64-1.45,1.59-1.05,2.79c-0.8,0.24-0.72,0.78-0.44,1.38
		c-0.08,0.42-0.65,0.53-0.63,1.01h0h0c-0.02,0.11-0.03,0.21-0.01,0.32c-0.26,0.16-0.59,0.27-0.61,0.65c0.26,0.79-0.08,1.42-0.5,2.06
		c-0.36,0.55-0.82,1.13-0.32,1.85c-0.82,0.61-0.79,1.46-0.67,2.34v0l0.05,0.03c-0.14,0.02-0.26,0.07-0.36,0.15
		c-0.43,0.16-0.29,0.5-0.26,0.8c-0.13,0.05-0.24,0.12-0.34,0.21c-0.2,1.15-0.62,2.22-1.26,3.2c-0.04,0.14-0.02,0.26,0.06,0.38
		c0.2,0.59-0.34,0.92-0.49,1.39c0,0,0,0,0,0c-0.05,0.12-0.06,0.25-0.01,0.37v0c-0.2,0.2-0.54,0.26-0.59,0.61
		c-0.12,0.43,0.1,0.82,0.19,1.22c-0.12,0.14-0.24,0.29-0.36,0.43c-0.38,0.25-0.31,0.59-0.19,0.93c-0.66,0.07-0.82,0.42-0.56,1.01
		c0.05,0.23,0.1,0.45,0.15,0.68c-0.51,0.19-0.9,0.46-0.68,1.1c-0.88,0.13-0.76,1.08-1.27,1.51c-0.02,0.33,0.07,0.76-0.1,0.99
		c-0.81,1.09-1.04,2.38-1.43,3.63v0c-0.15,0.32-0.31,0.64-0.46,0.96c-0.32,0.23-0.27,0.56-0.23,0.88c-0.15,0-0.26,0.07-0.35,0.18
		c-0.46,0.2-0.23,0.52-0.15,0.82c0.03,0.26,0.07,0.51,0.1,0.77c-0.52,0.16-0.74,0.5-0.62,1.04c-0.13,0.02-0.25,0.07-0.35,0.16
		c-0.5,0.2-0.31,1.05-1,1.06c0-0.01-0.01-0.03-0.01-0.04c-0.01,0-0.02,0-0.02,0.01c-0.63-0.91,0.17-1.69,0.26-2.54
		c0.06-0.03,0.14-0.04,0.18-0.09c0.42-0.58,1.94-5.33,1.85-5.87c-0.06-0.39-0.22-0.77-0.34-1.15v0c0.28-0.49,0.89-0.86,0.55-1.57
		c-0.27-0.57,0.37-0.77,0.48-1.19c0.02-0.23,0.02-0.45,0-0.66c0.01-1.56,0.22-3.1,0.36-4.65v0c0.46-0.5-0.05-1.04,0.08-1.56
		c0.44-0.14,0.64-0.4,0.54-0.88c-0.13-0.58-0.23-1.16-0.34-1.74c0.23-0.12,0.65-0.21,0.57-0.47c-0.48-1.61,0.65-3.26-0.18-4.86
		c-0.19-0.36-0.13-0.79,0.17-1.14c0.57-1.49-0.41-2.74-0.62-4.11c-0.88-3.71-1.75-7.42-2.63-11.14c-0.11-0.46-0.18-0.95-0.71-1.16
		c-0.52-0.21-0.58-0.71-0.71-1.17c-0.22-0.84-0.29-1.73-1.19-2.27c-0.27-0.17-0.34-0.71-0.46-1.1c-0.33-1.07-0.26-2.32-1.48-2.97
		c-0.18-0.09-0.23-0.49-0.27-0.75c-0.34-2.11-1.73-3.65-2.78-5.4c-0.58-0.96-1.05-2.02-1.82-2.82c-0.77-0.8-1.62-1.47-1.86-2.66
		c-0.04-0.21-0.55-0.33-0.85-0.5v0c-0.1-0.43-0.06-0.94-0.64-1.09c0,0,0,0,0,0l-0.56-0.3c-0.18-0.65-0.37-1.3-0.55-1.94
		c-0.19-0.34-0.51-0.26-0.81-0.25c-0.13-0.52-0.48-0.68-0.98-0.62c-0.24-0.6-0.07-1.54-1.18-1.4c-0.26-0.47-0.01-1.23-0.79-1.41
		c-1.39-1.74-3.25-3.05-4.54-4.89v0c-0.51-0.65-1.2-1.01-1.98-1.22c-2.96-1.85-5.94-3.67-8.87-5.57c-0.92-0.6-2.05-0.69-2.91-1.19
		c-1.63-0.94-3.41-1.45-5.11-2.16c-1.48-0.62-3.14-0.8-4.73-1.14c-0.76-0.16-1.48-0.76-2.31-0.23c0,0,0,0,0,0
		c-0.18-0.12-0.36-0.23-0.54-0.35c-0.37-0.49-0.8-0.23-1.22-0.08c0,0,0,0,0,0c-0.19-0.1-0.38-0.2-0.57-0.3
		c-0.01-0.14-0.08-0.25-0.2-0.33c-2.04-0.44-4.14-0.45-6.19-0.7c-2.19-0.27-4.47,0.11-6.6-0.74c-1.32,0.61-2.63-0.1-3.91-0.17
		c-1.85-0.1-3.82,0.16-5.59-0.66c-0.58-0.27-1.1-0.36-1.44,0.14c-0.34,0.51,0.03,0.92,0.43,1.38c1.8,2.01,3.65,3.99,5.18,6.19
		c0.61,0.89,1.13,1.89,1.78,2.79c0.34,0.46,0.72,0.58,1.21,0.56c0.22,0.98,0.54,1.82,1.27,2.66c1.31,1.52,2.47,3.23,3.18,5.16
		c0.18,0.49,0.53,0.56,0.96,0.54l0,0c0,0,0,0,0,0c0.12,0.51,0.26,1.02,0.37,1.53c0.12,0.56,0.47,0.74,1,0.69
		c0.37,0.71,0.05,1.73,0.98,2.19c0.18,0.19,0.49,0.35,0.53,0.57c0.28,1.72,2.03,2.79,2.06,4.63c0.01,0.38,0.5,0.34,0.84,0.32
		c0.52,0.96,0.17,2.25,1.16,3.03c0.12,0.05,0.24,0.06,0.36,0.02l0.06-0.1c0.01,0.01,0.02,0.01,0.03,0.02
		c-0.03,0.03-0.06,0.05-0.09,0.08c0.62,0.93,0.33,2.22,1.2,3.06c0.79,0.39,0.77,1.2,1.01,1.89c0.34,0.99,0.16,2.16,1.03,2.97
		c0.78,0.28,0.8,1.01,0.96,1.64c0.37,1.5,0.7,3,1.07,4.5c0.11,0.43,0.05,0.97,0.59,1.19c0.26,0.04,0.53,0.08,0.79,0.11
		c0.03,0.5,0.11,0.99,0.38,1.43c0.04,0.83,0.22,1.64,0.58,2.39c-0.02,0.57,0.1,1.1,0.38,1.59c0.01,0.7,0.16,1.37,0.48,1.99
		c0.15,0.78,0.26,1.57,0.46,2.33c0.14,0.54-0.05,0.88-0.44,1.19c-0.19,1.33,0.48,2.51,0.67,3.77c0.11,0.73,0.5,1.44,0.11,2.19h-0.13
		l-0.04,0.13c-0.41,1.13,0.47,2.12,0.34,3.22c-0.12,0.07-0.24,0.15-0.36,0.22c-0.25,0.2-0.18,0.46-0.13,0.73
		c0.38,1.96,0.38,1.96-0.29,4.7l-0.01-0.01v0c-0.58,0.51,0.25,1.3-0.36,1.8l-0.02,0.01c-0.6,0.51,0.12,1.14-0.15,1.68h-0.15
		l-0.09,0.12c-0.72,0.51,0.06,1.12-0.11,1.66l-0.17,0.04l-0.13,0.12c-0.54,0.1-0.31,0.52-0.33,0.83l-0.16,0.04l-0.11,0.12
		c-0.77,0.49-0.05,1.07-0.09,1.61c-0.25,0.15-0.66,0.15-0.59,0.62c-0.09,0.1-0.09,0.2-0.02,0.31c-0.23,0.21-0.68,0.21-0.62,0.68
		c-0.1,0.08-0.11,0.17-0.01,0.26c-0.21,0.22-0.6,0.31-0.56,0.72c-0.12,0.09-0.13,0.18-0.04,0.3c-0.32,0.54-1.14,0.29-1.42,0.9
		c-0.34,0.69-1,0.8-1.66,0.96c-0.59,0.14-1.06,0.13-1.18-0.62c-0.09-0.56-0.46-0.77-1.01-0.7c-0.85-3.54-1.7-7.08-2.54-10.61
		c0.86-0.27,0.63-0.89,0.48-1.49c-0.48-1.99-0.98-3.97-1.42-5.96c-0.16-0.74-0.7-1.53,0.12-2.28c0.15-0.14,0.03-0.65-0.05-0.97
		c-0.38-1.52-0.78-3.03-1.17-4.55c-0.11-0.6-0.23-1.2-0.34-1.79c-0.13-0.7-0.49-1.36,0.17-2.08c0.38-0.41-0.04-1.02-0.24-1.52
		c-0.18-1.5-0.55-2.96-1.05-4.38c-0.08-1.1-0.35-2.16-0.76-3.19c-0.04-0.84-0.24-1.63-0.58-2.4c-0.21,0.05-0.38,0.02-0.54-0.03
		c0.18,0.02,0.35,0.04,0.54,0.03c-0.12-1.23-0.43-2.42-0.86-3.58c-0.15-1.37-0.49-2.69-0.96-3.99c-0.1-1.1-0.38-2.16-0.76-3.19
		c0.3-1.23-0.99-1.43-1.41-2.19c-0.29-1.62-0.56-3.24-1.21-4.77c-0.98-0.39-1.1-1.3-1.22-2.15c-0.26-1.78-1.26-3.05-2.41-4.38
		c-0.81-0.93-1.45-2.14-2.01-3.31c-0.47-0.97-1.14-1.8-1.7-2.71c-0.08-0.25-0.19-0.49-0.39-0.69c-0.13-0.05-0.26-0.05-0.38-0.01
		c-0.37-0.41-0.06-1.2-0.8-1.4c-0.8-1.57-2.05-2.77-3.27-3.99c-0.09-0.09-0.19-0.18-0.29-0.27c-0.92-0.52-1.61-1.46-2.79-1.51v0v0
		c-0.33-0.51,0.04-1.62-1.17-1.4c-0.16-0.28-0.17-0.72-0.68-0.62l-0.14-0.05l-0.14,0.05c-0.17-0.28-0.22-0.71-0.71-0.6
		c-1.29-0.76-2.31-2.09-4.05-1.87c-1.11-1.35-2.89-1.2-4.32-1.84c-1.58-0.7-3.39-1.39-5.19-1.01c-0.87,0.18-1.47-0.29-2.03-0.51
		c-1.39-0.55-2.87,0.2-4.21-0.53c-0.32-0.18-0.91,0.14-1.38,0.21c-0.96,0.14-1.89,0.8-2.89-0.04c-0.21-0.17-0.78,0.07-1.18,0.14
		c-0.72,0.13-1.41,0.49-2.12-0.11c-0.4-0.34-0.92-0.05-1.38,0.06c-6.5,1.55-12.99,3.11-19.49,4.66c-0.75,0.18-1.51,0.3-1.51,1.32
		c-1.72,0.39-3.43,0.82-5.16,1.17c-0.76,0.15-1.23,0.48-1.33,1.27c-1,0.23-2.01,0.42-2.99,0.69c-0.68,0.18-1.49,0.12-1.82,1.05
		c-0.17,0.46-0.83,0.38-1.27,0.53c-0.67,0.22-1.49,0.13-1.78,1.08c-0.12,0.41-0.69,0.35-1.07,0.48c-0.8,0.26-1.77,0.16-2.17,1.24
		c-0.09,0.24-0.72,0.29-1.1,0.42c-0.73,0.25-1.63,0.14-2,1.14c-0.09,0.25-0.71,0.32-1.09,0.45c-0.74,0.24-1.65,0.15-1.97,1.15
		c-0.06,0.18-0.45,0.34-0.69,0.35c-1.86,0.06-2.77,1.95-4.73,2.16c0.95,0.94,1.75,1.34,2.85,0.96c0.69-0.24,1.36-0.41,2.11,0.16
		c0.75,0.57,1.69-0.24,2.71,0.17c0.96,0.39,2.32,0.36,3.43,0.28c1.24-0.08,2.29,0.41,3.46,0.49c1.31,0.09,2.61,0.44,3.93,0.61
		c1.71,0.22,3.69,0.25,5.12,1.42c0.84,0.69,1.79,0.38,2.64,0.66c0.78,0.26,1.56,0.57,2.34,0.88c1.25,0.5,2.55,0.87,3.79,1.43
		c0.36,0.16,0.82,0.17,1.26,0.4c1.54,0.82,3.04,1.67,4.74,2.23c1.84,0.61,3.44,1.97,5.13,3.02c1.47,0.92,2.89,1.91,4.39,2.78
		c0.85,0.49,1.55,1.01,2.24,1.78c0.9,1.01,2.19,1.88,3.68,2.15c0.01,0,0.01-0.01,0.02-0.01c0.21,1.06,0.74,1.83,1.86,2.08
		c1.37,1.61,2.76,3.23,4.61,4.29c0.66,0.38,0.26,1.66,1.41,1.43c0.41,0.72,0.56,1.68,1.66,1.74c-0.16,0.93,0.81,1.13,1.12,1.72
		c0.77,1.47,2.3,2.32,2.99,3.85c0.04,0.08,0.38,0.02,0.58,0.02c0.41,0.7-0.01,1.8,1.03,2.22c0.11,0.07,0.22,0.08,0.33,0.03
		c0.33,0.44,0.07,1.22,0.82,1.43l0-0.01c0.2,0.25,0.4,0.49,0.61,0.73c0.38,1.61,2.02,2.65,2.01,4.45c0,0.41,0.5,0.34,0.83,0.31
		c0.45,0.92,0.26,2.17,1.51,2.7c0.24,0.1,0.26,0.74,0.38,1.12c0.22,0.68,0.24,1.37,1.04,1.85c0.7,0.42,0.51,1.49,0.79,2.24
		c0.33,0.9,0.09,2.08,1.32,2.56c0.22,0.08,0.33,0.57,0.41,0.89c1.18,4.9,2.35,9.8,3.51,14.7c0.06,0.26,0,0.54-0.01,0.81c0,0,0,0,0,0
		c-0.24,0.1-0.59,0.19-0.51,0.5c0.6,2.17-0.61,4.09-0.84,6.14l-0.01,0l0,0c-0.4,0.21-0.31,0.7-0.55,1l-0.02,0.01
		c-0.44,0.17-0.35,0.74-0.72,0.96c-2.06,0.46-4.02,0.33-5.8-0.92c-0.23-0.16-0.46-0.33-0.74-0.24c-0.87,0.27-1.24-0.15-1.4-0.93
		c-0.12-0.59-0.84-0.35-1.12-0.74c-0.11,0.06-0.21,0.12-0.3,0.17c0.09-0.07,0.19-0.13,0.3-0.17c-1.08-0.51-1.82-1.4-2.59-2.26
		c-0.13-0.06-0.26-0.07-0.4-0.04c-0.12-0.27-0.09-0.7-0.59-0.58c-0.13-0.07-0.26-0.07-0.39-0.03c-0.17-1.28-1.39-1.84-1.96-2.84
		l-0.01-0.01c-0.32-0.2-0.65-0.4-0.97-0.61h0c-0.74-0.88-1.48-1.77-2.22-2.65c-0.04-0.06-0.08-0.12-0.14-0.16c0,0,0,0,0.01,0
		l-0.02-0.01l0,0h0c0,0,0,0,0,0v0c-0.49-0.24-0.71-0.69-0.95-1.13c-0.07-0.19-0.15-0.37-0.31-0.49c-1.14-0.16-0.88-1.77-2.02-1.94
		c-1.84-2.54-3.91-4.89-5.99-7.24c-1.66-1.89-3.06-4.02-4.89-5.77c-0.55-0.53-0.21-1.48-0.86-1.98c-1.06-0.16-0.73-1.79-1.91-1.81
		c-1.49-2.13-3.1-4.15-4.97-5.96c-0.3-0.29,0.02-1.03-0.72-1.03c-0.89-1.51-2.44-2.48-3.23-4.09c-0.19-0.39-0.85-0.55-1.29-0.82
		c-1.1-1.31-2.1-2.71-3.32-3.91c-1.39-1.37-2.29-3.21-4.02-4.25c-0.78-0.47-1.2-1.32-1.74-1.97c-0.41-0.5-0.89-0.93-1.36-1.33
		c-1.57-1.34-3.12-2.73-4.39-4.35c-0.39-0.49-0.79-0.82-1.25-1.19c-0.86-0.67-2.12-0.88-2.47-2.19c-0.07-0.26-0.66-0.37-1.01-0.55
		c-0.13-0.51-0.54-0.29-0.84-0.33c-0.03-0.64-0.4-0.71-0.92-0.55c-0.38-0.42,0.06-1.33-0.86-1.41l-0.15-0.06l-0.15,0.05
		c-0.18-0.26-0.18-0.72-0.69-0.62l-0.13-0.08l-0.13,0.07c-0.2-0.26-0.24-0.7-0.73-0.59l-0.14-0.07l-0.14,0.07
		c-0.48-0.38-0.15-1.24-0.88-1.46l-0.01,0c-0.33-0.2-0.66-0.39-0.99-0.59l-0.01,0c-0.89-0.76-1.86-1.39-2.97-1.8l0,0
		c-0.2-0.41-0.7-0.36-0.98-0.64c0,0,0,0,0,0.01c-2.13-1.32-4.27-2.63-6.4-3.94c-0.56-0.27-0.89-1.08-1.73-0.7
		c-0.48,0.22-0.68-0.33-1.05-0.44c-2.22-0.69-4.27-2-6.67-2.01c-0.6,0-0.9-0.4-1.14-0.64c-0.72-0.73-1.44-0.49-2.21-0.29
		c-0.09-0.18-0.18-0.5-0.28-0.5c-1.35-0.1-2.69-0.96-4.07-0.15c-0.42-0.47-0.86-0.78-1.55-0.54c-0.75,0.26-1.52,0.45-2.28,0.67
		c-1.18-0.88-2.4-0.43-3.63-0.13c-2.71,0.67-5.44,1.3-8.15,1.97c-0.62,0.15-1.37,0.09-1.64,0.96c-0.16,0.51-0.77,0.49-1.22,0.61
		c-0.93,0.24-1.85,0.47-2.78,0.67c-1.9,0.39-3.31,1.64-4.89,2.64c-1.01,0.64-2.14,1.21-3.09,1.94c-1.42,1.09-3.05,1.84-4.48,2.85
		c-1.42,1-2.78,2.2-4.01,3.52c-1.08,1.16-2.21,2.33-3.22,3.54c-1.31,1.57-3.1,2.8-3.85,4.83c-0.09,0.24-0.33,0.42-0.49,0.62
		c-2.21,1.84-3,4.78-4.89,6.72c-1.78,1.83-2.73,4.1-4.29,5.99c-2.53,4.12-5.05,8.24-7.58,12.36c-0.38,0.17-0.15,0.53-0.24,0.78
		c-0.78,0.09-1.02,1.01-1.03,1.31c-0.07,2.1-1.53,3.49-2.47,5.11c-0.76,1.31-1.22,2.67-1.47,4.07c2.16,1.11,4.23,0.17,6.33-0.26
		c0.76-0.15,1.54-0.68,2.32-0.01c1.72,0.32,3.23-0.69,4.89-0.79c0.15,0.6,0.56,0.65,1.08,0.52c1.03-0.26,2.07-0.5,3.1-0.75
		c0.25,0.58,0.66,0.74,1.27,0.6c0.83-0.2,1.68-0.32,2.52-0.48c0.18,0.85,0.77,0.56,1.28,0.45c0.9-0.19,1.81-0.59,2.69,0.06
		c0.71,0.05,1.37-0.14,2-0.45c0.21-0.05,0.43-0.09,0.64-0.14c0,0,0,0,0,0c0.22,0.22,0.36,0.55,0.74,0.59
		c0.83,0.43,1.64-0.38,2.47-0.03c-0.02,0.14,0.05,0.23,0.18,0.27c0.14,0.15,0.3,0.25,0.52,0.19c1.97-0.52,3.89-0.32,5.83,0.24
		c0.8,0.23,1.66-0.66,2.5,0.01h0v0c0.53,0.59,1.15-0.11,1.7,0.13c0.05,0.12,0.09,0.35,0.15,0.35c1.12,0.1,2.33,0.32,3.36,0.24
		c1.95-0.15,3.67,0.58,5.42,1c1.06,0.26,1.99-0.53,2.91,0.09c1.52,0.41,3.02,0.88,4.56,1.22c1.5,0.33,2.98,0.74,4.49,1.01
		c1.03,0.18,2.07,0.49,3.11,0.71c0.19,0.04,0.48-0.06,0.59,0.05c0.85,0.79,1.89,0.99,2.99,1.16c2.15,0.34,3.97,1.81,6.27,1.78
		c0.57-0.01,1.14,0.64,1.71,0.99c0.83,0.09,1.6,0.34,2.38,0.69c1.51,0.68,3.15,1.06,4.49,2.15c0.26,0.21,0.67,0.02,1.08,0
		c0.21,0.07,0.42,0.14,0.63,0.21c0,0,0,0,0,0c0.18,0.45,0.6,0.29,0.93,0.36c-0.02-0.06-0.06-0.09-0.09-0.14
		c0.03,0.04,0.06,0.08,0.09,0.14l-0.02,0.13l0.1,0.08c0.14,0.52,0.56,0.35,0.9,0.38c-0.02-0.05-0.05-0.08-0.08-0.13
		c0.03,0.03,0.06,0.07,0.08,0.13c-0.04,0.11,0,0.19,0.11,0.22c2,0.32,3.46,1.71,5.2,2.57h0c1.08-0.09,1.87,0.67,2.81,0.99l0.01,0.01
		h0l0.98,0.6l0.01,0.01c0.2,0.4,0.69,0.35,0.97,0.63c0,0,0,0,0,0c0.19,0.43,0.6,0.26,0.92,0.33c-0.04,0.11-0.01,0.19,0.1,0.24
		c0.15,0.47,0.53,0.28,0.84,0.32c0.02,0.03,0.04,0.06,0.06,0.1c0.01,0.07,0.05,0.14,0.12,0.18c1,0.65,1.82,1.63,3.24,1.49
		c0.43-0.04,0.93,0.43,1.37,0.71c0.6,0.39,1.14,0.88,1.89,0.96c1.26,1.12,2.46,2.32,3.79,3.33c1.09,0.82,2.35,1.4,3.53,2.1
		c0.62,0.37,1.18,0.87,1.84,1.15c1.01,0.42,1.63,1.22,2.28,2.02c1.62,1.02,3.06,2.24,4.17,3.81c0.04,0.07,0.09,0.14,0.16,0.21
		c0,0-0.01,0-0.01,0h0h0h0c0.79,0.32,0.86,1.08,1.1,1.74c0.06,0.22,0.15,0.42,0.3,0.58c0.51,0.33,0.99,0.62,1.11,1.34
		c0.21,1.21,0.74,2.39,0.79,3.59c0.08,1.85-0.68,3.52-1.82,4.97c-0.17,0.22-0.63,0.23-0.96,0.31c-1.39,0.34-2.78,0.69-4.18,1
		c-0.75,0.17-1.41,0.36-2.29-0.08c-0.82-0.41-1.97,0.07-3.06-0.2c-0.68-0.17-1.57-0.31-1.92-0.71c-0.74-0.86-1.82-0.03-2.56-0.85
		c-0.6-0.65-1.6-0.91-2.35-1.45c-0.57-0.41-1.44-0.55-1.52-1.5c-0.03-0.38-0.43-0.45-0.72-0.62c-2.05-1.21-4.02-2.57-6.12-3.67
		c-1.48-0.77-3.13-1.13-4.55-2.15c-1.99-1.44-4.15-2.65-6.28-3.88c-0.58-0.33-1.14-0.75-2-0.64c-0.93,0.11-1.6-0.82-2.37-1.27
		c-1.44-0.85-2.86-1.73-4.27-2.63c-0.86-0.55-1.65-0.94-2.74-1.02c-0.86-0.06-1.47-1.34-2.65-0.98c-0.48,0.15-0.78-0.35-0.99-0.57
		c-0.7-0.75-1.45-0.52-2.23-0.32c-0.31-0.74-1.08-1.24-1.67-1.19c-1.08,0.09-1.71-0.54-2.53-0.94c-1.62-0.78-3.32-1.39-5.05-1.91
		c-1.28-0.38-2.47-1.05-3.74-1.46c-0.66-0.21-1.18-1.01-2.02-0.58c-2.56-1.66-5.7-1.01-8.46-2.1c-1.68-0.66-3.65-0.84-5.48-1.29
		c-1.84-0.5-3.78-0.63-5.55-1.41c-0.41-0.18-0.79-0.01-1.17,0.08c-0.12,0.03-0.24,0.06-0.36,0.08c-0.39-0.07-0.78-0.13-1.17-0.19
		c0,0,0,0.01,0,0.01c-0.26-0.07-0.54-0.08-0.77,0c-1.31-0.07-2.6-0.45-3.97-0.2c-1.2,0.22-2.55-0.07-3.78-0.27
		c-0.6-0.1-1.13-0.12-1.71-0.05c-1.41,0.16-2.69,1.04-4.29,0.25c-0.67-0.33-1.82,0.32-2.75,0.55c-0.53,0.13-1.04,0.31-1.56,0.47
		c-2.43,0.41-4.82,1-7.17,1.73c-0.7,0.02-1.36,0.18-1.99,0.48c-1.63,0.22-3.22,0.62-4.79,1.15c-0.97,0.07-1.89,0.31-2.79,0.67
		c-0.58,0.07-1.3-0.04-1.53,0.68c-0.24,0.77-0.99,0.58-1.45,0.91c-0.71,0.1-1.44,0.05-1.86,0.89c-0.37,0.74-1.34,0.46-1.94,0.86
		c-0.2,0.03-0.53,0-0.57,0.09c-0.55,1.22-1.75,1.23-2.79,1.5c-0.52,0.14-0.87,0.33-0.7,0.95c-0.55,0.16-1.1,0.34-1.66,0.49
		c-0.41,0.11-0.71,0.28-0.59,0.79c-2.28,0.49-3.67,2.31-5.36,3.67c-0.82,0.66-2,1.11-1.99,2.47c-0.95,0.7-1.9,1.39-2.85,2.09
		c-0.58,1.29-1.95,1.92-2.62,3.12c-0.68,0.75-0.93,1.82-2.04,2.28c-0.38,0.16-1.01,0.86-0.86,1.65c-0.65,0.15-0.65,0.82-0.99,1.22
		c-1.99,2.34-3.93,4.74-5.29,7.51c-1.01,2.07-1.7,4.31-3.12,6.18c0.26,1.61-1.16,2.52-1.6,3.81c-0.7,2.11-1.9,3.98-2.58,6.12
		c-0.45,1.4-0.83,2.91-1.59,4.22c-0.62,1.07-0.31,2.54-1.46,3.38c-0.43,1.52-0.4,3.2-1.43,4.52c-0.5,0.64,0.18,1.48-0.4,2.08
		c-0.53,0.52,0.2,1.3-0.38,1.8c-0.65,0.5,0.2,1.32-0.4,1.83c-0.62,0.52-0.02,1.11-0.1,1.66c-0.11,0.02-0.22,0.07-0.31,0.14
		c-0.5,1.95-1.03,3.9-1.47,5.87c-0.15,0.67,0.2,1.32,0.52,2.35c0.84-1.78,2.21-2.72,3.28-3.93c1.47-1.67,2.63-3.92,5.13-4.43
		c0.71-0.14,0.8-0.85,1.33-1.18c1.77-1.11,3.52-2.2,5.39-3.17c1.52-0.78,3.01-1.36,4.62-1.79c0.2-0.05,0.48-0.07,0.57-0.21
		c1-1.52,2.7-1.41,4.16-1.77c5.11-1.25,10.24-2.41,15.36-3.6c0.19,0.61,0.62,0.61,1.13,0.49c1.32-0.32,2.64-0.63,3.96-0.95
		c0.66-0.16,1.32-0.37,1.97,0c1.34,0.46,2.48-0.4,3.74-0.54c0.78-0.08,1.52-0.55,2.32,0.09c0.39,0.31,0.92-0.01,1.38-0.1
		c1.2-0.23,2.36-0.68,3.6-0.73c0.2,0.64,0.66,0.54,1.15,0.45c1.23-0.22,2.41-0.9,3.73-0.15c0.31,0.18,0.91-0.14,1.38-0.23
		c0.91-0.16,1.71-0.42,2.74,0c0.94,0.38,2.11-0.27,3.15-0.61c0.25-0.03,0.49-0.06,0.74-0.09c0,0,0.01-0.01,0.01-0.01
		c0.11,0.31,0.18,0.66,0.64,0.62c1.15,0,2.24-0.77,3.47-0.03c0.49,0.29,1.29-0.14,1.9-0.4c1-0.04,1.94,0.98,2.98,0.16
		c0.11,0.04,0.21,0.01,0.3-0.07c0,0,0,0,0,0c0.2,0.1,0.39,0.2,0.59,0.3c0.28,0.78,0.86,0.44,1.35,0.34
		c0.84-0.17,1.68-0.53,2.52-0.01c0.83,0.35,1.77-0.53,2.57,0.21c0.52,0.44,1.29-0.16,1.78,0.42c0.85,0.52,1.66-0.27,2.51-0.09
		c0.06,0.12,0.14,0.35,0.18,0.34c1.41-0.28,2.77,0.52,4.18,0.2c0-0.02,0-0.04,0.01-0.06c0,0,0.01,0,0.01,0l-0.02,0.05
		c0.18,0.5,0.48,0.76,1.05,0.6c0.51-0.14,1.02-0.26,1.54-0.39c0.53,1.02,1.43,0.38,2.17,0.5c0.41,0.3,2.61,0.95,3.03,0.88
		c0.45-0.08,0.9-0.18,1.35-0.27c0.4,1.08,1.16,0.38,1.79,0.36c0.13,0.26,0.18,0.61,0.6,0.57c0.39,0.14,0.73,0.01,1.07-0.17
		c0,0,0,0,0,0c0.21,0.23,0.34,0.56,0.72,0.58l0.03,0.01c0.54,0.36,1.24-0.1,1.76,0.37c0.52,0.48,1.14-0.1,1.68,0.14
		c0.76,0.8,1.84,0.64,2.77,0.89c2.2,0.6,4.43,1.06,6.65,1.58c0.24,0.28,0.57,0.21,0.88,0.23c0.67,0.53,3.52,1.53,4.19,1.47
		c0.13-0.01,0.26-0.04,0.39-0.06c0.59,0.69,1.16,1.37,2.22,1.28c0.85-0.07,1.38,0.7,2.13,0.91l0.01,0.01
		c0.52,0.47,1.3-0.22,1.78,0.41c1.09,0.62,2.16,1.15,3.4,1.53c1.35,0.42,3.09,1.08,3.69,2.84c0.1,0.31,0.46,0.17,0.72,0.16
		c0.99,1.33,2.54,2.25,2.87,4.05c0.05,0.29,0.32,0.41,0.59,0.49c0.49,0.13,0.71,0.66,0.56,0.95c-0.77,1.56,0.08,3.56-1.43,4.93
		c-0.47,0.42-0.68,1.13-1,1.71h0h0c-1.55,0.76-3,1.66-4.31,2.78c-0.29-0.04-0.56,0.02-0.79,0.19c-0.48,0.08-0.97,0.17-1.45,0.25
		c-0.22-0.64-0.66-0.86-1.27-0.6c-0.86,0.37-1.64,0.11-2.23-0.45c-0.84-0.79-1.96-0.63-2.91-0.91c-1.41-0.42-2.98-0.36-4.18-1.38
		c-0.59-0.49-1.24-0.14-1.88-0.33c-2.52-0.76-4.96-1.92-7.65-2.08c-0.13-0.01-0.3,0.01-0.39-0.06c-1.45-1.17-3.26-1.18-4.95-1.63
		c-1.85-0.5-3.68-1.04-5.59-1.25c-0.12-0.01-0.23-0.14-0.34-0.21c-1.69-0.14-3.25-1.04-4.99-0.92c-1.43-1.41-3.43-1.24-5.17-1.78
		c-1.07-0.33-2.21-0.9-3.45-0.46c-0.94,0.33-1.75-0.39-2.62-0.54c-1.31-0.23-2.53-0.87-3.92-0.58c-0.12-0.03-0.24-0.06-0.36-0.08
		c-0.77-0.58-1.86,0-2.62-0.63c0.11,0.15,0.22,0.27,0.34,0.38c-0.13-0.07-0.24-0.24-0.34-0.38c-1.31-0.2-2.64-0.3-3.93-0.43
		c-1.31-0.13-2.8-0.47-4.11-1.05c-0.34-0.15-0.63-0.18-0.96-0.12c-0.71,0.14-1.41,0.49-2.07-0.23c-0.14-0.15-0.64,0.02-0.97,0.07
		c-0.89,0.13-1.73,0.67-2.67-0.13c-0.37-0.31-1.16,0.08-1.71,0.39c-0.61-0.67-1.33-0.71-2.16-0.46c-0.74,0.23-1.5,0.57-2.23-0.16
		c-0.3-0.3-0.77-0.04-1.14,0.05c-0.53,0.12-1.05,0.26-1.49-0.22c-0.3,0.09-0.61,0.16-0.92,0.22c0.3-0.09,0.61-0.17,0.92-0.22
		c-0.42-0.49-0.87-0.06-1.3-0.02c-0.76,0.08-1.49,0.59-2.27-0.11c-0.35-0.32-0.9,0.06-1.36,0.14c-0.38,0.06-0.74,0.2-1.11,0.22
		c-0.1-0.01-0.19-0.01-0.28-0.01c-0.22-0.04-0.45-0.13-0.68-0.34c-0.43-0.39-1.04,0-1.55,0.12c-2.5,0.58-5,1.21-7.5,1.79
		c-0.63,0.15-1.29,0.55-1.92-0.02c-0.32-0.46-0.73-0.21-1.1-0.13c-3.58,0.85-7.16,1.71-10.73,2.58c-0.57,0.14-1.18,0.16-1.39,0.97
		c-0.12,0.47-0.8,0.42-1.25,0.54c-1.32,0.33-2.65,0.63-3.97,0.97c-0.37,0.09-0.84,0.06-0.97,0.58c-0.12,0.16-0.23,0.46-0.37,0.47
		c-1.97,0.18-3.39,1.64-5.12,2.38c-1.27,0.54-2.66,1.18-3.86,2.01l-0.41,0.82c-0.39-0.02-0.76-0.01-1,0.37
		c-0.36,1.07-1.56,0.74-2.22,1.31c-0.42,0.16-0.3,0.51-0.31,0.82c-0.49,0.14-1.21,0.06-1.35,0.62c-0.22,0.9-1.04,0.69-1.54,1.04
		c-0.94,0.37-1.7,1.06-2.28,1.81c-0.38,0.5-0.93,0.45-1.29,0.82c-1.55,1.4-2.69,3.24-4.47,4.38c-0.75,0.48-1.1,1.06-1.23,1.87
		c-0.75,0.27-0.67,1.22-1.29,1.59c-0.31-0.03-0.58,0.03-0.76,0.32v0c-0.13,0.26-0.27,0.53-0.4,0.79l-0.15,0.03L30.04,420
		c-0.33,0.19-0.27,0.51-0.28,0.8c-0.96,0.83-1.41,2.13-2.6,2.75c-0.05,0.02,0,0.26,0.01,0.39c-0.22,0.12-0.64,0.19-0.56,0.44
		c0.29,0.89-0.48,1.53-0.46,2.34c-0.47,0.18-0.79,0.44-0.62,1.01c-0.25,0.14-0.58,0.22-0.57,0.6c-0.07,0.11-0.08,0.22-0.03,0.33h0
		c-0.22,0.2-0.59,0.27-0.6,0.66c-0.07,0.09-0.09,0.19-0.03,0.3l0,0c-0.95,1.65-1.5,3.5-2.41,5.17c-0.13,0.23,0.07,0.64,0.12,0.97
		c-0.76,0.42-1.01,1.13-1.19,1.94c-0.62,2.86-1.25,5.72-1.95,8.56c-0.25,1.02,0.55,2.15-0.35,3.08c0.63,1.32-0.12,2.64-0.18,3.93
		c-0.06,1.28,0.11,2.68-0.49,4.07c-0.37,0.84-0.04,2.19-0.38,3.25c-0.62,1.93,0.1,4.09-1.03,5.93c0.25,3.48-1.17,6.65-1.87,9.96
		c-0.17,0.8,0.4,1.49,0.02,2.37c-1.2,2.81-1.97,5.77-2.65,8.74c-0.11,0.5-0.13,1.01,0.33,1.28c0.45,0.26,0.89,0.04,1.27-0.33
		c2.46-2.35,5.23-4.34,7.61-6.78c2.21-0.38,3.16-2.84,5.36-3.23c0.6-0.11,0.61-0.8,1.12-1.1c1.67-0.98,3.1-2.36,4.99-2.95
		c0.58-1.38,2.51-0.93,3.13-2.31c0.1-0.21,0.61-0.24,0.93-0.34c0.77-0.22,1.59-0.25,2.02-1.17c0.2-0.42,0.84-0.36,1.29-0.51
		c0.49-0.17,1.12-0.05,1.41-0.66c0.28-0.54,0.77-0.71,1.31-0.85c0.9-0.22,1.75-0.34,2.3-1.37c0.35-0.65,1.48-0.5,2.24-0.75
		c0.6-0.2,1.45-0.11,1.32-1.15c0-0.02,0-0.03,0.01-0.05c1.01-0.25,2.03-0.52,3.05-0.73c0.68-0.14,1.06-0.5,1.14-1.18
		c1.33-0.3,2.65-0.6,3.98-0.9c0.27-0.06,0.62-0.05,0.78-0.22c1.75-1.93,4.32-1.62,6.49-2.39c0.38-0.14,0.79-0.2,1.16-0.36
		c0.37-0.16,0.33-0.55,0.34-0.88c2.01-0.48,4.02-0.97,6.04-1.45c0.65-0.15,1.36-0.23,1.31-1.17c2.38-0.59,4.76-1.18,7.14-1.77
		c0.57-0.15,1.31,0.09,1.57-0.72c0.4-0.82,1.24-0.74,1.93-0.91c3.55-0.9,7.1-1.75,10.65-2.63c0.86-0.19,1.72-0.38,2.58-0.57
		c0.53-0.12,0.57-0.49,0.5-0.92c5-1.24,9.96-2.64,15.05-3.48c0.32,1,1.02,0.4,1.5,0.29c3.5-0.8,6.99-1.65,10.48-2.48
		c0.72-0.17,1.46-0.31,2.18-0.47c0.18,0.77,0.71,0.62,1.25,0.5c1.91-0.41,3.76-1.04,5.71-1.25c0.09,0.51,0.39,0.63,0.87,0.51
		c1.05-0.26,2.09-0.53,3.15-0.74c0.74-0.15,1.47-0.61,2.22,0.14c0.33,0.32,0.9-0.04,1.35-0.13c1.19-0.23,2.33-0.67,3.56-0.73
		c0,0,0,0,0,0c0.07,0.5,0.37,0.67,0.85,0.55c1.11-0.27,2.22-0.53,3.33-0.8c0.35,0.99,1.07,0.54,1.71,0.44
		c1.67-0.25,3.31-0.05,4.91,0.43c0.28,0.08,0.52,0.06,0.78,0.05c2.23-0.02,4.4,0.45,6.59,0.78c2.05,0.31,3.87,1.17,5.82,1.65
		c1.31,0.32,2.56,1.35,3.69,2.4c1.09,1.01,0.96,2.77,2.46,3.41c0.2,0.09,0.38,0.66,0.3,0.93c-0.39,1.32-0.19,2.69-0.4,4.03
		c-0.21,1.37-0.77,2.51-1.46,3.58c-0.92,1.42-2.11,2.57-3.92,2.94c-2.54,0.52-5.04,1.24-7.57,1.78c-1.4,0.29-2.74,1.1-4.3,0.32
		c-0.48-0.24-1.3,0.26-1.97,0.36c-1.02,0.15-1.96,0.8-3.1,0.01c-0.43-0.3-1.42,0.18-2.15,0.36c-0.73,0.18-1.44,0.39-2.08-0.2h0
		c-0.84-0.31-1.58,0.21-2.37,0.32c-0.65,0.09-1.32,0.48-1.93-0.1c-0.61-0.42-1.15,0.07-1.73,0.13c-0.08,0.01-0.15,0.02-0.23,0.04
		c-0.34,0.03-0.69,0.05-1.03,0.07c-0.14-0.05-0.28-0.15-0.41-0.32c-0.09-0.12-0.4-0.18-0.56-0.12c-0.96,0.39-1.97,0.3-2.98,0.21
		c-0.14-0.03-0.29-0.05-0.43-0.09c-0.14-0.04-0.3-0.02-0.45,0.03c-0.8-0.04-1.59,0.01-2.35,0.4c-0.36,0.18-0.79,0.16-1.13-0.18
		c-0.31-0.49-0.72-0.17-1.08-0.12c-0.89,0.11-1.76,0.75-2.66-0.11c-0.18-0.17-0.77,0.09-1.17,0.14c-0.76,0.11-1.41,0.29-2.29-0.07
		c-0.86-0.35-2.09,0.24-3.16,0.41c-0.08-0.49-0.35-0.66-0.83-0.54c-0.84,0.21-1.68,0.4-2.53,0.6c-0.17-0.51-0.47-0.78-1.05-0.62
		c-0.78,0.21-1.56,0.4-2.34,0.6c-0.21-0.17-0.26-0.51-0.59-0.55c-0.59-0.23-1.1,0.03-1.62,0.26c-0.95-0.05-1.85,0.58-2.88-0.1
		c-0.52-0.34-1.41,0.15-2.09,0.45c-1.68-0.89-3.29-0.31-4.89,0.25l-0.75-0.59c-0.61-0.41-1.16,0.05-1.74,0.12
		c-0.9,0.12-1.7,0.5-2.71,0.02c-0.81-0.39-1.81,0.29-2.73,0.45c-0.77,0.13-1.55,0.6-2.32,0c-0.88-0.46-1.66,0.15-2.48,0.26
		c-0.79,0.11-1.57,0.31-2.36,0.47c-0.16-0.6-0.57-0.67-1.1-0.54c-0.86,0.22-1.73,0.42-2.59,0.63c-0.6,0.14-1.19,0.36-1.77-0.05
		c-0.81-0.49-1.54,0.08-2.3,0.19c-0.86,0.13-1.71,0.36-2.56,0.54c-0.15-0.42-0.38-0.71-0.9-0.59c-0.66,0.16-1.33,0.3-1.99,0.46
		c-6.76,1.63-13.52,3.25-20.28,4.89c-0.76,0.18-1.61,0.19-2.05,1.11c-0.24,0.51-0.96,0.43-1.46,0.6c-1.24,0.41-2.71,0.27-3.57,1.61
		c-0.17,0.26-0.75,0.26-1.14,0.37c-0.64,0.18-1.34,0.21-1.65,0.99c-0.17,0.41-0.67,0.52-1.05,0.52c-1.89-0.02-3.23,1.32-4.57,2.23
		c-1.02,0.7-2.68,0.74-3.12,2.26c-1.38,0.07-2.02,1.49-3.27,1.8c-0.47,0.12-0.77,0.46-1.13,0.74c-2.09,1.61-4.27,3.11-6.42,4.65
		c-0.19,0.93-1.17,1.01-1.74,1.5c-1.57,1.35-2.89,2.96-4.41,4.36c-1.33,1.23-2.9,2.54-3.63,4.39c-0.93,1.06-2.13,1.88-2.74,3.21
		c-0.13,0.27-0.13,0.5-0.13,0.77c-0.5,0.16-0.75,0.47-0.61,1.01c-0.27,0.13-0.6,0.2-0.6,0.6c-0.04,0.13-0.04,0.25-0.01,0.38
		c-0.28,0.13-0.6,0.21-0.6,0.61c-0.03,0.13-0.03,0.25,0.01,0.37c-0.29,0.13-0.59,0.24-0.63,0.62c-0.04,0.11-0.04,0.21,0,0.32
		c-0.26,0.18-0.55,0.32-0.6,0.68l-0.01,0.02c-0.31,0.25-0.53,0.56-0.58,0.97l-0.01,0.03c-0.41,0.66-0.82,1.32-1.24,1.98
		c-0.9,1.11-1.46,2.36-1.62,3.78c-1.64,2.16-2.16,4.76-2.82,7.29c-0.17,0.65-0.29,1.28-0.64,1.86c-0.17,0.28-0.45,0.64-0.39,0.91
		c0.45,2.24-1.21,4.08-1.1,6.25v0c0,0,0,0,0,0c-0.53,0.85,0.2,1.65,0.1,2.48l0,0c-0.55,0.19-0.59,0.59-0.48,1.08
		c0.12,0.5,0.2,1.01,0.3,1.51c-0.23,0.12-0.61,0.21-0.55,0.5c0.28,1.37,0.27,2.71,0.06,4.09c-0.1,0.68,0.3,1.43,0.46,2.16
		c0.08,0.39,0.13,0.8,0.19,1.2h0c-0.72,0.25-0.57,0.79-0.44,1.32c0.37,1.49,0.74,2.97,1.12,4.46c0.11,0.83,0.26,1.64,0.59,2.41h0
		c0.03,0.13,0.06,0.27,0.09,0.4c0.06,0.26,0.12,0.53,0.18,0.79c0.29,1.62,0.63,3.22,1.15,4.78c0.41,2.16,0.88,4.3,1.53,6.39
		c0.27,0.72-0.2,1.92,1.24,1.86c0.24,0.99,0.48,1.98,0.73,2.97c0.12,0.46,0.19,0.95,0.88,0.87c0.66-0.08,0.97-0.41,0.9-1.08v0
		c0.89-0.05,1.38-0.61,1.86-1.31c0.84-1.22,1.11-2.93,2.86-3.4c0.08-0.02,0.11-0.23,0.17-0.34c1.12-2.1,2.99-3.56,4.47-5.34
		c0.93-1.11,1.94-2.14,2.92-3.18c1.44-1.52,2.54-3.41,4.48-4.43c0.23-0.12,0.48-0.16,0.6-0.48c0.74-1.99,2.78-2.69,4.14-4.07
		c1.66-1.69,3.52-3.23,5.39-4.68c1.78-1.38,3.46-2.88,5.23-4.26c0.65-0.51,1.88-0.73,1.89-1.94c1.15-0.28,2.18-0.74,3-1.68
		c1.06-1.22,2.77-1.52,3.94-2.66c0.45-0.44,0.66-0.96,1.05-1.39c0.8-0.12,1.42-0.58,2.1-0.92c1.25-0.61,2.14-1.81,3.55-2.1
		c0.63-0.13,0.97-0.45,0.9-1.12c2.15-0.31,3.87-1.44,5.47-2.83c0.24-0.21,0.6-0.29,0.91-0.4c0.86-0.29,1.81-0.24,2.39-1.28
		c0.23-0.42,1.22-0.45,1.88-0.62c0.57-0.14,1.07-0.28,0.92-1.04c0.92-0.23,1.84-0.45,2.75-0.7c0.5-0.14,1.1-0.11,1.25-0.83
		c0.06-0.28,0.34-0.46,0.61-0.47c2.48-0.1,4.11-2.4,6.59-2.49c0.27-0.01,0.51-0.16,0.55-0.48c0.48-0.99,1.52-0.74,2.31-1.05
		c1.02-0.4,2.32-0.14,2.96-1.46c0.16-0.33,0.98-0.34,1.49-0.51c1.45-0.5,3.1-0.38,4.41-1.35h0h0c0.13-0.29,0.26-0.57,0.38-0.86
		c1.59-0.28,3.18-0.59,4.69-1.16c1.24-0.12,2.44-0.39,3.59-0.86c0.33-0.05,0.88-0.02,0.94-0.18c0.43-1.18,1.63-1.01,2.45-1.48v0v0
		c1.5-0.18,2.97-0.52,4.39-1.05c0.2-0.01,0.41,0,0.6-0.04c0.85-0.19,1.76-0.27,2.54-0.63c0.86-0.39,1.43,0.89,2.24,0.22
		c1.85-0.24,3.64-0.7,5.4-1.27c0.22,0.24,0.3,0.65,0.74,0.63h0.02c0.77,0.27,1.44-0.18,2.15-0.3c0.57-0.09,1.14-0.33,1.72-0.15
		c0.08,0.03,0.17,0.06,0.25,0.1l-0.01,0.12l0.11,0.04c0.52,0.5,1.11-0.15,1.65,0.11c-0.01,0.15,0.05,0.24,0.19,0.29
		c0.35,0.42,0.74,0.08,1.12,0.05c0.1-0.01,0.22-0.04,0.34-0.07c0.27,0.01,0.53,0.05,0.78,0.08c1.26,1.2,3.19,0.86,4.51,2.01
		c0.71,0.62,0.86,1.87,2.07,1.93c0.09,1.37,0.38,2.7,0.96,3.95c0.02,0.14,0,0.26-0.04,0.37c0.04-0.11,0.06-0.23,0.04-0.37
		c-0.1,0.23-0.21,0.46-0.31,0.69l-0.19,0.04l-0.1,0.17c-0.47,0.51,0.14,1.06-0.05,1.59c-0.12,0.07-0.25,0.14-0.37,0.2
		c-0.46,0.14-0.18,0.52-0.26,0.79c-0.18,0.09-0.47,0.13-0.52,0.26c-0.57,1.66-1.9,2.54-3.35,3.31c-0.31,0.16-0.21,0.44-0.17,0.69
		c-0.64,0.44-1.4,0.52-2.13,0.69c-4.04,0.98-8.08,1.97-12.13,2.9c-0.34,0.08-0.68,0.21-1.02,0.31c-0.09,0.01-0.18,0.03-0.28,0.04
		c-0.18,0.02-0.37,0.05-0.55,0.07c-0.33-0.02-0.67-0.14-1-0.45c-0.16-0.15-0.65,0.02-0.97,0.1c-10.61,2.54-21.21,5.09-31.82,7.64
		c-0.31,0.07-0.7,0.07-0.71,0.54c-0.09,0.11-0.09,0.22-0.01,0.33c-2.28,0.95-4.74,1.21-7.09,1.89c-0.8,0.23-1.76,0.13-2.16,1.2
		c-0.17,0.44-0.82,0.4-1.28,0.51c-1.39,0.35-2.79,0.64-4.17,1.02c-1,0.27-2.03,0.3-2.81,1.34c-0.42,0.56-1.63,0.51-2.47,0.76
		c-0.81,0.24-1.75,0.17-2.16,1.23c-0.21,0.54-0.96,0.39-1.46,0.58c-1.2,0.46-2.79,0.11-3.45,1.68c-0.02,0.04-0.12,0.07-0.19,0.07
		c-2.02,0.08-3.48,1.54-5.28,2.14c-0.55,0.18-1.24,0.13-1.39,0.96c-0.07,0.37-0.52,0.37-0.83,0.47c-0.91,0.29-2.05,0.15-2.47,1.39
		c-0.06,0.19-0.62,0.2-0.94,0.31c-0.78,0.27-1.69,0.14-2.18,1.19c-0.2,0.43-1.2,0.49-1.83,0.72c-0.47,0.15-0.15,0.92-0.83,0.96
		c-1.47,0.09-2.26,1.29-3.12,2.22c-0.41,0.45-1.27,0.14-1.33,0.96c-0.08,0.11-0.08,0.23-0.01,0.34c-2.56,0.94-4.62,2.51-6.04,4.86
		c-0.41,0.68-1.21,0.98-1.76,1.42c-0.69,0.55-1.37,1.1-1.64,1.83c-0.28,0.78-1.02,0.58-1.39,1.02c-0.33,0.17-0.11,0.53-0.25,0.76
		c-0.12,0.07-0.24,0.13-0.36,0.2c-0.43,0.15-0.18,0.52-0.26,0.79c0,0,0.08,0.06,0.08,0.06c0,0.01-0.01,0.01-0.01,0.02
		c-0.02-0.03-0.05-0.06-0.07-0.08c-1.11,1.13-1.89,2.47-2.41,3.96c-0.62,0.53-1.16,1.1-1.21,1.98c-0.15,0.16-0.3,0.33-0.46,0.49
		c-0.23,0.09-0.26,0.26-0.16,0.47c-0.11,0.17-0.22,0.35-0.34,0.52c-0.68,0.52,0.04,1.14-0.12,1.69c-0.44,0.08-0.72,0.31-0.59,0.78
		c0.15,0.55,0.12,1.01-0.41,1.34c-0.21,0.39-0.42,0.77-0.63,1.16c-0.05,0.26-0.04,0.5,0.02,0.74c0,0.17-0.02,0.33-0.11,0.42
		c-1.17,1.24-1.07,2.7-0.87,4.2l-0.13,0l-0.08,0.11c-0.54,0.84,0.26,1.63,0.1,2.46c-0.13,0.01-0.23,0.07-0.31,0.17
		c-0.71,0.46,0.31,1.33-0.42,1.78c-0.7,0.62,0.22,1.33-0.04,1.86c-0.83,1.74,0.16,3.27,0.39,4.89c0.1,0.7,0.59,1.39-0.14,2.1
		c-0.29,0.28-0.04,0.79,0.06,1.18c0.71,2.99,1.43,5.97,2.15,8.96c0.06,0.26,0.07,0.65,0.24,0.76c1.53,0.97,1.32,2.68,1.8,4.1
		c0.07,0.19,0.05,0.48,0.18,0.58c1.62,1.27,1.43,3.26,1.99,4.95c0.11,0.32,0.11,0.84,0.32,0.94c1.35,0.66,1.16,2.03,1.52,3.14
		c0.27,0.81,0.26,1.69,1.21,2.21c0.64,0.35,0.28,1.43,1.08,2.12c1.36-2.18,2.86-4.24,3.94-6.49c0.46-0.96,0.46-2.23,1.3-3.01
		c2.91-2.67,4.1-6.51,6.54-9.46c1.08-1.3,2.18-2.57,3.09-3.99c0.17-0.27,0.16-0.49,0.13-0.76c0-0.01,0-0.01,0-0.02
		c0.44-0.34,1.25-0.04,1.44-0.83c0.7-1.78,2.39-2.75,3.48-4.22c1.01-1.36,2.3-2.52,3.46-3.77c0.06-0.08,0.06-0.17-0.01-0.24
		c0.29-0.18,0.7-0.26,0.62-0.74c0.06-0.08,0.06-0.16-0.01-0.24v0c0.43-0.4,1.3-0.11,1.48-0.92h0c0.17-0.35,0.63-0.53,0.6-1
		c0,0,0,0-0.01,0c0.22-0.43,0.59-0.63,1.05-0.72c0.56-0.1,0.7-0.47,0.62-0.98c1.31-0.2,2.14-1.18,2.83-2.11
		c0.59-0.79,1.27-1.4,2-2.01c0.13-0.31,0.3-0.63,0.65-0.69c0.79-0.13,1.06-0.69,1.18-1.37c1.27-0.02,1.94-1.12,2.61-1.84
		c0.51-0.55,1.89-0.44,1.58-1.71c0.66-0.59,1.31-1.19,1.97-1.78h0c0.96-0.78,1.92-1.55,2.88-2.33c1.18-0.75,2-2.05,3.54-2.25
		c0.43-0.06,0.37-0.49,0.33-0.83c1.06-0.19,1.63-1.07,2.4-1.68c0.15-0.03,0.29-0.11,0.4-0.28c0.09-0.11,0.1-0.22,0.02-0.34
		c0.59-0.64,1.65-0.3,2.2-1.04c0.27-0.45,0.56-0.86,1.07-1.06c0.44,0.03,0.85-0.02,1.18-0.35c0.41-0.15,0.31-0.54,0.39-0.84
		c0.86-0.19,1.89,0.03,2.32-1.15c0.17-0.46,0.82-0.36,1.25-0.51c0.36-0.13,0.83-0.11,0.76-0.7c0.71-0.89,1.82-0.71,2.74-1.02
		c0.76-0.25,1.56-0.4,2.35-0.58c0.56-0.12,0.74-0.47,0.68-0.99c1.04-0.25,2.07-0.51,3.1-0.76c0.18,0.55,0.59,0.82,1.09,0.55
		c1.77-0.95,3.66,0.03,5.46-0.37c0.13-0.03,0.31-0.04,0.4,0.03c1.72,1.32,4.22,1.2,5.66,2.92c0.71,0.85,1.75,1.41,2.13,2.6
		c0.37,1.14,0.23,2.09-0.5,2.97c-0.52,0.62-0.74,1.42-1.23,2.01c-0.39,0.48-0.47,1.31-1.36,1.37c-0.73,0.05-0.47,0.9-0.86,1.25
		c-0.39,0.13-0.26,0.72-0.52,0.78c-1.85,0.36-2.9,1.86-4.28,2.89c-0.16,0.12-0.36,0.18-0.54,0.27c-0.46,0.15-0.18,0.53-0.26,0.81
		c-0.65,0.18-1.29,0.37-1.94,0.56c-0.52,0.11-0.27,0.52-0.31,0.82c-0.57,0.14-1.14,0.29-1.71,0.42c-0.48,0.11-0.65,0.37-0.47,0.84
		c-0.66,0.55-1.77,0.16-2.27,1.05v0c0,0-0.01,0.01-0.01,0.01c0,0,0,0,0,0c0,0,0.01-0.01,0.01-0.01l-0.01,0.02c0,0,0,0,0,0
		c-0.04,0.09-0.09,0.17-0.14,0.26c-0.02,0.03-0.04,0.05-0.07,0.05c-1.68,0.36-2.8,1.77-4.48,2.29c-0.97,0.3-2.06,1.08-2.99,1.81
		c-0.09,0.1-0.1,0.21-0.02,0.33c-0.86,0.8-2.22,0.35-3.04,1.24l-0.02,0.02c-0.4,1.02-1.65,0.61-2.23,1.33l-0.02,0h0
		c-0.23,0.34-0.46,0.67-0.69,1.01c-0.53-0.05-1.02,0.06-1.46,0.36c-0.52,0.14-0.34,0.58-0.39,0.92c0.06-0.02,0.1-0.06,0.14-0.09
		c-0.04,0.03-0.08,0.06-0.14,0.09c-2.2,0.27-4,1.32-5.56,2.85c-0.14,0.13-0.34,0.27-0.52,0.28c-1.51,0.11-2.19,1.83-3.73,1.92
		c-0.23,0.01-0.13,0.47-0.13,0.72c-1.54,0.17-4.64,2.32-6.11,3.74c-0.19,0.18-0.34,0.45-0.59,0.46c-1.49,0.06-2.05,1.92-3.6,1.82
		c-1.23,1.6-3.54,1.85-4.57,3.71c-0.11,0.19-0.47,0.24-0.71,0.36c-0.47,0.12-0.33,0.46-0.27,0.77c-0.37,0.15-0.74,0.29-1.12,0.44
		c-1.15,0.82-1.87,2.24-3.45,2.44c-0.59,0.08-0.57,0.65-0.87,0.96c-0.51,0.54-0.74,1.43-1.68,1.48c-1.14,1.67-2.57,3.05-4.03,4.45
		c-0.93,0.89-1.42,2.23-2.1,3.36c-0.28,0.19-0.25,0.51-0.33,0.78c-0.14-0.01-0.24,0.06-0.28,0.2c-0.61,0.99-1.22,1.97-1.83,2.96
		c-0.46,0.14-0.23,0.52-0.29,0.81c-0.13,0.02-0.23,0.07-0.32,0.17c-0.7,0.5,0.01,1.06-0.06,1.58c-0.98,0.75-1.02,2.03-0.9,2.91
		c0.18,1.32-0.26,2.46-0.53,3.59c-0.17,0.73-0.08,1.26,0.11,1.87c0.08,0.96,0.33,1.89,0.67,2.79c-0.79,0.8-0.73,1.67-0.26,2.59
		c-0.08,0.89,0.75,1.84-0.17,2.68c-0.34,1.11,0.29,2.08,0.46,3.11c0.12,0.73,0.4,1.43-0.08,2.13c-0.19,0.51-0.09,0.97,0.05,1.44
		c0.04,0.41,0.12,0.79,0.28,1.1c0.12,0.58,0.31,1.16-0.14,1.71c-0.47,0.82,0.14,1.54,0.2,2.3c0.05,0.63,0.56,1.27-0.03,1.9
		c-0.35,0.24-0.27,0.58-0.2,0.91c0.19,0.97,0.71,1.94-0.02,2.92c-0.09,0.12-0.01,0.4,0.05,0.6c0.51,1.9-0.09,3.75-0.16,5.62
		c-0.12,3.59-1.23,6.94-1.97,10.38c-0.54,2.48-1.66,4.74-3.05,6.85c-0.32,0.48-0.7,0.89,0.03,1.31c3.5-0.86,7.02-1.64,10.49-2.61
		c1.2-0.34,2.18,0.59,3.37,0.14c0.96-0.36,2.05-0.85,3.09-0.05c0.08,0.06,0.27,0.04,0.4,0.01c1.96-0.49,3.95,0.3,5.8,0.13
		c2.12-0.2,3.95,0.98,6.06,0.61c0.84-0.15,2.07,0.17,2.97,0.78c0.56,0.02,1.09-0.13,1.6-0.34c0.51,0.05,0.77,0.77,1.39,0.51
		c0.43-0.03,0.86-0.02,1.26,0.19c1.49,0.03,2.89,0.65,4.39,0.58c0.12,0.23,0.26,0.58,0.54,0.48c1.54-0.49,3.04,0.55,4.57,0.07
		c0.14-0.04,0.35,0.16,0.53,0.25v0c0.86,0.41,1.65-0.29,2.49-0.16c0.01,0.13,0.07,0.22,0.17,0.29c0.22,0.07,0.44,0.08,0.65,0.05
		c1.73,0.16,3.45,0.57,5.16-0.18c0.28,0.78,0.85,0.66,1.47,0.52c1.3-0.3,2.6-0.57,3.9-0.85c0.11,0.49,0.42,0.64,0.9,0.52
		c0.86-0.22,1.72-0.42,2.59-0.61c0.64-0.13,1.19-0.35,1.91,0.11c0.69,0.44,1.8,0.17,2.18-0.49c0.47-0.82,1.15-0.86,1.83-1.04
		c1.52-0.39,3.06-0.73,4.58-1.11c0.37-0.09,0.85-0.08,0.88-0.65c0.26-0.61,0.86-0.57,1.36-0.74c1.07-0.38,2.48-0.11,3.01-1.54
		c1.55,0.12,2.1-1.76,3.58-1.79c0.51-0.01,0.57-0.44,0.77-0.8c0.43-0.79,1.13-1.36,1.85-1.89c1.9-1.76,3.39-3.9,5.14-5.75
		c2.85-3.02,4.52-6.69,6.72-10.06c0.96-1.47,1.48-3.23,1.82-4.99c0.04-0.19,0.02-0.43,0.13-0.55c1.15-1.23,1.63-2.76,1.98-4.35
		c0.21-0.32,0.42-0.64,0.64-0.97c0,0,0.01,0,0.02,0c0.13-1.05,0.27-2.1,1.14-2.87c0.23-0.2,0.11-0.49,0.08-0.74
		c0.13-0.04,0.24-0.12,0.34-0.22c0.64-0.6-0.11-1.67,0.72-2.21c-0.66-0.85,0.58-1.36,0.38-2.13c0.24-0.19,0.7-0.19,0.63-0.67
		c-0.07-0.38-0.14-0.76-0.22-1.14c-0.13-0.08-0.24-0.14-0.34-0.2c0.1,0.02,0.21,0.08,0.34,0.2c0.32-0.24,0.7-0.45,0.64-0.95
		c-0.05-0.39-0.25-0.78,0.09-1.15c1.46-1.59,1.19-3.76,1.85-5.63c0.56-1.6,0.76-3.33,1.12-5.01c0.59-2.47,0.97-5,1.81-7.41
		c0.22-0.63-0.1-1.42,0.42-2.02c-0.07,0-0.16,0.04-0.2,0.01c-0.01-0.01-0.01-0.01-0.02-0.02c0.07,0,0.14,0.01,0.22,0.01
		c0.12-0.41-0.03-0.77-0.16-1.15c0.19-0.21,0.55-0.27,0.57-0.64c0.37-1.75,0.59-3.56,1.18-5.24c0.3-0.84,0.45-1.76,0.61-2.55
		c0.19-0.94,0.69-1.68,0.94-2.54c0.5-2.08,1-4.17,1.5-6.25c0.24-0.1,0.59-0.11,0.6-0.45c0.06-1.64,0.29-3.22,1.37-4.55
		c0.42-0.52,0.01-1.15,0.28-1.76c0.44-1,0.59-2.08,1.21-3.08c0.49-0.8,0.21-2.05,1.12-2.78c-0.38-1.54,1.31-2.5,1.12-4.06
		c-0.07-0.54,0.56-1.16,0.87-1.75c0.1-1.21,0.65-2.25,1.21-3.29c0.23-0.23,0.69-0.5,0.66-0.7c-0.23-1.77,1.12-2.78,1.84-4.09
		c0.35-0.63,0.66-1.28,0.98-1.92c0.98-1.43,1.93-2.88,2.66-4.46c0.09-0.09,0.08-0.17-0.01-0.25c0.28-0.18,0.74-0.21,0.6-0.74
		c0.07-0.1,0.07-0.19-0.01-0.28c0.27-0.19,0.75-0.19,0.64-0.71l0.07-0.11l-0.08-0.1c0.37-0.49,1.29-0.12,1.46-0.93
		c1.27-0.87,2.24-2.3,4.04-2.2c-0.14-0.03-0.28-0.04-0.41-0.06c0.13,0.01,0.27,0.03,0.41,0.06c0.01,0.8,0.92,0.91,1.26,1.04
		c1.43,0.55,2.12,1.49,2.29,2.93c0.03,0.26,0.11,0.66,0.28,0.74c1.57,0.72,1.69,2.46,1.48,3.48c-0.44,2.18,0.78,4.09,0.54,6
		c-0.19,1.58,0.47,3.11-0.05,4.62c-0.18,0.1-0.4,0.24-0.28,0.45c0.9,1.64-0.12,3.35,0.17,5.05c0.03,0.19,0.02,0.45-0.01,0.72
		c-0.03,0.12-0.06,0.24-0.09,0.36c-0.04,0.11-0.04,0.22-0.04,0.32c-0.08,0.29-0.18,0.58-0.31,0.8c-0.36,0.63-0.34,1.11-0.2,1.7
		c0.09,0.39,0.31,0.84-0.05,1.15c-0.74,0.63-0.22,1.22-0.02,1.83c-0.47,1.01-0.33,2.19-0.92,3.16c-0.41,1.81-0.81,3.62-1.22,5.42
		c-0.39,0.2-0.23,0.52-0.17,0.8c0.08,0.38,0.13,0.74-0.24,1.01c-0.67,0.5,0.05,1.06-0.07,1.58c-0.31,0.13-0.66,0.24-0.6,0.68
		c0.19,1.39-0.66,2.56-0.82,3.88c-0.84,1.21-1.03,2.55-0.87,3.98c-0.8,0.43-1.24,1.06-1.07,2.01c0.04,0.21,0.08,0.42,0.11,0.64v0
		c-0.26,0.21-0.66,0.28-0.65,0.73l0,0v0v0v0c-1.01,0.68-0.52,1.9-1,2.77c-0.99,0.7-0.55,1.91-1,2.8c-0.44,0.19-0.27,0.75-0.6,1.01
		c-0.65,0.48,0.23,1.32-0.41,1.8v0c-0.43,0.17-0.28,0.54-0.3,0.85c-0.11,0.02-0.21,0.07-0.3,0.15c-0.52,0.13-0.25,0.76-0.61,0.98
		c-0.06,1.32-0.97,2.33-1.32,3.55v0c-0.68,0.37-0.83,1.11-1.2,1.7v0v0c-0.31,0.25-0.53,0.55-0.61,0.95l-0.01,0.02
		c-0.15,1-0.37,1.98-1.01,2.81v0c-0.4,0.66-0.81,1.33-1.21,1.99h0c-0.32,0.57-1.01,0.96-0.86,1.77c-0.49,0.17-0.75,0.48-0.62,1.01
		c-0.77,0.41-1.11,1.1-1.21,1.93v0c-0.27,0.16-0.59,0.27-0.63,0.65c-0.03,0.11-0.03,0.22,0.02,0.32c0,0,0,0,0,0
		c-0.26,0.17-0.55,0.3-0.59,0.66c-0.04,0.11-0.04,0.23-0.02,0.35c-1.23,0.95-1.56,2.49-2.46,3.66c-0.34,0.21-0.26,0.54-0.27,0.85
		c-0.12,0.03-0.24,0.08-0.34,0.15c-0.67,1.26-1.8,2.28-2.06,3.76c-0.47,0.29-1.21,0.1-1.44,0.81c-0.01,0.12-0.01,0.24,0.02,0.36
		c-0.68,0.22-0.79,0.91-1.13,1.39c-0.54,0.77-0.84,1.72-1.86,2.07c-0.21,0.07-0.39,0.38-0.51,0.61c-1.11,2.1-2.95,3.57-4.45,5.33
		c-0.99,1.16-2.08,2.29-3.15,3.3c-1.48,1.41-2.51,3.25-4.38,4.33c-0.74,0.43-1.46,1.3-2.11,2.05c-1.87,2.16-4.03,3.95-6.54,5.37
		c-1.19,0.68-2.19,1.71-3.23,2.62c-0.35,0.31-0.21,0.81,0.06,1.12c0.39,0.47,0.9,0.89,1.57,0.83c0.69-0.07,1.21,0.28,1.67,0.66
		c0.97,0.8,2.07,1.11,3.26,1.45c2.07,0.59,4.16,1.19,6.16,2.04c1.23,0.53,2.7,0.88,4.1,0.22v0c0,0,0-0.01,0-0.01
		c0.1,0.17,0.19,0.47,0.32,0.49c2.59,0.33,5.05,1.51,7.74,1.21c0.12-0.01,0.26,0.07,0.39,0.11v0c0.21,0.54,0.63,0.57,1.12,0.46
		c0.76-0.17,1.52-0.32,2.28-0.49v0c0.33,0.83,0.95,0.5,1.53,0.41c1.04-0.15,2.04-0.81,3.14-0.28c0.88,0.44,1.67-0.14,2.51-0.25
		c0.79-0.11,1.58-0.3,2.36-0.45c0.07,0.25,0.13,0.49,0.2,0.74c1.6-0.38,3.19-0.77,4.78-1.15c1.2-0.29,2.39-0.57,3.59-0.86
		c-0.03-0.13-0.07-0.26-0.1-0.39l-0.02-0.01c0.01,0,0.02,0,0.03-0.01l-0.01,0.02c0.02-0.01,0.04-0.01,0.06-0.01
		c-0.03,0.13-0.03,0.26,0.04,0.4c2.26-0.54,4.52-1.08,6.78-1.63c-0.24-0.44-0.18-0.79,0.33-0.93c0.85-0.23,1.71-0.44,2.57-0.64
		c0.53-0.12,0.86-0.37,0.73-0.98c0.72-0.31,1.32-0.61,1.82-1.38c0.9-1.37,2.03-2.62,3.39-3.6c0.11-0.08,0.29-0.13,0.33-0.23
		c0.63-1.78,2.11-2.87,3.31-4.19c0.24-0.26,0.08-0.5,0.09-0.76l0.04,0.06h0c0.85-0.14,1.64,0.78,2.52,0.16
		c0.22,0.69,0.71,0.71,1.3,0.54c1.82-0.54,3.6-0.14,5.37,0.25c0.43,0.1,0.84,0.04,1.19-0.12c0.68-0.31,1.14,0.16,1.67,0.36
		c0.27-0.05,0.53-0.1,0.8-0.15l1.19-0.2c0.17,0.3,0.35,0.68,0.72,0.62c1.96-0.29,3.99,0.45,5.9-0.46c0.65-0.31,1.31-0.24,1.86,0.29
		h0c0.62,0.29,1.2-0.02,1.78-0.16c6.01-1.44,12.02-2.9,18.03-4.36c0.9-0.22,1.88-0.31,2.4-1.31c0.23-0.45,0.81-0.53,1.26-0.56
		c1.41-0.09,2.08-1.34,3.16-1.95c0.11-0.06,0.06-0.39,0.09-0.59c0.92-0.26,2.02-0.14,2.48-1.32c0.07-0.17,0.46-0.26,0.71-0.28
		c1.11-0.08,1.53-0.87,1.88-1.75c0.8-0.85,2.25-1.14,2.24-2.67c0.8-1.11,2.53-1.45,2.63-3.16c0.66-0.59,1.18-1.32,1.98-1.76
		c0.35-0.62,0.69-1.25,1.04-1.87v0c0.15,0,0.24-0.08,0.24-0.23c0.64-1.11,1.77-2.04,1.29-3.55c1.35-1.3,2.03-3.04,3.02-4.58
		c0.25-0.39,0.9-0.68,0.62-1.34c0.2-0.18,0.57-0.21,0.56-0.59c0.39-0.62,0.93-1.19,1.14-1.87c0.67-2.14,2.17-3.94,2.48-6.22
		c0.04-0.3,0.25-0.46,0.42-0.66c1.42-1.75,1.7-4.06,2.88-5.92c0.36-0.58-0.13-1.13,0.23-1.74c0.53-0.9,0.47-2.01,1.15-2.98
		c0.58-0.83,0.85-2.02,1.15-3.01c0.75-2.48,1.69-4.91,2.09-7.52c0.43-2.8,1.27-5.54,1.97-8.3c0.51-2.02,0.76-4.1,1.47-6.09
		c0.25-0.7-0.6-1.56,0.07-2.33c-0.17-1.4,0.61-2.76,0.2-4.16c-0.16-0.54,0.29-0.85,0.36-1.24c0.33-1.68,0.51-3.39,0.68-5.1
		c0.04-0.39-0.18-0.79-0.25-1.2c-0.1-0.57-0.46-1.15,0.2-1.68c0.28-0.23,0.1-0.64,0.04-0.96c-0.18-0.95-0.71-1.88,0.11-2.84
		c0.17-0.19-0.12-0.77-0.2-1.17c-0.13-0.71-0.37-1.33,0.08-2.12c0.43-0.77-0.2-1.7-0.37-2.55c-0.14-0.73-0.36-1.45-0.54-2.18
		c0.27-0.19,0.74-0.19,0.63-0.71c-0.2-1.64-0.6-3.23-1.14-4.79c-0.12-0.66-0.17-1.35-0.39-1.98c-0.23-0.68,0.03-1.17,0.39-1.66
		c-0.05-1.86-0.77-3.58-1.11-5.38c-0.13-0.72-0.49-1.41,0.07-2.14c0.31-0.41,0.03-0.92-0.08-1.38c-3.18-13.17-6.35-26.35-9.54-39.52
		c-0.05-0.19-0.16-0.37-0.24-0.56c-0.1-0.79,0.38-1.58,0.38-2.21c-0.01-1.04,0.09-2,0.32-3c0.34-1.53,0.76-2.99,2.54-3.29
		c0.9-0.15,0.74-1.05,1.29-1.39c0.06-0.01,0.11,0,0.16,0.01c-0.05,0-0.1-0.02-0.16-0.01c0.22,0.24,0.31,0.64,0.75,0.64l0.01,0
		c0.63,0.28,1.2-0.06,1.78-0.19c2.65-0.59,5.72,0.58,7.33,2.93c0.32,0.46,1.11,0.33,1.11,1.04c0,0.88,1.22,0.77,1.28,1.68
		c0.04,0.73,0.32,1.46,0.5,2.18c0.08,0.32,0.13,0.68,0.55,0.75c0.48,0.22,0.66,0.63,0.78,1.12c1.37,5.75,2.75,11.5,4.11,17.25
		c0.08,0.32,0.02,0.67,0.02,1.01c-0.57,0.14-0.5,0.54-0.4,0.95c0.37,1.53,0.78,3.05,1.08,4.59c0.21,1.07,0.76,2.05,0.13,3.31
		c-0.33,0.67,0.36,1.81,0.48,2.76c0.14,1.06,0.9,2.04,0.07,3.27c-0.32,0.47,0.29,1.54,0.4,2.34c0.13,0.88,0.8,1.75-0.05,2.69
		c-0.2,0.22,0.11,0.9,0.15,1.37c0.07,0.65,0.58,1.28,0.09,1.95c-0.43,0.18-0.31,0.52-0.26,0.84c0.22,1.32,0.97,2.58,0.17,4.02
		c-0.22,0.39,0.23,1.15,0.38,1.74c-0.51,0.29-0.82,0.66-0.63,1.3c0.21,0.7,0.4,1.41,0.59,2.12c-1,0.79-0.59,1.69-0.2,2.59
		c-0.21,0.3-0.43,0.61-0.64,0.91c0,0,0,0.01,0,0.01c-0.2,0.61,0.08,1.18,0.22,1.74c0.16,0.61,0.16,1.17-0.22,1.69
		c-0.45,0.86,0.58,1.82-0.18,2.66v0c-0.45,0.83,0.31,1.6,0.1,2.42c-0.14,0-0.24,0.06-0.32,0.17c-0.54,2.21-0.85,4.44-0.56,6.72
		c0.02,0.17-0.15,0.36-0.23,0.55c-0.4,1.38-0.96,2.75-0.29,4.21c-0.69,1.1-1.25,2.23-0.82,3.58c-0.58,0.28-0.77,0.71-0.6,1.34
		c0.16,0.59,0.37,1.19,0.01,1.78c-0.49,0.4-0.2,0.82-0.05,1.24c-1.15,0.53-0.35,1.84-1.03,2.56v0c-0.5,0.52,0.09,1.07-0.05,1.59
		c-0.12,0.06-0.32,0.1-0.34,0.19c-0.63,2.68-1.25,5.37-1.84,8.06c-0.07,0.31,0.1,0.66,0.15,1v0c-0.75,1.09-1.2,2.24-0.8,3.59h0
		c-0.26,0.16-0.63,0.21-0.61,0.64c-0.05,0.11-0.05,0.23-0.01,0.35c-0.91,0.42-0.66,1.12-0.44,1.81c-1.06,0.75-0.78,2.05-1.08,3.06
		c-0.39,1.32-1.03,2.55-1.44,3.86c-0.43,1.36-0.99,2.67-1.12,4.12c-0.02,0.25-0.13,0.54-0.29,0.73c-1.27,1.44-1.52,3.37-2.18,5.05
		c-0.54,1.37-1.58,2.59-1.79,3.89c-0.32,1.98-2.11,3.33-1.94,5.39c0.01,0.06-0.04,0.13-0.08,0.19c-1.61,2.14-2.5,4.66-3.68,7.03
		c-0.93,1.87-2.21,3.57-3.25,5.39c-0.32,0.55-0.94,1.01-0.82,1.78v0c-1.21,0.88-1.68,2.3-2.42,3.5c-0.56,0.92-1.25,1.62-2.04,2.27
		c-0.04,0.74,0.06,1.35,1.06,1.04c0.33-0.07,0.84-0.03,0.97-0.22c0.79-1.26,2.13-1.3,3.34-1.61c1.16-0.3,2.28-0.53,3.25-1.46
		c0.6-0.58,1.79-0.52,2.69-0.82c1.55-0.51,3.38-0.31,4.56-1.86c0.26-0.35,1.01-0.33,1.54-0.46c1.72-0.42,3.45-0.81,5.17-1.25
		c0.69-0.18,1.47-0.15,1.86-1.03c0.23-0.53,0.93-0.49,1.45-0.62c1.79-0.44,3.59-0.83,5.36-1.31c1.13-0.31,2.44-0.21,3.2-1.47
		c0.18-0.3,0.86-0.32,1.32-0.43c1.92-0.47,3.85-0.9,5.76-1.4c0.94-0.24,1.98-0.22,2.61-1.3c0.32-0.55,1.25-0.41,1.89-0.64
		c1.35-0.47,3.02-0.22,3.94-1.73c0.11-0.17,0.49-0.21,0.76-0.26c1.61-0.28,2.65-1.58,4.06-2.22c0.22-0.6,0.78-0.64,1.28-0.79
		c0.36-0.11,0.81-0.09,0.93-0.59h0c0.96-0.79,1.93-1.58,2.89-2.37c0.3-0.22,0.28-0.55,0.32-0.86c1.39-0.27,2.16-1.29,2.86-2.39
		c0,0,0,0,0,0c0.61-0.08,0.57-0.54,0.55-0.97c0.66-0.6,1.32-1.2,1.98-1.79c1.41-1.86,2.66-3.82,3.71-5.91
		c0.49-0.76,0.97-1.52,1.48-2.27c0.51-0.74,0.68-1.52,0.41-2.38c0.94-0.62,1.3-1.65,1.77-2.59c0.07-0.09,0.07-0.18-0.02-0.26
		c0.22-0.15,0.44-0.31,0.66-0.46c0.34-0.18,0.14-0.5,0.2-0.76l0.06-0.05c0.33-0.03,0.59,0.11,0.84,0.29
		c1.21,0.53,2.21-0.3,3.32-0.47c2.69-0.51,5.35-1.2,7.99-1.92c1.72-0.39,3.44-0.78,5.16-1.18c0.33-0.08,0.67-0.16,0.71-0.59
		c0.03-0.1,0.03-0.21-0.01-0.31c0.98-0.28,1.97-0.54,2.95-0.84c0.81-0.24,1.79-0.17,2.22-1.19c0.08-0.18,0.45-0.3,0.71-0.34
		c2.23-0.38,3.86-1.86,5.73-2.92c1.13-0.64,2.06-1.75,3.46-1.91c0.69-0.07,0.64-0.82,1.04-1.15c1-0.85,1.93-1.81,3.04-2.49
		c0.63-0.39,1.07-0.83,1.37-1.42c0.51-1.01,1.55-1.41,2.33-2.08c1.35-1.16,2.75-2.21,3.47-3.9c0.04-0.11,0.04-0.22-0.01-0.33
		c0,0,0,0,0,0c0.24-0.18,0.59-0.25,0.59-0.65c1.71-1.09,2.52-2.91,3.54-4.54c1.54-2.45,2.93-4.99,4.51-7.41
		c1.12-1.71,1.61-3.61,2.14-5.51c0.28-1.01,1.36-1.74,1.04-2.96c1.73-2.49,0.7-5.68,2.09-8.26c-0.59-2.07,1.02-3.96,0.47-6.03
		c1.2-1.55-0.34-3.42,0.57-5.03c0.13-0.23-0.08-0.66-0.14-0.99c-0.11-0.71-0.52-1.4,0.11-2.12c0.33-0.38,0.02-0.92-0.07-1.38
		c-0.14-0.72-0.46-1.42,0.06-2.15c0.36-0.5,0-1.05-0.08-1.58c-0.22-1.62-1.27-3.17-0.4-4.91c0.12-0.24-0.09-0.66-0.17-0.99
		c-1.68-7.03-3.37-14.05-5.06-21.08c-0.11-0.44-0.08-0.98-0.65-1.17c-0.78-0.4-0.73-1.21-0.92-1.9c-0.28-1.03-0.51-2.07-0.75-3.1
		c-0.12-0.53-0.39-0.83-0.97-0.71c-0.54-0.95-0.23-2.23-1.15-3.03c-0.75-0.3-0.75-1.03-0.95-1.66c-0.24-0.75-0.14-1.62-0.81-2.21
		c-0.64-0.38-0.78-1.03-0.97-1.68c-0.16-0.55-0.02-1.25-0.68-1.58c-0.47-0.05-0.8-0.29-0.98-0.73c-0.26-1.01,0.07-2.35-1.48-2.64
		c-0.08-0.73-0.21-1.42-1.17-1.41c-0.23-0.93-0.18-1.92-1.3-2.49c-0.61-0.31-0.08-1.58-1.05-1.9c-0.84-0.1-0.29-1.36-1.18-1.41
		c-0.63-0.24-0.57-0.87-0.75-1.36c-0.13-0.36-0.07-0.85-0.64-0.9c-0.98-1.54-2.45-2.71-3.3-4.35c-0.16-0.3-0.47-0.15-0.72-0.14h0
		c-0.4-0.39-0.08-1.17-0.77-1.4c-0.97-0.77-1.6-1.84-2.36-2.79c-0.88-0.63-1.95-1.04-2.34-2.22c-0.04-0.13-0.48-0.13-0.73-0.18
		c-0.11-0.37-0.23-0.74-0.34-1.11c-0.13-0.51-0.54-0.27-0.84-0.3c-0.06-0.51-0.62-0.46-0.81-0.68c-0.48-0.56-1.54-0.57-1.52-1.64
		c0.01-0.4-0.49-0.33-0.82-0.28c-1.01-1.71-2.76-2.73-4.09-4.15c-0.66-0.7-0.58-1.58-1.21-2.14c-1.46-1.59-1.79-3.47-1.45-5.53
		c-0.01-1.81,1.52-2.3,2.69-3.05c0.47-0.3,1.29-0.17,1.06-1.11c0.99-0.26,1.98-0.86,2.95,0.04c1.34-0.7,2.63,0.5,4,0.05
		c0.92-0.3,1.54,0.54,2.25,0.96c0.93,0,1.75,0.3,2.52,0.81c1.62,1.07,3.27,2.08,4.98,3.03c1.15,0.64,2.32,1.37,3.07,2.53
		c0.76,0.56,1.67,0.98,1.95,2.01c1.43,0.66,2.35,1.86,3.18,3.13c0.19,0.29,0.36,0.46,0.66,0.65c1.51,0.94,2.7,2.18,3.13,3.99
		c0.02,0.08,0.21,0.13,0.32,0.19c0.92,1.14,2.13,2.09,2.51,3.6c0.25,0.2,0.71,0.38,0.72,0.59c0.08,1.68,2.03,2.36,2.11,4.02
		c0,0.06,0.22,0.1,0.33,0.15h0c0.2,0.09,0.4,0.17,0.59,0.26c0.25,0.84,0.04,1.84,1.15,2.36c0.6,0.28,0.37,1.24,0.73,1.8
		c0.04,0.61,0,1.3,0.97,1.07c0.53,0.98,0.2,2.28,1.18,3.09h0c1.08,0.65,0.79,1.86,1.17,2.8c0.23,0.56,0.1,1.41,1.12,1.26
		c0.26,1.03,0.53,2.06,0.78,3.1c0.12,0.5,0.29,0.9,0.92,0.74c0.71,1.83,0.98,3.77,1.49,5.64c0.15,0.55,0.27,1.07,1.02,0.89
		c1.33,5.44,2.66,10.88,3.99,16.32c0.11,0.47,0.22,0.94-0.16,1.35c-0.6,1.04,0.25,1.93,0.31,2.9c0.05,0.77,0.66,1.54-0.08,2.3
		c-0.11,0.11-0.15,0.42-0.08,0.58c0.71,1.67,0.53,3.43,0.3,5.11c-0.18,1.32,0.11,2.69-0.48,3.96c-0.42,0.92,0.17,1.84-0.18,2.92
		c-0.8,2.44-1.06,5.03-1.89,7.51c-0.65,1.96-1.16,3.96-2.13,5.9c0.59,0.53,1.48,0.29,1.8-0.08c1.26-1.47,3.3-1.83,4.5-3.38
		c0.67-0.86,1.93-0.9,2.78-1.76c0.54-0.54,1.46-1.15,2.24-1.43c1.38-0.49,2.32-1.4,3.27-2.38c0.2-0.21,0.41-0.35,0.67-0.4
		c1.37-0.27,2.24-1.25,3.04-2.24c0.39-0.48,1.56-0.12,1.3-1.23c0.37-0.44,1.18-0.17,1.4-0.85c0.09-0.08,0.1-0.18,0.03-0.28
		c0,0,0,0,0,0c0.34-0.5,1.19-0.23,1.41-0.92l0.01-0.03c0.25-0.67,1.08-0.61,1.43-1.14l0,0v0c0.35-0.21,0.28-0.58,0.37-0.89
		c0.37,0.01,0.73-0.05,1.02-0.3c0.4-0.17,0.33-0.56,0.4-0.88c0.37,0.02,0.71-0.06,1-0.28c2.37-2.65,4.11-5.78,6.3-8.54
		c1.57-1.98,2.83-4.1,4.2-6.17c0.47-0.7,1.18-1.33,0.89-2.34c-0.09-0.31,0.23-0.46,0.37-0.68c0.76-1.15,1.61-2.32,1.56-3.73
		c-0.06-1.67,1.1-2.88,1.36-4.47c0.22-1.39,0.51-2.88,1.09-4.26c0.38-0.9-0.5-2.1,0.31-3.08c-0.71-1.3,0.62-2.61-0.01-3.91
		c0.95-1.43-0.21-2.93,0.05-4.25c0.58-3-0.77-5.58-1.28-8.33c-0.51-2.75-1.28-5.45-1.93-8.18c-1.41-1.24-1.13-3.53-2.85-4.61
		c-0.23-0.15-0.27-0.61-0.4-0.92c0.01-0.3-0.04-0.57-0.3-0.76c-0.18-0.33-0.52-0.23-0.8-0.31c-0.05-0.39-0.1-0.78-0.37-1.1
		c-0.16-0.38-0.52-0.26-0.81-0.33c-0.03-1.6-1.16-2.56-2.1-3.62c-1.24-1.39-2.46-2.77-3.89-4.03c-1.33-1.17-2.54-2.51-3.92-3.65
		c-0.15-0.02-0.29-0.03-0.44-0.05c-0.39-0.38-0.17-1.1-0.75-1.37c-3.46-2.13-6.92-4.25-10.38-6.38c-0.62-0.14-0.99-0.83-1.82-0.6
		c-0.74,0.2-1.26-0.56-1.86-0.91c-1.67-0.98-3.21-2.24-5.25-2.42c-0.97-0.63-1.74-1.7-3.15-1.38c-0.18,0.04-0.44-0.26-0.66-0.41
		c-0.8-0.58-1.67-0.8-2.64-0.53c-0.82-0.92-1.76-1.75-3.05-1.7c-0.67,0.03-1.02-0.4-1.39-0.66c-0.71-0.49-1.34-0.53-2.08-0.26
		c-1.3-1.73-3.25-1.54-5.07-1.73v0v0c-0.55-0.67-1.11-1.11-2.12-1.11c-1.27,0.01-2.07-1.22-3.21-1.66c-0.65-0.58-1.36-0.84-2.2-0.41
		c-0.27-0.83-0.64-1.56-1.54-1.9c-0.57-0.22-1.01-0.59-1.15-1.27c-0.12-0.57-0.7-0.54-1.14-0.66c-0.21-1.31-0.47-2.61-0.96-3.86
		c0.05-0.29-0.02-0.56-0.2-0.8c-0.18-0.59,0.34-0.89,0.56-1.3v0c0.14-0.61-0.18-1.32,0.37-1.85c0.87-1.39,2.09-2.42,3.4-3.37
		c0.45-0.57,0.95-0.97,1.73-1.14c1.63-0.36,3.29-0.63,4.86-1.25c0.77,0.1,1.58-0.54,2.33,0.19c0.13,0.13,0.54,0.08,0.78,0
		c1.11-0.35,2.13-0.33,3.25,0.14c1.49,0.62,3.2,0.14,4.76,0.63c0.36,0.12,0.71,0.1,1.07,0.38c1.04,0.81,2.37,0.89,3.61,1.08
		c0.5,0.08,0.81,0.33,1.21,0.49c1.08,0.41,1.88,1.25,3.25,1.3c1.11,0.04,2.22,1.14,3.27,1.85c1.69,1.15,3.56,2.06,5.18,3.28
		c1.45,1.09,2.87,2.29,3.97,3.78c0.07,0.12,0.16,0.14,0.27,0.06c0.24,0.17,0.47,0.33,0.71,0.5c0.06,0.14,0.16,0.17,0.29,0.1h0
		c0.21,0.12,0.41,0.23,0.62,0.35c0,0.39,0.03,0.77,0.36,1.06c0.16,0.37,0.53,0.29,0.82,0.37c0,0.38,0.05,0.75,0.32,1.04
		c0.16,0.44,0.56,0.25,0.86,0.31c0.11,0.36,0.22,0.73,0.33,1.09c0.14,0.49,0.51,0.28,0.81,0.28c0.3,0.56,0,1.6,1.16,1.45
		c0.44,0.69,0.03,1.78,1.02,2.21l0,0c0.48,0.24,0.61,0.69,0.72,1.16c0.14,0.58,0.18,1.2,0.95,1.41c0.06,0.02,0.11,0.04,0.15,0.07
		c0.04,0.05,0.08,0.1,0.13,0.15c0.13,0.23,0.14,0.56,0.23,0.82c0.27,0.78,0.14,1.74,1.2,2.16c0.28,0.11,0.35,0.83,0.46,1.29
		c0.3,1.18,0.57,2.38,0.86,3.56c0.08,0.33,0.08,0.81,0.29,0.95c1.7,1.14,1.35,3.1,1.92,4.68c0.24,0.68,0.55,1.45-0.47,2.06
		c1.08,0.17,1.97,0.46,2.49-0.64c1.18-0.64,2.12-1.62,3.39-2.2c0.73-0.33,1.54-1.16,2.2-1.98c1.04-1.3,2.12-2.65,3.53-3.64
		c0.11-0.07,0.23-0.15,0.29-0.26c1.24-2.3,2.96-4.34,3.88-6.83c1.7-1.65,2.65-3.67,2.82-6.01c0.04-0.52,0.34-0.83,0.44-1.26
		c0.32-0.36-0.11-0.86,0.13-1.16c0.94-1.18,1.2-2.47,0.88-3.92c-0.02-0.08,0.15-0.21,0.24-0.31c0.41-0.22,0.22-0.57,0.18-0.88
		c-0.1-0.63-0.5-1.22,0.18-1.86c0.41-0.39-0.04-1.03-0.13-1.55c-0.11-0.65-0.53-1.3,0.01-1.94c0.58-0.87-0.17-1.63-0.21-2.45
		c-0.05-0.88-0.86-1.71-0.2-2.64c0.12-0.12,0.2-0.25,0.26-0.41c-0.03-0.14-0.06-0.27-0.1-0.41c-0.84-3.54-1.68-7.08-2.52-10.61
		c-0.11-0.49-0.26-0.92-0.9-0.83c-0.31-1.1-0.6-2.2-0.93-3.3c-0.3-0.99-0.29-2.07-1.35-2.79c-0.43-0.29-0.45-1.22-0.62-1.86
		c-0.13-0.5-0.31-0.9-0.93-0.8c0,0,0,0,0,0c-0.54-0.97-0.27-2.26-1.2-3.07h0c-0.78-1.12-1.52-2.34-2.33-3.36
		c-1.11-1.4-1.88-3.1-3.28-4.26c-0.6-0.5-0.64-1.57-1.66-1.61c-0.14-0.52-0.28-0.99-0.68-1.43c-1.81-2.02-3.6-4.05-5.85-5.6
		c-0.33-1.57-2.05-1.84-2.88-3.02c-0.64-0.91-1.88-1.49-3.09-1.77v0c-2.17-1.4-3.71-3.77-6.1-4.67c-2.24-0.84-4.15-2.41-6.55-2.83
		c-0.25-0.04-0.51-0.17-0.72-0.32c-1.38-0.97-2.96-1.42-4.58-1.79c-0.63-0.91-1.46-1.4-2.58-1.04c-0.77,0.24-1.26-0.4-1.87-0.49
		c-3.4-0.5-6.66-1.62-10.04-2.2c-1.26-0.22-2.47,0.28-3.51-0.04c-1.44-0.44-2.64-0.02-3.93,0.23c-0.41-1.05-1.13-0.55-1.79-0.36
		c-0.93,0.23-1.86,0.45-2.8,0.68c-0.95,0.02-1.86,0.65-2.87-0.09c-0.44-0.32-1.15,0.08-1.71,0.31c-0.69,0.06-1.36,0.2-1.99,0.48v0
		c-0.96,0.11-1.9,0.29-2.79,0.67c-1.09,0.14-2.16,0.35-3.19,0.76c-0.67,0.13-1.6-0.1-1.46,1.1v0l0,0c-1.04,0.29-2.08,0.58-3.13,0.88
		c-0.91,0.19-1.83,0.39-2.74,0.58c-0.6,0.12-0.68,0.55-0.67,1.04c-0.85,0.2-1.69,0.41-2.54,0.61c-0.52,0.12-0.58,0.46-0.49,0.9
		c-0.85,0.22-1.88,0.21-2.51,0.71c-1.38,1.1-3.13,1.69-4.31,2.99c-0.45,0.5-0.9,0.65-1.41,0.93c-1.09,0.59-2.11,1.3-3.15,1.96
		c-1.31,1.1-2.73,2.1-3.89,3.35c-0.7,0.76-2.05,0.94-2.14,2.26c-1.36-0.02-2.07,1.15-2.75,1.91c-1.17,1.31-2.14,2.68-3.95,3.16
		c-0.76,0.2-1.21,0.99-1.72,1.46c-1.33,1.22-2.57,2.36-4.42,2.63c-0.34,0.05-0.35,0.36-0.32,0.64l0,0
		c-2.21,1.13-4.68,1.32-7.04,1.92c-0.44,0.11-0.5-0.33-0.59-0.65c0.87-0.1,1.54-0.46,1.74-1.39c0.3-0.03,0.39-0.19,0.29-0.47
		c0.06-0.12,0.09-0.26,0.07-0.39c0.21-0.08,0.43-0.15,0.64-0.23c0.13-0.01,0.35,0.03,0.38-0.03c0.71-1.4,2.1-2.2,3.01-3.41
		c0.58-0.85,0.83-1.99,2.08-2.24c0.29-0.06,0.17-0.44,0.17-0.69c0.4-0.18,0.49-0.57,0.72-0.88c0.43-0.6,0.56-1.48,1.55-1.67
		c0.58-0.11,0.67-0.93,1.05-1.38c0.56-0.68,0.83-1.48,1.75-2c0.89-0.5,1.29-1.75,1.78-2.76c0.85-1.73,2.75-2.65,3.54-4.43
		c0.26-0.59,0.85-1.01,0.84-1.72c0.14-0.18,0.28-0.36,0.42-0.54c0.21-0.03,0.27-0.15,0.22-0.35c-0.01-0.08,0-0.16,0.01-0.23
		c-0.02,0.07-0.02,0.14-0.01,0.23c0.14-0.22,0.28-0.45,0.43-0.67c-0.22,0.09-0.36,0.22-0.41,0.42c0.05-0.2,0.18-0.34,0.41-0.42
		c0.19-0.04,0.25-0.15,0.18-0.33v0c0.1-0.21,0.19-0.43,0.29-0.64c0.17,0.01,0.26-0.07,0.29-0.23c0.29-0.18,0.19-0.51,0.29-0.76
		c0.15,0.01,0.26-0.06,0.32-0.21c0.38-0.15,0.23-0.51,0.32-0.78c0.14,0,0.24-0.07,0.29-0.2c0.4-0.16,0.18-0.53,0.28-0.79
		c0.14-0.01,0.25-0.08,0.33-0.19c0.34-0.42,0.45-1.06,1.21-1.07c0.56-0.01,0.52-0.49,0.47-0.9c0.53-0.12,0.77-0.43,0.61-0.98
		c0.24-0.16,0.66-0.13,0.58-0.6c0.08-0.11,0.08-0.23,0.01-0.35c0.2-0.2,0.61-0.21,0.56-0.63c0.1-0.11,0.11-0.23,0.04-0.36
		c0.21-0.21,0.64-0.2,0.6-0.64c0.1-0.11,0.11-0.22,0.03-0.35c1.29-1.36,1.96-3.14,3.07-4.62c0.45-0.59-0.37-1.38,0.39-1.86
		c0.47-0.15,0.19-0.53,0.25-0.8c0.6-0.43,1.13-1.28,1.23-1.98c0.81-0.13,0.85-0.97,1.16-1.46c0.84-1.31,1.61-2.68,2.46-4
		c0.52-0.81,0.99-1.7,0.75-2.75c1.45-1.62,2.83-3.49,3.41-5.44c0.52-1.75,1.47-3.13,2.27-4.64c0.28-0.52,0.24-0.84,0.02-1.27v0
		c0.09-0.21,0.17-0.42,0.25-0.64l-0.01,0c0.42-0.1,0.48-0.35,0.29-0.7c0.22-0.17,0.43-0.35,0.65-0.52c0.3-0.18,0.09-0.53,0.24-0.76
		c0.6-0.07,0.62-0.52,0.62-0.98l-0.08-0.05c0,0,0,0,0-0.01c0.02,0.02,0.05,0.04,0.07,0.05c0.12-0.06,0.34-0.11,0.34-0.16
		c-0.01-1.6,1.06-2.75,1.7-4.08c0-0.93,0.3-1.77,0.81-2.54c0.51-0.76,1.13-1.4,0.97-2.49c-0.07-0.45,0.47-1.02,0.79-1.5
		c0.47-0.7,1.18-1.29,0.84-2.28c-0.04-0.11-0.03-0.32,0.04-0.38c1.31-1.1,1.29-2.85,1.84-4.26c0.51-1.3,1.46-2.56,1.35-4.09
		c-0.01-0.13-0.03-0.33,0.04-0.38c1.41-1,1.19-2.79,1.76-4.15c0.53-1.27,1.59-2.57,1.35-4.16c-0.02-0.13-0.01-0.32,0.07-0.39
		c1.29-1.04,0.99-2.73,1.65-4.03c0.23-0.11,0.59-0.09,0.59-0.45c0-1.64,0.29-3.21,1.29-4.54c0.43-0.58-0.41-1.4,0.43-1.84
		c0.08-2.11,1.81-3.8,1.54-6.01c-0.01-0.06,0-0.14,0.04-0.19c1.5-1.89,1.21-4.34,2.03-6.39c0.68-1.72,1.12-3.44,1.62-5.19
		c0.41-1.47,0.69-2.97,1.02-4.44c0.16-0.7,0.43-1.32,0.67-1.96c0.44-1.18,1.22-2.27,0.64-3.62c0.23-0.23,0.65-0.29,0.65-0.73l0.01,0
		c0.21-0.58-0.13-1.28,0.42-1.78v-0.01c0.43-0.53-0.18-1.15,0.15-1.68c0.59-0.71,0.59-1.66,0.77-2.46c0.52-2.31,1.1-4.61,1.62-6.92
		c0.33-1.48,0.7-2.98,0.93-4.49c0.47-3.19,1.05-6.36,1.9-9.49c0.29-1.08,0.8-2.28,0.41-3.63c-0.17-0.59,0.29-1.66,0.6-2.48
		c0.51-1.37,0.77-2.85,0.96-4.24c0.13-1.02,0.03-2.18,0.28-3.23c0.6-2.52,0.4-5.2,1.58-7.6c-0.75-2.1,0.65-4,0.6-6.11
		c-0.05-1.71-0.1-3.7,0.81-5.4c0.09-0.17,0.24-0.42,0.18-0.54c-0.56-1.06,0.06-2.04,0.21-3.03c0.28-1.88,0.25-3.8,0.49-5.65
		c0.23-1.77-0.14-3.74,0.98-5.37c0.07-0.1,0.12-0.3,0.07-0.38c-0.81-1.35,0.82-2.68,0.01-4.02c1.17-1.07-0.24-2.59,0.65-3.75
		c0.35-0.45-0.02-1.06-0.17-1.57c-0.22-0.77,0.88-1.19,0.43-2.04c-0.31-0.59-0.06-1.17,0.21-1.85c0.35-0.88-0.51-2.07,0.31-3.04
		c-0.75-1.27,0.65-2.56-0.03-3.84c-0.38-0.72,0.85-1,0.47-1.83c-0.25-0.55-0.61-1.27,0.14-1.85c0.11-0.09,0.15-0.44,0.07-0.57
		c-0.93-1.52,0.35-3.14-0.23-4.66c-0.29-0.75,0.86-1.03,0.49-1.85c-0.25-0.57-0.47-1.21,0.13-1.88c0.42-0.47-0.04-1.18-0.21-1.75
		c-0.21-0.7-0.21-1.31,0.29-1.87c0,0,0,0,0,0c0.41-0.83-0.54-1.67,0.03-2.49l0.13,0l0.04-0.12h0c0.46-1.14-0.45-2.14-0.32-3.25
		c0.14-0.02,0.25-0.09,0.32-0.21c0.09-0.24,0.09-0.48,0.05-0.71c0.14-1.81,0.29-3.62-0.05-5.43l0.13,0.01l0.06-0.12
		c0.49-0.3,0.2-0.71,0.14-1.08c-0.12-0.74-0.26-1.47-0.4-2.2c0.13,0.01,0.22-0.05,0.27-0.16c0.63-0.84-0.2-1.61-0.12-2.43
		c0.13-0.03,0.24-0.08,0.33-0.17c0.57-0.23,0.3-0.67,0.22-1.03c-0.16-0.73-0.37-1.45-0.55-2.18l0-0.01
		c0.23-0.16,0.61-0.18,0.58-0.59c0.22-1.13-0.84-2.15-0.27-3.31c0.63-0.3,0.25-0.78,0.18-1.17c-0.12-0.69-0.3-1.37-0.45-2.05
		c0.27-0.14,0.7-0.12,0.6-0.63c-0.04-0.95-0.33-1.83-0.61-2.72c0.19-0.22,0.56-0.27,0.58-0.64c0.13-1.14-0.28-2.18-0.66-3.21
		c0.51-0.91,0.68-1.83,0.3-2.85c-0.2-0.54-0.48-1.17,0.22-1.65c0.12-0.08,0.19-0.41,0.13-0.55c-0.87-1.97,0.55-4.11-0.49-6.08
		c-0.22-0.42-0.24-0.93,0.2-1.31c0.49-0.52,0.01-1.01-0.04-1.51c-0.1-1.01-0.66-1.89-0.01-3.07c0.4-0.72-0.27-1.71-0.4-2.67
		c-0.01-0.16-0.01-0.32-0.02-0.47c0.13,0.02,0.21-0.03,0.27-0.15c0.61-0.55,0.07-1.11-0.01-1.65c-0.11-0.8-0.34-1.58-0.51-2.36
		c0.39-0.15,0.74-0.33,0.6-0.86c-0.18-0.72-0.39-1.44-0.51-2.17c-0.14-0.87-0.83-1.77,0.08-2.64c0.12-0.12,0.01-0.52-0.05-0.78
		c-0.27-1.32-0.91-2.6-0.11-3.97c0.11-0.2-0.17-0.63-0.27-0.95c-0.16-0.79-0.23-1.61-0.51-2.36c-0.34-0.91,0.75-1.54,0.3-2.48
		c-0.33-0.72-0.76-1.73-0.5-2.32c0.77-1.76-0.1-3.21-0.46-4.78c0.96-2.17-0.03-4.16-0.61-6.18c1.02-2.19-0.16-4.14-0.64-6.17
		c0.04-0.43,0.36-0.7,0.58-1.02c0.44-0.97-0.22-1.81-0.34-2.71c-0.14-0.99-0.39-1.97-0.59-2.96c0.74-0.21,0.61-0.75,0.48-1.29
		c-0.33-1.36-0.67-2.72-0.99-4.09c-0.13-0.57-0.43-1.16,0.06-1.71v0v0c0.45-0.4,0.19-0.87,0.09-1.3c-0.3-1.3-0.63-2.59-0.94-3.89
		c-0.13-0.57-0.42-1.16,0.07-1.71c0.48-0.59,0.11-1.17-0.02-1.74c-0.48-2.12-1.01-4.23-1.51-6.35c0.5-0.19,0.71-0.54,0.58-1.08
		c-0.23-0.89-0.45-1.79-0.67-2.68h0c-0.26-1.12-0.52-2.24-0.77-3.36c-0.11-0.52-0.37-1.04,0.02-1.55v0
		C379.35,10.98,379.49,10.95,379.64,10.93z"/>
</g>
</svg>
