<svg xmlns="http://www.w3.org/2000/svg" xmlns:xlink="http://www.w3.org/1999/xlink" viewBox="0 0 226.14 50.45"><defs><path id="a" d="M0 0h226.14v50.45H0z"/></defs><clipPath id="b"><use xlink:href="#a" overflow="visible"/></clipPath><path d="M65.39 2.05V0H51.31v2.05h6.75L47.84 37.99 37.98 2.05h6.08V0H26.22v2.05h5.56L21.56 37.99 11.69 2.05h6.08V0H0v2.05h4.48l13.27 48.4h2.22L32.41 6.92l.32-1.59 11.32 45.11h2.22l13.82-48.4h5.3zm5.06 10.16h-.04c-7.23 0-11.47 4.5-11.49 12.85h-.01v7.1h.01c.04 8.33 4.26 12.82 11.49 12.82.01 0 .01-.01.02-.01l.01.01c7.23 0 11.46-4.49 11.49-12.82h.01v-7.1h-.01c-.01-8.34-4.25-12.85-11.48-12.85m5.86 23.58c0 6.87-1.94 7.89-5.9 7.89h-.01c-3.93 0-5.88-1.02-5.92-7.73V21.39c.03-6.75 1.99-7.77 5.92-7.77h.01c3.96 0 5.9 1.02 5.9 7.89 0 .01-.01.01-.01.02v14.25c.01 0 .01.01.01.01m59.46-24.19h-1.76l-9.83 31.39h-3.08v1.37h9.2v-1.37h-4.43l3-9.56h8.39l2.63 9.56h-3.5v1.37h11.14v-1.37h-3.01l-8.75-31.39zm-6.51 20.56l3.9-12.46h.31l3.43 12.46h-7.64zm-13.08 10.83l.03-29.35h3.04v-1.36h-8.54v.01h-.01l-9.06 25.46-8.59-25.47-.02.01v-.01h-8.47v1.37h3l-.01 29.34h-2.81v1.37h8.91v-1.37h-4.2V15.16l10.08 30.17h1.4l10.6-29.86-.05 27.52h-3.28v1.37h11.38v-1.37s-1.59-.01-3.42 0c.25-3.44.02 0 .02 0m48.71-29.35h4.58v21.2l-13.35-22.51-.01-.05h-7.78v1.36h2.76v29.37h-2.76v1.36h8.81v-1.36h-4.64V16.44l16.96 28.6.01-.06v.06h1.4v-31.4h3.01v-1.36h-8.99v1.36zm12.44 21.85c-1.69 0-3.06 1.53-3.06 3.41 0 1.89 1.37 3.42 3.06 3.42s3.06-1.53 3.06-3.42c0-1.88-1.37-3.41-3.06-3.41m22.07-17.28c-.05-.06-.09-.13-.14-.18-.01 0-.01-.01-.02-.02-.16-.19-.33-.33-.5-.43-.43-.27-1.03-.5-1.91-.5-2.31 0-3.39 1.14-4.41 2.69-.66 1.01-1.36 2.35-1.76 3.17-.02-.43-.13-1.3-.64-2.64-.67-1.8-1.3-2.44-1.4-2.52v-.03h-5.46v1.35h3.46v21.2h-3.46v1.35h12.42V40.3h-4.9V25.63c.53-1.31 1.35-3.02 2.57-4.84 1.24-1.56 1.88-2.02 2.59-2.02.32 0 .32 1.42.31 2.13 0 .11-.01.21-.02.32v.09-.01.02c0 3.09.92 3.9 2.06 3.9 1.13 0 2.04-.75 2.04-3.9 0-1.24-.31-2.35-.79-3.07-.02-.01-.04-.02-.04-.04m24.01 22.07c-.61 0-.7-.63-.7-.68V17.75h-4.07v18.04c-.05.09-2.7 5.17-6.39 5.17-1.9 0-2.51-1.01-2.51-2.17V17.76h-7.64v1.35h3.57v17.54s-.16 5.66 6.04 5.66c4.15 0 6.49-3.79 6.93-4.45v.11c-.05 2.18.69 3.63 1.8 3.65h5.69v-1.35h-2.72z" clip-path="url(#b)" fill="#fff"/></svg>